<?xml version="1.0" standalone="no"?>
<!DOCTYPE svg PUBLIC "-//W3C//DTD SVG 1.1//EN" "http://www.w3.org/Graphics/SVG/1.1/DTD/svg11.dtd" >
<svg>
<metadata>
Created by FontForge 20090914 at Mon Jun 22 18:23:07 2020
 By www-data
Copyright &#194;&#169; 2017 by Salvador Rodr&#195;&#173;guez. All rights reserved.
</metadata>
<defs>
<font id="Nutmeg-Regular" horiz-adv-x="1343" >
  <font-face 
    font-family="Nutmeg Regular"
    font-weight="400"
    font-stretch="normal"
    units-per-em="2048"
    panose-1="0 0 5 0 0 0 0 0 0 0"
    ascent="1638"
    descent="-410"
    x-height="983"
    cap-height="1434"
    bbox="-392.999 -508.002 3183 2034"
    underline-thickness="0"
    underline-position="0"
    unicode-range="U+0020-U+FB02"
  />
<missing-glyph horiz-adv-x="1447" 
d="M205 1513h1038v-1513h-1038v1513zM1124 162v1231h-690zM326 1348v-1227h688z" />
    <glyph glyph-name="uniFB01" unicode="fi" horiz-adv-x="1466" 
d="M328 0c-20.667 0 -31 10.334 -31 31.001v753h-256c-20.667 0 -31 10.333 -31 31v137c0 20.667 10.333 31 31 31h256v150c0 124 39.667 223.833 119 299.5s183.666 113.5 312.999 113.5c86 0 164.667 -11 236 -33c18 -6.66699 25.333 -18 22 -34l-24 -146
c-5.33301 -23.333 -17.666 -32 -36.999 -26c-49.333 15.333 -104 22.666 -164 21.999c-64 0 -115.833 -18 -155.5 -54s-59.5 -83.333 -59.5 -142v-150h745c20.667 0 31 -10.333 31 -31v-921c0 -20.667 -10.333 -31 -31 -31h-188c-20.667 -0 -31 10.333 -31 31v753h-526v-753
c0 -20.667 -10.333 -31 -31 -31h-188zM1198 1198c-44 0 -80.999 14 -110.999 42s-45 61.833 -45 101.5s15.167 73.5 45.5 101.5s67.166 42 110.499 42c42 0 78.5 -14 109.5 -42s46.5 -61.833 46.5 -101.5s-15.5 -73.5 -46.5 -101.5s-67.5 -42 -109.5 -42z" />
    <glyph glyph-name="uniFB02" unicode="fl" horiz-adv-x="1585" 
d="M1524 31c2.66699 -18 -5.66797 -30.334 -25.001 -37.001c-52 -16.667 -98.333 -25 -139 -25c-86 0 -155.333 20.833 -208 62.5s-79 96.834 -79 165.501v1095c-91.333 24.667 -173.333 37 -246 37c-87.333 0 -155.833 -17.667 -205.5 -53s-74.5 -84 -74.5 -146v-147h373
c20.667 0 30.667 -10.333 30 -31v-137c0 -20.667 -10 -31 -30 -31h-373v-753c0 -20.667 -10.333 -31 -31 -31h-188c-20.667 -0 -31 10.333 -31 31v753h-256c-20.667 0 -31 10.333 -31 31v137c0 20.667 10.333 31 31 31h256v147c0 128.667 44.667 230.167 134 304.5
s212 111.5 368 111.5c94 0 188.667 -13 284 -39c4 5.33301 11 8.33301 21 9h188c20.667 0 31 -10.333 31 -31v-1221c0 -23.333 6.5 -41.833 19.5 -55.5s30.333 -20.5 52 -20.5s46.834 3 75.501 9c22 4 34.333 -4.33301 37 -25z" />
    <glyph glyph-name="f_f.liga" unicode="ff" horiz-adv-x="1869" 
d="M328 0c-20.667 0 -31 10.335 -31 31.002v753h-256c-20.667 0 -31 10.333 -31 31v137c0 20.667 10.333 31 31 31h256v150c0 124 39.667 223.833 119 299.5s183.666 113.5 312.999 113.5c86 0 164.667 -11 236 -33c18 -6.66699 25.333 -18 22 -34l-24 -146
c-5.33301 -23.333 -17.666 -32 -36.999 -26c-49.333 15.333 -104 22.666 -164 21.999c-64 0 -115.833 -18 -155.5 -54s-59.5 -83.333 -59.5 -142v-150h670v150c0 124 39.5 223.833 118.5 299.5s183.5 113.5 313.5 113.5c91.333 0 169.666 -11 234.999 -33
c18 -6.66699 25.667 -18 23 -34l-25 -146c-5.33301 -23.333 -17.666 -32 -36.999 -26c-49.333 15.333 -104 22.666 -164 21.999c-64 0 -115.833 -18 -155.5 -54s-59.5 -83.333 -59.5 -142v-150h373c20.667 0 31 -10.333 31 -31v-137c0 -20.667 -10.333 -31 -31 -31h-373
v-753c0 -20.667 -10 -31 -30 -31h-189c-20.667 -0 -30.667 10.333 -30 31v753h-670v-753c0 -20.667 -10.333 -31 -31 -31h-188z" />
    <glyph glyph-name="f_f_i.liga" unicode="ffi" horiz-adv-x="2385" 
d="M328 0c-20.667 0 -31 10.335 -31 31.002v753h-256c-20.667 0 -31 10.333 -31 31v137c0 20.667 10.333 31 31 31h256v150c0 124 39.667 223.833 119 299.5s183.666 113.5 312.999 113.5c86 0 164.667 -11 236 -33c18 -6.66699 25.333 -18 22 -34l-24 -146
c-5.33301 -23.333 -17.666 -32 -36.999 -26c-49.333 15.333 -104 22.666 -164 21.999c-64 0 -115.833 -18 -155.5 -54s-59.5 -83.333 -59.5 -142v-150h670v150c0 124 39.5 223.833 118.5 299.5s183.5 113.5 313.5 113.5c91.333 0 169.666 -11 234.999 -33
c18 -6.66699 25.667 -18 23 -34l-25 -146c-5.33301 -23.333 -17.666 -32 -36.999 -26c-49.333 15.333 -104 22.666 -164 21.999c-64 0 -115.833 -18 -155.5 -54s-59.5 -83.333 -59.5 -142v-150h746c20.667 0 31 -10.333 31 -31v-921c0 -20.667 -10.333 -31 -31 -31h-189
c-20.667 -0 -30.667 10.333 -30 31v753h-527v-753c0 -20.667 -10 -31 -30 -31h-189c-20.667 -0 -30.667 10.333 -30 31v753h-670v-753c0 -20.667 -10.333 -31 -31 -31h-188zM2118 1198c-44 0 -81 14 -111 42s-45 61.833 -45 101.5s15 73.5 45 101.5s67 42 111 42
c42 0 78.333 -14 109 -42s46 -61.833 46 -101.5s-15.333 -73.5 -46 -101.5s-67 -42 -109 -42z" />
    <glyph glyph-name="f_f_l.liga" unicode="ffl" horiz-adv-x="2504" 
d="M2443 31c1.33301 -18 -6.66504 -30.333 -23.998 -37c-50.667 -16.667 -97.334 -25 -140.001 -25c-86 0 -155.167 20.833 -207.5 62.5s-78.5 96.834 -78.5 165.501v1095c-91.333 24.667 -173.333 37 -246 37c-87.333 0 -156 -17.667 -206 -53s-75 -84 -75 -146v-147h373
c20.667 0 31 -10.333 31 -31v-137c0 -20.667 -10.333 -31 -31 -31h-373v-753c0 -20.667 -10 -31 -30 -31h-189c-20.667 0 -30.667 10.333 -30 31v753h-670v-753c0 -20.667 -10.333 -31 -31 -31h-188c-20.667 0 -31 10.333 -31 31v753h-256c-20.667 0 -31 10.333 -31 31v137
c0 20.667 10.333 31 31 31h256v150c0 124 39.667 223.833 119 299.5s183.666 113.5 312.999 113.5c86 0 164.667 -11 236 -33c18 -6.66699 25.333 -18 22 -34l-24 -146c-5.33301 -23.333 -17.666 -32 -36.999 -26c-49.333 15.333 -104 22.666 -164 21.999
c-64 0 -115.833 -18 -155.5 -54s-59.5 -83.333 -59.5 -142v-150h670v147c0 128.667 44.667 230.167 134 304.5s211.666 111.5 366.999 111.5c94 0 189 -13 285 -39c4 5.33301 10.667 8.33301 20 9h189c20.667 0 31 -10.333 31 -31v-1221c0 -23.333 6.33301 -41.833 19 -55.5
s30 -20.5 52 -20.5s47.333 3 76 9c22 4 34.333 -4.33301 37 -25z" />
    <glyph glyph-name=".notdef" horiz-adv-x="1447" 
d="M205 1513h1038v-1513h-1038v1513zM1124 162v1231h-690zM326 1348v-1227h688z" />
    <glyph glyph-name="space" unicode=" " horiz-adv-x="532" 
 />
    <glyph glyph-name="exclam" unicode="!" horiz-adv-x="579" 
d="M213 430c-23.333 0 -35 10.333 -35 31l-18 561v381c0 20.667 11 31 33 31h196c22 0 33 -10.333 33 -31v-381l-21 -561c0 -20.667 -10.667 -31 -32 -31h-156zM289 -31c-39.333 0 -73.5 13.667 -102.5 41s-43.5 60.166 -43.5 98.499s14.333 71.166 43 98.499s63 41 103 41
c40.667 0 75.334 -13.667 104.001 -41s43 -60.166 43 -98.499s-14.333 -71.166 -43 -98.499s-63.334 -41 -104.001 -41z" />
    <glyph glyph-name="quotedbl" unicode="&#x22;" horiz-adv-x="708" 
d="M125 868c-20.667 0 -31 10.333 -31 31l-12 350v154c0 20.667 10.333 31 31 31h149c20.667 0 31 -10.333 31 -31v-154l-12 -350c0 -20.667 -10.333 -31 -31 -31h-125zM459 868c-20.667 0 -31 10.333 -31 31l-12 350v154c0 20.667 10 31 30 31h150
c20.667 0 31 -10.333 31 -31v-154l-13 -350c0 -20.667 -10 -31 -30 -31h-125z" />
    <glyph glyph-name="numbersign" unicode="#" horiz-adv-x="1656" 
d="M201 0c-23.333 0 -31.665 11.667 -24.998 35l117 356h-191c-20.667 0 -30.667 10.333 -30 31v151c0 20.667 10 31 30 31h260l76 225h-213c-20.667 0 -30.667 10.333 -30 31v152c0 20.667 10 30.667 30 30h283l121 367c5.33301 16.667 17 25 35 25h196
c23.333 0 31.666 -11.667 24.999 -35l-117 -357h334l121 367c5.33301 16.667 16.666 25 33.999 25h197c23.333 0 31.666 -11.667 24.999 -35l-117 -357h192c20.667 0 31 -10 31 -30v-152c0 -20.667 -10.333 -31 -31 -31h-264l-73 -225h215c20.667 0 30.667 -10.333 30 -31
v-151c0 -20.667 -10 -31 -30 -31h-287l-121 -366c-5.33301 -16.667 -17 -25 -35 -25h-194c-23.333 0 -31.666 11.667 -24.999 35l117 356h-336l-121 -366c-5.33301 -16.667 -17 -25 -35 -25h-194zM623.001 604h333l76 225h-336z" />
    <glyph glyph-name="dollar" unicode="$" horiz-adv-x="1431" 
d="M436 1047c0 -56 21.502 -100.833 64.502 -134.5s96.667 -56 161 -67s134 -24.667 209 -41s144.667 -35.333 209 -57s118 -61.5 161 -119.5s64.5 -132 64.5 -222c0 -113.333 -39.667 -208 -119 -284s-187.333 -123.333 -324 -142v-195c0 -20.667 -10.333 -31 -31 -31h-163
c-20.667 0 -31 10.333 -31 31v190c-148.667 15.333 -271.167 63 -367.5 143s-152.166 181.333 -167.499 304c-2.66699 22 7.66602 33 30.999 33h197c18 0 28.667 -9.66699 32 -29c15.333 -72.667 58.166 -130.5 128.499 -173.5s156.833 -64.5 259.5 -64.5
c87.333 0 157.166 17.5 209.499 52.5s78.5 81.833 78.5 140.5c0 48 -16 86.667 -48 116s-74 50.5 -126 63.5s-109 24.5 -171 34.5s-124 22.833 -186 38.5s-119 37.167 -171 64.5s-94 69 -126 125s-48 125 -48 207c0 118.667 43 217 129 295s201.333 123 346 135v195
c0 20.667 10.333 31 31 31h163c20.667 0 31 -10.333 31 -31v-203c121.333 -22 221.666 -67.833 300.999 -137.5s128 -156.167 146 -259.5c4 -22 -5.66699 -33 -29 -33h-199c-18 0 -29.333 9 -34 27c-16.667 64 -52.667 114 -108 150s-124.666 54 -207.999 54
c-88.667 0 -160 -18.667 -214 -56s-81 -87.333 -81 -150z" />
    <glyph glyph-name="percent" unicode="%" horiz-adv-x="2351" 
d="M593.5 662c-129.667 0 -233.667 36.833 -312 110.5s-117.5 170.5 -117.5 290.5s39.167 216.833 117.5 290.5s182.333 110.5 312 110.5s233.834 -36.833 312.501 -110.5s118 -170.5 118 -290.5s-39.333 -216.833 -118 -290.5s-182.834 -110.5 -312.501 -110.5zM627 0
c-12 0 -20.167 3.33301 -24.5 10s-2.5 15.667 5.5 27l973 1378c8 12 21 18.333 39 19h106c12 0 19.833 -3.5 23.5 -10.5s2.16699 -15.833 -4.5 -26.5l-973 -1379c-9.33301 -12 -22.333 -18 -39 -18h-106zM593.5 834c72.333 0 130.833 21.167 175.5 63.5s67 97.5 67 165.5
s-22.333 123.167 -67 165.5s-103.167 63.5 -175.5 63.5s-130.666 -21.167 -174.999 -63.5s-66.5 -97.5 -66.5 -165.5s22.167 -123.167 66.5 -165.5s102.666 -63.5 174.999 -63.5zM1757.5 -31c-129.667 0 -233.834 36.833 -312.501 110.5s-118 170.667 -118 291
s39.333 217.333 118 291s182.834 110.5 312.501 110.5s233.667 -36.833 312 -110.5s117.5 -170.667 117.5 -291s-39.167 -217.333 -117.5 -291s-182.333 -110.5 -312 -110.5zM1757.5 141c72.333 0 130.666 21.167 174.999 63.5s66.5 97.666 66.5 165.999
s-22.167 123.666 -66.5 165.999s-102.666 63.5 -174.999 63.5s-130.666 -21.167 -174.999 -63.5s-66.5 -97.666 -66.5 -165.999s22.167 -123.666 66.5 -165.999s102.666 -63.5 174.999 -63.5z" />
    <glyph glyph-name="ampersand" unicode="&#x26;" horiz-adv-x="1574" 
d="M598 -31c-158.667 0 -285.997 39.668 -381.997 119.001s-144 183 -144 311c0 88.667 26.5 166.5 79.5 233.5s121.167 117.5 204.5 151.5c-87.333 90 -131 186.333 -131 289c0 117.333 41.333 211.833 124 283.5s191.667 107.5 327 107.5c124 0 226.667 -32.333 308 -97
s131.666 -155 150.999 -271c4 -22 -5.66699 -33 -29 -33h-188c-18 0 -29 9.66699 -33 29c-13.333 50.667 -37.833 90.167 -73.5 118.5s-79.5 42.5 -131.5 42.5c-57.333 0 -103.833 -16.667 -139.5 -50s-53.5 -77.333 -53.5 -132c0 -42 11.333 -80.833 34 -116.5
s68.667 -84.834 138 -147.501l402 -358c35.333 46.667 89.333 127 162 241c8 13.333 20.333 20.333 37 21h196c12 0 19.833 -3.83301 23.5 -11.5s2.16699 -16.167 -4.5 -25.5c-100 -161.333 -183.333 -285 -250 -371l297 -266
c9.33301 -9.33301 12.666 -17.833 9.99902 -25.5s-11 -11.5 -25 -11.5h-250c-16.667 0 -29.334 4.66699 -38.001 14l-146 129c-132.667 -116 -291 -174 -475 -174zM596.003 178.001c121.333 0 225.667 37.001 313 111.001l-387 348
c-138 -54.667 -207 -133.334 -207 -236.001c0 -66.667 26 -120.5 78 -161.5s119.667 -61.5 203 -61.5z" />
    <glyph glyph-name="quotesingle" unicode="'" horiz-adv-x="374" 
d="M125 868c-20.667 0 -31 10.333 -31 31l-12 350v154c0 20.667 10.333 31 31 31h149c20.667 0 31 -10.333 31 -31v-154l-12 -350c0 -20.667 -10.333 -31 -31 -31h-125z" />
    <glyph glyph-name="parenleft" unicode="(" horiz-adv-x="772" 
d="M547 -246c-138 121.333 -243.167 251.668 -315.5 391.001s-108.5 297.166 -108.5 473.499s36.167 334 108.5 473s177.5 269.5 315.5 391.5c18 16.667 37 16 57 -2l103 -99c20.667 -20.667 20.667 -39.667 0 -57c-109.333 -109.333 -191.333 -219.333 -246 -330
s-82 -236.167 -82 -376.5s27.333 -265.833 82 -376.5s136.667 -220.667 246 -330c20.667 -18 20.667 -37 0 -57l-103 -99c-20 -18 -39 -18.667 -57 -2z" />
    <glyph glyph-name="parenright" unicode=")" horiz-adv-x="772" 
d="M225 -246c-18 -16.667 -36.998 -16.0039 -56.998 1.99609l-102 99c-20.667 20.667 -20.667 39.667 0 57c109.333 109.333 191.166 219.333 245.499 330s81.5 236.167 81.5 376.5s-27.333 265.833 -82 376.5s-136.334 220.667 -245.001 330c-20.667 18 -20.667 37 0 57
l102 99c20.667 18 39.667 18.667 57 2c138 -121.333 243.167 -251.666 315.5 -390.999s108.5 -297.166 108.5 -473.499s-36.167 -334.166 -108.5 -473.499s-177.5 -269.666 -315.5 -390.999z" />
    <glyph glyph-name="asterisk" unicode="*" horiz-adv-x="866" 
d="M391 813c-20.667 0 -31 10.332 -31 30.999v176l-186 -98c-20.667 -9.33301 -35 -4.66602 -43 14.001l-35 76c-8 18 -3 31.667 15 41l165 88l-165 86c-18 9.33301 -23 23 -15 41l35 75c8 19.333 22.333 24.333 43 15l186 -98v174c0 20.667 10.333 30.667 31 30h84
c20.667 0 31 -10 31 -30v-174l186 98c20.667 9.33301 35 4.33301 43 -15l35 -75c8 -18 3.33301 -31.667 -14 -41l-166 -86l166 -88c18 -9.33301 22.667 -23 14 -41l-35 -76c-8 -19.333 -22.333 -24 -43 -14l-186 98v-176c0 -20.667 -10.333 -31 -31 -31h-84z" />
    <glyph glyph-name="plus" unicode="+" horiz-adv-x="1468" 
d="M645 205c-20.667 0 -31 10.333 -31 31v331h-368c-20.667 0 -31 10.333 -31 31v156c0 20.667 10.333 30.667 31 30h368v332c0 20.667 10.333 31 31 31h178c20.667 0 31 -10.333 31 -31v-332h369c20.667 0 30.667 -10 30 -30v-156c0 -20.667 -10 -31 -30 -31h-369v-331
c0 -20.667 -10.333 -31 -31 -31h-178z" />
    <glyph glyph-name="comma" unicode="," horiz-adv-x="450" 
d="M223 244c44 0 81 -13.667 111 -41s45 -60.333 45 -99c0 -23.333 -12.333 -58 -37 -104l-119 -215c-6.66699 -13.333 -19 -20.333 -37 -21h-86c-26 0 -33.333 12.333 -22 37l86 183c-61.333 22 -92 62 -92 120c0 38 15 70.833 45 98.5s65.333 41.5 106 41.5z" />
    <glyph glyph-name="hyphen" unicode="-" horiz-adv-x="1136" 
d="M225 420c-20.667 0 -30.667 10.333 -30 31v174c0 20.667 10 30.667 30 30h686c20.667 0 31 -10 31 -30v-174c0 -20.667 -10.333 -31 -31 -31h-686z" />
    <glyph glyph-name="period" unicode="." horiz-adv-x="436" 
d="M217 -31c-39.333 0 -73.333 13.667 -102 41s-43 60.166 -43 98.499s14.333 71.166 43 98.499s62.667 41 102 41c40.667 0 75.5 -13.667 104.5 -41s43.5 -60.166 43.5 -98.499s-14.5 -71.166 -43.5 -98.499s-63.833 -41 -104.5 -41z" />
    <glyph glyph-name="slash" unicode="/" horiz-adv-x="856" 
d="M121 -328c-24.667 0 -33.668 11.667 -27.001 35l533 1761c4 18 15.667 27 35 27h176c24.667 0 33.334 -11.667 26.001 -35l-532 -1761c-4 -18 -15.667 -27 -35 -27h-176z" />
    <glyph glyph-name="zero" unicode="0" horiz-adv-x="1413" 
d="M706.5 1464c179 0 322.667 -51.167 431 -153.5s162.5 -237.5 162.5 -405.5v-377c0 -168 -54.167 -303.167 -162.5 -405.5s-252 -153.5 -431 -153.5s-322.667 51.167 -431 153.5s-162.5 237.5 -162.5 405.5v377c0 168 54.167 303.167 162.5 405.5s252 153.5 431 153.5z
M1040 528v377c0 101.333 -30.667 183 -92 245s-141.833 93 -241.5 93s-180.167 -31 -241.5 -93s-92 -143.667 -92 -245v-377c0 -101.333 30.667 -183 92 -245s141.833 -93 241.5 -93s180.167 31 241.5 93s92 143.667 92 245z" />
    <glyph glyph-name="one" unicode="1" horiz-adv-x="823" 
d="M608 1434c20.667 0 31 -10.333 31 -31v-1372c0 -20.667 -10.333 -31 -31 -31h-198c-20.667 -0 -31 10.333 -31 31v1183h-334c-23.333 0 -35 9 -35 27v166c0 18 8.33301 27 25 27h573z" />
    <glyph glyph-name="two" unicode="2" horiz-adv-x="1206" 
d="M143 0c-20.667 0 -30.668 10.334 -30.001 31.001v73c0 16.667 4.66699 29.667 14 39l594 676c69.333 78 104 157.333 104 238c0 58.667 -21.5 106 -64.5 142s-100.5 54 -172.5 54c-68 0 -125 -18.333 -171 -55s-73.667 -85.667 -83 -147c-4 -19.333 -15 -29 -33 -29h-199
c-20.667 0 -30.667 10.333 -30 31c8 125.333 58 225.166 150 299.499s210.667 111.5 356 111.5c152.667 0 275.334 -37.5 368.001 -112.5s139 -174.5 139 -298.5c0 -110.667 -51 -224.667 -153 -342l-445 -510h586c20.667 0 31 -10.333 31 -31v-139
c0 -20.667 -10.333 -31 -31 -31h-930z" />
    <glyph glyph-name="three" unicode="3" horiz-adv-x="1198" 
d="M614 -31c-142 0 -261.002 33.833 -357.002 101.5s-154.333 157.5 -175 269.5c-4 22 5.66699 33 29 33h194c18 0 29 -9 33 -27c19.333 -52 53.5 -93 102.5 -123s106.833 -45 173.5 -45c80.667 0 146 19.167 196 57.5s75 88.833 75 151.5c0 72.667 -25.667 129 -77 169
s-122.666 60 -213.999 60h-125c-20.667 0 -31 10.333 -31 31v137c0 20.667 10.333 31 31 31h125c74 0 132.5 20.5 175.5 61.5s64.5 97.833 64.5 170.5c0 62.667 -21.167 112.667 -63.5 150s-97.833 56 -166.5 56c-60 0 -110.833 -14.667 -152.5 -44
s-68.5 -68.333 -80.5 -117c-4 -19.333 -15 -29 -33 -29h-193c-23.333 0 -32.666 11 -27.999 33c16.667 112 69 201.333 157 268s198 100 330 100c142 0 256.333 -37.833 343 -113.5s130 -176.167 130 -301.5c0 -146 -54 -253.333 -162 -322
c140.667 -68 211 -181.333 211 -340c0 -125.333 -47.167 -226.333 -141.5 -303s-217.833 -115 -370.5 -115z" />
    <glyph glyph-name="four" unicode="4" horiz-adv-x="1374" 
d="M1262 492c20.667 0 30.666 -10.333 29.999 -31v-148c0 -20.667 -10 -30.667 -30 -30h-175v-252c0 -20.667 -10 -31 -30 -31h-191c-20.667 -0 -30.667 10.333 -30 31v252h-734c-20.667 0 -30.667 10 -30 30v101c0 16.667 2.66699 29.667 8 39l596 958
c10.667 15.333 22.334 23 35.001 23h346c20.667 0 30.667 -10.333 30 -31v-911h175zM370.999 492h465v749z" />
    <glyph glyph-name="five" unicode="5" horiz-adv-x="1269" 
d="M629 -31c-146 0 -267.831 34.501 -365.498 103.501s-158.167 160.833 -181.5 275.5c-4 22 5 33 27 33h194c18 0 29.667 -9 35 -27c19.333 -53.333 54.833 -96 106.5 -128s113.167 -48 184.5 -48c86 0 155.167 23.5 207.5 70.5s78.5 109.5 78.5 187.5
c0 72.667 -27.167 131.167 -81.5 175.5s-126.833 66.5 -217.5 66.5c-75.333 0 -142.666 -17 -201.999 -51c-19.333 -10.667 -38 -11.334 -56 -2.00098l-137 67c-22 10.667 -30.667 27.667 -26 51l108 660c4 20.667 14.333 31 31 31h710c20.667 0 31 -10.333 31 -31v-158
c0 -20.667 -10.333 -31 -31 -31h-540l-62 -364c69.333 24.667 139.666 37 210.999 37c151.333 0 273.166 -40.667 365.499 -122s138.5 -188.333 138.5 -321c0 -142 -48.333 -256.667 -145 -344s-224.334 -131 -383.001 -131z" />
    <glyph glyph-name="six" unicode="6" horiz-adv-x="1335" 
d="M670 948c169.333 0 305.499 -44.332 408.499 -132.999s154.5 -205.334 154.5 -350.001c0 -148.667 -51.5 -268.5 -154.5 -359.5s-239.167 -136.5 -408.5 -136.5s-306.333 45.167 -411 135.5s-157 208.5 -157 354.5c0 100 44.667 214.667 134 344l421 610
c9.33301 13.333 22.333 20.333 39 21h232c28.667 0 35.334 -12.333 20.001 -37l-305 -449h27zM669.999 166.001c92.667 0 167.667 26.3311 225 78.998s86 121.334 86 206.001s-28.667 152.834 -86 204.501s-132.333 77.5 -225 77.5c-95.333 0 -172.166 -26.333 -230.499 -79
s-87.5 -121.167 -87.5 -205.5s29.167 -152.5 87.5 -204.5s135.166 -78 230.499 -78z" />
    <glyph glyph-name="seven" unicode="7" horiz-adv-x="1087" 
d="M20 1403c0 20.667 10.334 31 31.001 31h965c20.667 0 31 -10.333 31 -31v-96c0 -13.333 -3 -26.333 -9 -39l-600 -1245c-6.66699 -15.333 -18.334 -23 -35.001 -23h-221c-26 -0 -33.333 12.333 -22 37l561 1167h-670c-20.667 0 -31 10.333 -31 31v168z" />
    <glyph glyph-name="eight" unicode="8" horiz-adv-x="1359" 
d="M680 -31c-173.333 0 -313.001 38.667 -419.001 116s-159 179.333 -159 306c0 80.667 22.333 153.167 67 217.5s106.334 114.166 185.001 149.499c-126.667 70.667 -190 175 -190 313c0 117.333 47.5 212.166 142.5 284.499s219.5 108.5 373.5 108.5
s278.5 -36.167 373.5 -108.5s142.5 -167.166 142.5 -284.499c0 -138 -63.333 -242.333 -190 -313c79.333 -35.333 141 -85.166 185 -149.499s66 -136.833 66 -217.5c0 -126.667 -52.833 -228.667 -158.5 -306s-245.167 -116 -418.5 -116zM679.999 821
c79.333 0 142.833 21.5 190.5 64.5s71.5 100.167 71.5 171.5c0 64 -23.833 115.833 -71.5 155.5s-111.167 59.5 -190.5 59.5s-142.833 -19.833 -190.5 -59.5s-71.5 -91.5 -71.5 -155.5c0 -70.667 23.833 -127.667 71.5 -171s111.167 -65 190.5 -65zM679.999 172
c87.333 0 158 21.5 212 64.5s81 100.167 81 171.5c0 74 -27 133.333 -81 178s-124.667 67 -212 67s-158 -22.5 -212 -67.5s-81 -104.167 -81 -177.5c0 -70.667 27 -127.667 81 -171s124.667 -65 212 -65z" />
    <glyph glyph-name="nine" unicode="9" horiz-adv-x="1335" 
d="M666 1464c169.333 0 306.167 -45.001 410.5 -135.001s156.5 -208 156.5 -354c0 -100 -44.333 -214.667 -133 -344l-422 -611c-9.33301 -13.333 -22.333 -20 -39 -20h-231c-28.667 0 -35.667 12.333 -21 37l305 448h-26c-169.333 0 -305.666 44.5 -408.999 133.5
s-155 205.833 -155 350.5c0 148.667 51.667 268.334 155 359.001s239.666 136 408.999 136zM666.001 699.999c95.333 0 172 26.333 230 79s87 121.334 87 206.001s-29 153 -87 205s-134.667 78 -230 78c-92.667 0 -167.834 -26.333 -225.501 -79
s-86.5 -121.334 -86.5 -206.001s28.833 -153 86.5 -205s132.834 -78 225.501 -78z" />
    <glyph glyph-name="colon" unicode=":" horiz-adv-x="436" 
d="M217 735c-39.333 0 -73.333 13.667 -102 41s-43 60.166 -43 98.499s14.333 71.166 43 98.499s62.667 41 102 41c40.667 0 75.5 -13.667 104.5 -41s43.5 -60.166 43.5 -98.499s-14.5 -71.166 -43.5 -98.499s-63.833 -41 -104.5 -41zM217 -31
c-39.333 0 -73.333 13.667 -102 41s-43 60.166 -43 98.499s14.333 71.166 43 98.499s62.667 41 102 41c40.667 0 75.5 -13.667 104.5 -41s43.5 -60.166 43.5 -98.499s-14.5 -71.166 -43.5 -98.499s-63.833 -41 -104.5 -41z" />
    <glyph glyph-name="semicolon" unicode=";" horiz-adv-x="450" 
d="M223 735c-39.333 0 -73.333 13.667 -102 41s-43 60.166 -43 98.499s14.333 71.166 43 98.499s62.667 41 102 41c40.667 0 75.5 -13.667 104.5 -41s43.5 -60.166 43.5 -98.499s-14.5 -71.166 -43.5 -98.499s-63.833 -41 -104.5 -41zM100 -231c-26 0 -33.333 12 -22 36
l86 183c-61.333 22 -92 62.333 -92 121c0 38 15 70.667 45 98s65.333 41 106 41c44 0 81 -13.667 111 -41s45 -60 45 -98c0 -23.333 -12.333 -58.333 -37 -105l-119 -215c-6.66699 -13.333 -19 -20 -37 -20h-86z" />
    <glyph glyph-name="less" unicode="&#x3c;" horiz-adv-x="1163" 
d="M983 129l-858 369.002c-15.333 6.66699 -23 18 -23 34v185c0 16.667 7.66699 28.334 23 35.001l858 368c10.667 5.33301 19.5 5.66602 26.5 0.999023s10.5 -12.334 10.5 -23.001v-172c0 -16.667 -7.66699 -28.334 -23 -35.001l-616 -266l616 -267
c15.333 -6.66699 23 -18 23 -34v-172c0 -26 -12.333 -33.667 -37 -23z" />
    <glyph glyph-name="equal" unicode="=" horiz-adv-x="1476" 
d="M246 756c-20.667 0 -31 10 -31 30v158c0 20.667 10.333 31 31 31h985c20.667 0 31 -10.333 31 -31v-158c0 -20.667 -10.333 -30.667 -31 -30h-985zM246 350c-20.667 0 -31 10.333 -31 31v156c0 20.667 10.333 30.667 31 30h985c20.667 0 31 -10 31 -30v-156
c0 -20.667 -10.333 -31 -31 -31h-985z" />
    <glyph glyph-name="greater" unicode="&#x3e;" horiz-adv-x="1163" 
d="M180 129c-24.667 -10.667 -37 -3.00195 -37 22.998v172c0 16.667 7.66699 28 23 34l616 267l-616 266c-15.333 6.66699 -23 18.334 -23 35.001v172c0 10.667 3.5 18.334 10.5 23.001s15.833 4.33398 26.5 -0.999023l858 -368c15.333 -6.66699 23 -18.334 23 -35.001v-185
c0 -16.667 -7.66699 -28 -23 -34z" />
    <glyph glyph-name="question" unicode="?" horiz-adv-x="1150" 
d="M446 430c-19.333 0 -29.999 10.335 -31.999 31.002l-17 297c-2.66699 20.667 7 30.667 29 30h111c80.667 0 145.5 21.667 194.5 65s73.5 99.666 73.5 168.999s-22.5 125.166 -67.5 167.499s-105.167 63.5 -180.5 63.5c-60 0 -111.5 -14.667 -154.5 -44
s-71.5 -68.333 -85.5 -117c-5.33301 -18 -16.666 -27 -33.999 -27h-191c-10.667 0 -18.834 2.33301 -24.501 7s-7.83398 12 -6.50098 22c15.333 112 67 201.667 155 269s198.333 101 331 101c150 0 271.167 -40.167 363.5 -120.5s138.5 -186.833 138.5 -319.5
c0 -109.333 -38.667 -199.5 -116 -270.5s-181.333 -113.167 -312 -126.5l-9 -166c0 -20.667 -10.667 -31 -32 -31h-134zM512.001 -30.998c-39.333 0 -73.333 13.667 -102 41s-43 60.166 -43 98.499s14.333 71.166 43 98.499s62.667 41 102 41
c40.667 0 75.334 -13.667 104.001 -41s43 -60.166 43 -98.499s-14.333 -71.166 -43 -98.499s-63.334 -41 -104.001 -41z" />
    <glyph glyph-name="at" unicode="@" horiz-adv-x="2152" 
d="M1090 1360c276 0 499.834 -78.8359 671.501 -236.503s257.5 -362.834 257.5 -615.501c0 -142 -32 -252.333 -96 -331s-154 -118 -270 -118c-143.333 0 -243 45.333 -299 136c-79.333 -90 -188.666 -135.333 -327.999 -136c-128.667 0 -233.834 40 -315.501 120
s-122.5 182.833 -122.5 308.5s41 228.334 123 308.001s187 119.5 315 119.5c104 0 193.333 -26.333 268 -79v20c0 20.667 10.333 31 31 31h160c20.667 0 31 -10.333 31 -31v-434c0 -124 45.667 -186 137 -186c58.667 0 104 23.5 136 70.5s48 112.833 48 197.5
c0 204.667 -69 370.834 -207 498.501s-318 191.5 -540 191.5c-216 0 -398.5 -68 -547.5 -204s-223.5 -302.167 -223.5 -498.5s73.167 -362.166 219.5 -497.499s325.833 -203 538.5 -203c169.333 0 320.333 45 453 135c18 13.333 32.333 11.333 43 -6l65 -96
c10.667 -18 8 -31.667 -8 -41c-158.667 -105.333 -342.334 -158 -551.001 -158c-263.333 0 -486.833 84 -670.5 252s-275.5 372.833 -275.5 614.5s93 446.834 279 615.501s412 253 678 253zM1063 247.997c70.667 0 126.834 21.833 168.501 65.5s62.5 101.667 62.5 174
s-20.833 130.333 -62.5 174s-97.834 65.5 -168.501 65.5c-72.667 0 -132.167 -22.5 -178.5 -67.5s-69.5 -102.5 -69.5 -172.5c0 -70.667 23.167 -128.167 69.5 -172.5s105.833 -66.5 178.5 -66.5z" />
    <glyph glyph-name="A" unicode="A" horiz-adv-x="1595" 
d="M68 0c-26 0 -33.6689 12.333 -23.002 37l623 1374c6.66699 15.333 18 23 34 23h195c18 0 29.667 -7.66699 35 -23l618 -1374c10.667 -24.667 3.33398 -37 -21.999 -37h-213c-18 0 -29.667 7.66699 -35 23l-133 309h-694l-134 -309
c-5.33301 -15.333 -16.666 -23 -33.999 -23h-217zM550.998 559h498l-250 576z" />
    <glyph glyph-name="B" unicode="B" horiz-adv-x="1505" 
d="M184 0c-20.667 0 -30.667 10.332 -30 30.999v1372c0 20.667 10 31 30 31h672c143.333 0 258.666 -33.167 345.999 -99.5s131 -154.166 131 -263.499c0 -75.333 -19 -140.833 -57 -196.5s-94 -97.167 -168 -124.5v-9c92.667 -18 165 -59 217 -123s78 -143.667 78 -239
c0 -114.667 -49.167 -206.5 -147.5 -275.5s-228.166 -103.5 -389.499 -103.5h-682zM414 826.999l387 0.000976562c86 0 155.167 19.5 207.5 58.5s78.5 90.5 78.5 154.5c0 53.333 -23.167 96.166 -69.5 128.499s-110.5 48.5 -192.5 48.5h-411v-390zM414 217h447.999
c84.667 0 153.334 17.833 206.001 53.5s79 82.167 79 139.5c0 58.667 -23.167 106 -69.5 142s-107.833 54 -184.5 54h-479v-389z" />
    <glyph glyph-name="C" unicode="C" horiz-adv-x="1705" 
d="M883 -29c-230.667 0 -416.67 68.668 -558.003 206.001s-212 318 -212 542s70.667 404.167 212 540.5s327.333 204.5 558 204.5c178.667 0 332.834 -48.833 462.501 -146.5s212.167 -227.5 247.5 -389.5c4 -22 -5.33301 -33 -28 -33h-207c-18 0 -29.667 8.33301 -35 25
c-31.333 96.667 -85.666 172.334 -162.999 227.001s-169.666 82 -276.999 82c-151.333 0 -273.166 -46.833 -365.499 -140.5s-138.5 -216.834 -138.5 -369.501c0 -154 46 -277.833 138 -371.5s214 -140.5 366 -140.5c106.667 0 198.834 27 276.501 81
s132.167 129.333 163.5 226c5.33301 18 17 27 35 27h207c23.333 0 32.666 -11 27.999 -33c-35.333 -162.667 -117.833 -292.834 -247.5 -390.501s-283.834 -146.5 -462.501 -146.5z" />
    <glyph glyph-name="D" unicode="D" horiz-adv-x="1607" 
d="M694 1434c240 0 433.501 -65.667 580.501 -197s220.5 -304.833 220.5 -520.5s-73.333 -389 -220 -520s-340.334 -196.5 -581.001 -196.5h-510c-20.667 -0 -30.667 10.333 -30 31v1372c0 20.667 10 31 30 31h510zM666.001 227c168 0 303.5 45.167 406.5 135.5
s154.5 208.5 154.5 354.5s-51.5 264 -154.5 354s-238.5 135 -406.5 135h-252v-979h252z" />
    <glyph glyph-name="E" unicode="E" horiz-adv-x="1316" 
d="M1225 1237c0 -20.667 -10.333 -31 -31 -31h-780v-385h694c20.667 0 31 -10 31 -30v-166c0 -20.667 -10.333 -31 -31 -31h-694v-367h780c20.667 0 31 -10 31 -30v-166c0 -20.667 -10.333 -31 -31 -31h-1010c-20.667 -0 -30.667 10.333 -30 31v1372c0 20.667 10 31 30 31
h1010c20.667 0 31 -10.333 31 -31v-166z" />
    <glyph glyph-name="F" unicode="F" horiz-adv-x="1259" 
d="M184 0c-20.667 0 -30.667 10.333 -30 31v1372c0 20.667 10 31 30 31h994c20.667 0 30.667 -10.333 30 -31v-166c0 -20.667 -10 -31 -30 -31h-764v-422h667c20.667 0 31 -10 31 -30v-166c0 -20.667 -10.333 -31 -31 -31h-667v-526c0 -20.667 -10.333 -31 -31 -31h-199z
" />
    <glyph glyph-name="G" unicode="G" horiz-adv-x="1763" 
d="M881 -29c-230.667 0 -416.332 68.668 -556.999 206.001s-211 318 -211 542s70.333 404.167 211 540.5s326.334 204.5 557.001 204.5c172 0 323.167 -43.333 453.5 -130s217.166 -201 260.499 -343c6.66699 -23.333 -1.33301 -35 -24 -35h-217
c-18 0 -29.667 8.33301 -35 25c-31.333 75.333 -86.666 135.5 -165.999 180.5s-170 67.5 -272 67.5c-150 0 -271.167 -46.833 -363.5 -140.5s-138.5 -217 -138.5 -370s46 -276.167 138 -369.5s213.333 -140 364 -140c109.333 0 205.166 30 287.499 90
s137.166 139.333 164.499 238h-442c-20.667 0 -31 10 -31 30v166c0 20.667 10.333 31 31 31h698c20.667 0 31 -10.333 31 -31c0 -234.667 -66.833 -420.334 -200.5 -557.001s-313.167 -205 -538.5 -205z" />
    <glyph glyph-name="H" unicode="H" horiz-adv-x="1562" 
d="M184 0c-20.667 0 -30.667 10.333 -30 31v1372c0 20.667 10 31 30 31h199c20.667 0 31 -10.333 31 -31v-586h735v586c0 20.667 10.333 31 31 31h198c20.667 0 31 -10.333 31 -31v-1372c0 -20.667 -10.333 -31 -31 -31h-198c-20.667 -0 -31 10.333 -31 31v559h-735v-559
c0 -20.667 -10.333 -31 -31 -31h-199z" />
    <glyph glyph-name="I" unicode="I" horiz-adv-x="894" 
d="M92 0c-20.667 0 -31 10.333 -31 31v166c0 20.667 10.333 30.667 31 30h225v979h-225c-20.667 0 -31 10.333 -31 31v166c0 20.667 10.333 31 31 31h711c20.667 0 31 -10.333 31 -31v-166c0 -20.667 -10.333 -31 -31 -31h-225v-979h225c20.667 0 31 -10 31 -30v-166
c0 -20.667 -10.333 -31 -31 -31h-711z" />
    <glyph glyph-name="J" unicode="J" horiz-adv-x="1282" 
d="M578 -31c-152.667 0 -278.667 40.333 -378 121s-155.666 188 -168.999 322c-2.66699 22 7.33301 32.667 30 32h201c18 0 28.333 -9.33301 31 -28c10.667 -65.333 43 -117.833 97 -157.5s122 -59.5 204 -59.5c87.333 0 157.666 30 210.999 90s80 139 80 237v680h-627
c-20.667 0 -31 10.333 -31 31v166c0 20.667 10.333 31 31 31h860c20.667 0 31 -10.333 31 -31v-885c0 -172 -50.5 -306.5 -151.5 -403.5s-240.833 -145.5 -419.5 -145.5z" />
    <glyph glyph-name="K" unicode="K" horiz-adv-x="1507" 
d="M1468 37c9.33301 -9.33301 11.666 -17.834 6.99902 -25.501s-13 -11.5 -25 -11.5h-258c-12 0 -24.333 6 -37 18l-741 687v-674c0 -20.667 -10.333 -31 -31 -31h-199c-20.667 0 -30.667 10.333 -30 31v1372c0 20.667 10 31 30 31h199c20.667 0 31 -10.333 31 -31v-686
l686 700c9.33301 10.667 22.333 16.334 39 17.001h243c13.333 0 21.833 -3.83301 25.5 -11.5s0.833984 -16.167 -8.49902 -25.5l-666 -680z" />
    <glyph glyph-name="L" unicode="L" horiz-adv-x="1241" 
d="M414 221h745c20.667 0 31 -10.333 31 -31v-159c0 -20.667 -10.333 -31 -31 -31h-975c-20.667 -0 -30.667 10.333 -30 31v1372c0 20.667 10 31 30 31h199c20.667 0 31 -10.333 31 -31v-1182z" />
    <glyph glyph-name="M" unicode="M" horiz-adv-x="1816" 
d="M184 0c-20.667 0 -30.667 10.333 -30 31v1372c0 20.667 10 31 30 31h131c16.667 0 29 -7 37 -21l555 -887l553 887c8 13.333 20.333 20.333 37 21h135c20.667 0 31 -10.333 31 -31v-1372c0 -20.667 -10.333 -31 -31 -31h-200c-20.667 -0 -31 10.333 -31 31v858l-400 -645
c-8 -13.333 -20 -20.333 -36 -21h-111c-16.667 0 -29 7 -37 21l-405 653v-866c0 -20.667 -10.333 -31 -31 -31h-197z" />
    <glyph glyph-name="N" unicode="N" horiz-adv-x="1611" 
d="M1198 1403c0 20.667 10.333 31 31 31h198c20.667 0 31 -10.333 31 -31v-1372c0 -20.667 -10.333 -31 -31 -31h-151c-15.333 -0 -27.666 5.33301 -36.999 16l-825 957v-942c0 -20.667 -10.333 -31 -31 -31h-199c-20.667 -0 -30.667 10.333 -30 31v1372
c0 20.667 10 31 30 31h144c15.333 0 27.666 -5.66699 36.999 -17l833 -979v965z" />
    <glyph glyph-name="O" unicode="O" horiz-adv-x="1765" 
d="M883 -29c-225.333 0 -410 69.667 -554 209s-216 318.166 -216 536.499s72 397.166 216 536.499s328.667 209 554 209s410 -69.667 554 -209s216 -318.166 216 -536.499s-72 -397.166 -216 -536.499s-328.667 -209 -554 -209zM882.5 201c149 0 270.667 48 365 144
s141.5 219.833 141.5 371.5s-47.167 275.667 -141.5 372s-216 144.5 -365 144.5s-270.5 -48.167 -364.5 -144.5s-141 -220.333 -141 -372s47 -275.5 141 -371.5s215.5 -144 364.5 -144z" />
    <glyph glyph-name="P" unicode="P" 
d="M184 0c-20.667 0 -30.667 10.333 -30 31v1372c0 20.667 10 31 30 31h545c165.333 0 300.5 -45.167 405.5 -135.5s157.5 -205.833 157.5 -346.5c0 -147.333 -54.5 -268 -163.5 -362s-248.833 -141 -419.5 -141h-295v-418c0 -20.667 -10.333 -31 -31 -31h-199zM414 674h286
c96.667 0 176.5 25.833 239.5 77.5s94.5 118.5 94.5 200.5c0 75.333 -31.333 136.5 -94 183.5s-142.667 70.5 -240 70.5h-286v-532z" />
    <glyph glyph-name="Q" unicode="Q" horiz-adv-x="1765" 
d="M1380 131l244 -282.999c13.333 -16.667 12.666 -31 -2.00098 -43l-147 -124c-16.667 -13.333 -31 -12.666 -43 2.00098l-293 325c-79.333 -24.667 -164.666 -37 -255.999 -37c-225.333 0 -410 69.667 -554 209s-216 318.166 -216 536.499s72 397.166 216 536.499
s328.667 209 554 209s410 -69.667 554 -209s216 -318 216 -536c-0.666992 -248.667 -91.667 -444 -273 -586zM377 716.501c0 -151.667 47 -275.5 141 -371.5s215.5 -144 364.5 -144s270.667 48 365 144s141.5 219.833 141.5 371.5s-47.167 275.667 -141.5 372
s-216 144.5 -365 144.5s-270.5 -48.167 -364.5 -144.5s-141 -220.333 -141 -372z" />
    <glyph glyph-name="R" unicode="R" horiz-adv-x="1466" 
d="M1407 37c8 -10.667 10.3301 -19.5 6.99707 -26.5s-11.666 -10.5 -24.999 -10.5h-246c-13.333 0 -25.666 6 -36.999 18l-401 482h-291v-469c0 -20.667 -10.333 -31 -31 -31h-199c-20.667 -0 -30.667 10.333 -30 31v1372c0 20.667 10 31 30 31h592
c166.667 0 300.834 -42.667 402.501 -128s152.5 -198.333 152.5 -339c0 -113.333 -29.333 -206.5 -88 -279.5s-142 -124.833 -250 -155.5zM413.997 1206v-479.001h315c104 0 187.667 21.833 251 65.5s95 101.834 95 174.501c0 70.667 -30 128.167 -90 172.5
s-138.333 66.5 -235 66.5h-336z" />
    <glyph glyph-name="S" unicode="S" horiz-adv-x="1431" 
d="M735 -29c-173.333 0 -317.665 41 -432.998 123s-182 191.333 -200 328c-2.66699 22 7.66602 33 30.999 33h197c18 0 28.667 -9.66699 32 -29c15.333 -72.667 58.166 -130.5 128.499 -173.5s156.833 -64.5 259.5 -64.5c87.333 0 157.166 17.5 209.499 52.5
s78.5 81.833 78.5 140.5c0 48 -16 86.667 -48 116s-74 50.5 -126 63.5s-109 24.5 -171 34.5s-124 22.833 -186 38.5s-119 37.167 -171 64.5s-94 69 -126 125s-48 125 -48 207c0 130 50.5 234.833 151.5 314.5s234.167 119.5 399.5 119.5
c161.333 0 295.833 -37.167 403.5 -111.5s171.834 -173.5 192.501 -297.5c4 -22 -5.66699 -33 -29 -33h-199c-18 0 -29.333 9 -34 27c-16.667 64 -52.667 114 -108 150s-124.666 54 -207.999 54c-88.667 0 -160 -18.667 -214 -56s-81 -87.333 -81 -150
c0 -56 21.5 -100.833 64.5 -134.5s96.667 -56 161 -67s134 -24.667 209 -41s144.667 -35.333 209 -57s118 -61.5 161 -119.5s64.5 -132 64.5 -222c0 -130 -52.333 -235 -157 -315s-242.334 -120 -413.001 -120z" />
    <glyph glyph-name="T" unicode="T" horiz-adv-x="1409" 
d="M1317 1434c20.667 0 31 -10.333 31 -31v-166c0 -20.667 -10.333 -31 -31 -31h-483v-1175c0 -20.667 -10.333 -31 -31 -31h-199c-20.667 -0 -31 10.333 -31 31v1175h-481c-20.667 0 -31 10.333 -31 31v166c0 20.667 10.333 31 31 31h1225z" />
    <glyph glyph-name="U" unicode="U" horiz-adv-x="1572" 
d="M786.5 -31c-195 0 -352.667 59.833 -473 179.5s-180.5 276.167 -180.5 469.5v785c0 20.667 10.333 31 31 31h198c20.667 0 31 -10.333 31 -31v-785c0 -125.333 36.167 -226.5 108.5 -303.5s167.333 -115.5 285 -115.5s212.667 38.5 285 115.5s108.5 178.167 108.5 303.5
v785c0 20.667 10 31 30 31h199c20.667 0 31 -10.333 31 -31v-785c0 -194 -60.167 -350.667 -180.5 -470s-278 -179 -473 -179z" />
    <glyph glyph-name="V" unicode="V" horiz-adv-x="1636" 
d="M725 0c-16.667 0 -28.334 7.66699 -35.001 23l-645 1374c-10.667 24.667 -3 37 23 37h223c16.667 0 28.334 -7.66699 35.001 -23l493 -1079l494 1079c6.66699 15.333 18.334 23 35.001 23h221c26 0 33.333 -12.333 22 -37l-641 -1374
c-6.66699 -15.333 -18.334 -23 -35.001 -23h-190z" />
    <glyph glyph-name="W" unicode="W" horiz-adv-x="2297" 
d="M1964 1409c5.33301 16.667 17 25 35 25h211c23.333 0 31.333 -11.667 24 -35l-471 -1374c-5.33301 -16.667 -16.666 -25 -33.999 -25h-203c-18 -0 -29.667 8.33301 -35 25l-344 964l-340 -964c-5.33301 -16.667 -17 -25 -35 -25h-203c-18 -0 -29.333 8.33301 -34 25
l-472 1374c-6.66699 23.333 1.66602 35 24.999 35h211c18 0 29.667 -8.33301 35 -25l338 -1024l358 1024c5.33301 16.667 17 25 35 25h166c18 0 29.667 -8.33301 35 -25l358 -1024z" />
    <glyph glyph-name="X" unicode="X" horiz-adv-x="1411" 
d="M57 0c-12 0 -19.999 3.33301 -23.999 10s-2.66699 15.667 4 27l493 674l-483 686c-15.333 24.667 -9 37 19 37h251c16.667 0 29.667 -7 39 -21l349 -504l350 506c8 12 21 18.333 39 19h249c27.333 0 33.666 -12.333 18.999 -37l-481 -688l493 -672
c6.66699 -10.667 8 -19.5 4 -26.5s-12 -10.5 -24 -10.5h-234c-16.667 0 -29 6 -37 18l-376 506l-379 -506c-8 -12 -20.333 -18 -37 -18h-234z" />
    <glyph glyph-name="Y" unicode="Y" horiz-adv-x="1456" 
d="M627 0c-20.667 0 -30.999 10.333 -30.999 31v438l-569 928c-6.66699 10.667 -8 19.5 -4 26.5s12 10.5 24 10.5h221c16.667 0 29 -7 37 -21l422 -702l424 702c8 13.333 20.333 20.333 37 21h221c12 0 20.167 -3.5 24.5 -10.5s3.16602 -15.833 -3.50098 -26.5l-570 -928
v-438c0 -20.667 -10.333 -31 -31 -31h-202z" />
    <glyph glyph-name="Z" unicode="Z" horiz-adv-x="1406" 
d="M123 0c-20.667 0 -31 10.333 -31 31v65c0 12 4 24.333 12 37l814 1077h-764c-20.667 0 -31 10.333 -31 31v162c0 20.667 10.333 31 31 31h1112c20.667 0 30.667 -10.333 30 -31v-66c0 -12 -4 -24.333 -12 -37l-784 -1077h774c20.667 0 31 -10 31 -30v-162
c0 -20.667 -10.333 -31 -31 -31h-1151z" />
    <glyph glyph-name="bracketleft" unicode="[" horiz-adv-x="757" 
d="M154 -279c-20.667 0 -31 10.333 -31 31v1712c0 20.667 10.333 31 31 31h501c20.667 0 31 -10.333 31 -31v-166c0 -20.667 -10.333 -30.667 -31 -30h-282v-1319h282c20.667 0 31 -10.333 31 -31v-166c0 -20.667 -10.333 -31 -31 -31h-501z" />
    <glyph glyph-name="backslash" unicode="\" horiz-adv-x="856" 
d="M559 -328c-19.333 0 -30.999 9 -34.999 27l-532 1761c-6.66699 23.333 2 35 26 35h177c19.333 0 30.666 -9 33.999 -27l533 -1761c6.66699 -23.333 -2.33301 -35 -27 -35h-176z" />
    <glyph glyph-name="bracketright" unicode="]" horiz-adv-x="757" 
d="M102 -279c-20.667 0 -30.667 10.333 -30 31v166c0 20.667 10 31 30 31h283v1319h-283c-20.667 0 -30.667 10 -30 30v166c0 20.667 10 31 30 31h502c20.667 0 31 -10.333 31 -31v-1712c0 -20.667 -10.333 -31 -31 -31h-502z" />
    <glyph glyph-name="asciicircum" unicode="^" horiz-adv-x="866" 
d="M76 903c-10.667 0 -18.166 3.83301 -22.499 11.5s-3.83301 16.167 1.5 25.5l254 471c6.66699 15.333 19 23 37 23h174c16.667 0 29 -7.66699 37 -23l254 -471c5.33301 -9.33301 6 -17.833 2 -25.5s-11.333 -11.5 -22 -11.5h-166c-16.667 0 -28.334 7.66699 -35.001 23
l-156 329l-158 -329c-6.66699 -15.333 -18 -23 -34 -23h-166z" />
    <glyph glyph-name="underscore" unicode="_" horiz-adv-x="1232" 
d="M31 -412c-20.667 0 -31 10.333 -31 31v145c-0 20.667 10.333 31 31 31h1171c20.667 0 31 -10.333 31 -31v-145c0 -20.667 -10.333 -31 -31 -31h-1171z" />
    <glyph glyph-name="grave" unicode="`" horiz-adv-x="614" 
d="M324 1157c-18 0 -30.999 6.33301 -38.999 19l-176 256c-15.333 24.667 -9.33301 36.667 18 36h209c16.667 0 29 -7.33301 37 -22l135 -252c5.33301 -9.33301 5.66602 -17.833 0.999023 -25.5s-12.667 -11.5 -24 -11.5h-161z" />
    <glyph glyph-name="a" unicode="a" horiz-adv-x="1435" 
d="M1374 31c1.33301 -18 -6.66406 -30.333 -23.9971 -37c-50.667 -16.667 -97.334 -25 -140.001 -25c-117.333 0 -196.333 42.333 -237 127c-96.667 -84.667 -209.334 -127 -338.001 -127c-158.667 0 -288.834 48.833 -390.501 146.5s-152.5 223 -152.5 376
s50.833 278.333 152.5 376s231.834 146.5 390.501 146.5c109.333 0 205.666 -30 288.999 -90v28c0 20.667 10 31 30 31h189c20.667 0 31 -10.333 31 -31v-688c0 -23.333 6.33301 -41.833 19 -55.5s30 -20.5 52 -20.5s47.333 3 76 9c22 4 34.333 -4.33301 37 -25z
M637.003 174c84.667 0 153.667 29.667 207 89s80 135.5 80 228.5s-26.667 169.167 -80 228.5s-122.333 89 -207 89c-86 0 -156.667 -29.667 -212 -89s-83 -135.5 -83 -228.5s27.667 -169.167 83 -228.5s126 -89 212 -89z" />
    <glyph glyph-name="b" unicode="b" horiz-adv-x="1316" 
d="M682 1014c158.667 0 288.834 -48.833 390.501 -146.5s152.5 -223 152.5 -376s-50.833 -278.333 -152.5 -376s-231.834 -146.5 -390.501 -146.5c-106.667 0 -202.334 29.333 -287.001 88v-26c0 -20.667 -10 -31 -30 -31h-191c-20.667 -0 -31 10.333 -31 31v1454
c0 20.667 10.333 31 31 31h191c20.667 0 30.667 -10.333 30 -31v-559c84.667 58.667 180.334 88 287.001 88zM680 174c86 0 156.667 29.667 212 89s83 135.5 83 228.5s-27.667 169.167 -83 228.5s-126 89 -212 89c-84.667 0 -153.667 -29.667 -207 -89
s-80 -135.5 -80 -228.5s26.667 -169.167 80 -228.5s122.333 -89 207 -89z" />
    <glyph glyph-name="c" unicode="c" horiz-adv-x="1224" 
d="M637 -31c-164 0 -295.832 47.833 -395.499 143.5s-149.5 222 -149.5 379s49.833 283.333 149.5 379s231.5 143.5 395.5 143.5c130 0 239.667 -32.167 329 -96.5s145 -149.5 167 -255.5c4 -22 -5 -33 -27 -33h-195c-16.667 0 -27.334 8.66699 -32.001 26
c-15.333 44 -44.833 79.333 -88.5 106s-94.834 40 -153.501 40c-88.667 0 -160 -28.333 -214 -85s-81 -131.5 -81 -224.5s27 -167.833 81 -224.5s125.333 -85 214 -85c58.667 0 109.834 13.333 153.501 40s73.167 62 88.5 106c5.33301 18 16 26.667 32 26h195
c22 0 31 -10.667 27 -32c-22 -106.667 -77.667 -192.167 -167 -256.5s-199 -96.5 -329 -96.5z" />
    <glyph glyph-name="d" unicode="d" horiz-adv-x="1435" 
d="M1374 31c1.33301 -18 -6.66602 -30.333 -23.999 -37c-50.667 -16.667 -97.334 -25 -140.001 -25c-117.333 0 -196.333 42.333 -237 127c-96.667 -84.667 -209.334 -127 -338.001 -127c-158.667 0 -288.834 48.833 -390.501 146.5s-152.5 223 -152.5 376
s50.833 278.333 152.5 376s231.834 146.5 390.501 146.5c106.667 0 202.334 -29.333 287.001 -88v559c0 20.667 10 31 30 31h191c20.667 0 31 -10.333 31 -31v-1221c0 -23.333 6.33301 -41.833 19 -55.5s30 -20.5 52 -20.5s47.333 3 76 9c22 4 34.333 -4.33301 37 -25z
M637.001 174c84.667 0 153.667 29.667 207 89s80 135.5 80 228.5s-26.667 169.167 -80 228.5s-122.333 89 -207 89c-86 0 -156.667 -29.667 -212 -89s-83 -135.5 -83 -228.5s27.667 -169.167 83 -228.5s126 -89 212 -89z" />
    <glyph glyph-name="e" unicode="e" horiz-adv-x="1230" 
d="M637 -31c-162.667 0 -294.17 47.832 -394.503 143.499s-150.5 222 -150.5 379s48.833 283.333 146.5 379s225.834 143.5 384.501 143.5c154 0 278.5 -47.167 373.5 -141.5s142.5 -218.5 142.5 -372.5c0 -19.333 -1.33301 -46.666 -4 -81.999c-4 -18 -15.667 -27 -35 -27
h-756c19.333 -68 55.5 -121.833 108.5 -161.5s116.5 -59.5 190.5 -59.5c88.667 0 153.667 24 195 72c12 12 25 18 39 18h202c10.667 0 18.834 -3.33301 24.501 -10s5.83398 -15 0.500977 -25c-35.333 -78 -95 -140.167 -179 -186.5s-180 -69.5 -288 -69.5zM337.997 566.999
l547 -0.000976562c-2.66699 72.667 -27 131.834 -73 177.501s-107.167 68.5 -183.5 68.5s-141.5 -22.5 -195.5 -67.5s-85.667 -104.5 -95 -178.5z" />
    <glyph glyph-name="f" unicode="f" horiz-adv-x="950" 
d="M328 0c-20.667 0 -31 10.334 -31 31.001v753h-256c-20.667 0 -31 10.333 -31 31v137c0 20.667 10.333 31 31 31h256v150c0 124 39.667 223.833 119 299.5s183.666 113.5 312.999 113.5c86 0 164.667 -11 236 -33c18 -6.66699 25.333 -18 22 -34l-24 -146
c-5.33301 -23.333 -17.666 -32 -36.999 -26c-49.333 15.333 -104 22.666 -164 21.999c-64 0 -115.833 -18 -155.5 -54s-59.5 -83.333 -59.5 -142v-150h373c20.667 0 30.667 -10.333 30 -31v-137c0 -20.667 -10 -31 -30 -31h-373v-753c0 -20.667 -10.333 -31 -31 -31h-188z
" />
    <glyph glyph-name="g" unicode="g" horiz-adv-x="1327" 
d="M1153 983c20.667 0 31.001 -10.333 31.001 -31v-970c0 -144.667 -47.833 -261.5 -143.5 -350.5s-221.834 -133.5 -378.501 -133.5c-138 0 -254.5 33.5 -349.5 100.5s-153.5 156.5 -175.5 268.5c-4 22 5.66699 33 29 33h192c18 0 29.667 -9 35 -27
c13.333 -49.333 44.333 -88.333 93 -117s107.334 -43 176.001 -43c82 0 147.833 24.667 197.5 74s74.5 114.333 74.5 195v77c-83.333 -60 -179.666 -90 -288.999 -90c-158.667 0 -288.834 48.833 -390.501 146.5s-152.5 223 -152.5 376s51 278.333 153 376
s232 146.5 390 146.5c109.333 0 205.666 -30 288.999 -90v28c0 20.667 10.333 31 31 31h188zM647.001 174c84.667 0 153.667 29.667 207 89s80 135.5 80 228.5s-26.667 169.167 -80 228.5s-122.333 89 -207 89c-86 0 -156.667 -29.667 -212 -89s-83 -135.5 -83 -228.5
s27.667 -169.167 83 -228.5s126 -89 212 -89z" />
    <glyph glyph-name="h" unicode="h" horiz-adv-x="1284" 
d="M713 1014c134 0 242.166 -42.667 324.499 -128s123.5 -197.666 123.5 -336.999v-518c0 -20.667 -10.333 -31 -31 -31h-188c-20.667 0 -31 10.333 -31 31v504c0 79.333 -23.167 143.166 -69.5 191.499s-107.166 72.5 -182.499 72.5c-79.333 0 -143.5 -22.833 -192.5 -68.5
s-73.5 -106.167 -73.5 -181.5v-518c0 -20.667 -10.333 -31 -31 -31h-188c-20.667 -0 -31 10.333 -31 31v1454c0 20.667 10.333 31 31 31h188c20.667 0 31 -10.333 31 -31v-561c88 60 194.667 90 320 90z" />
    <glyph glyph-name="i" unicode="i" horiz-adv-x="536" 
d="M268 1198c-44 0 -80.833 14 -110.5 42s-44.5 61.833 -44.5 101.5s15 73.5 45 101.5s66.667 42 110 42c42 0 78.5 -14 109.5 -42s46.5 -61.833 46.5 -101.5s-15.5 -73.5 -46.5 -101.5s-67.5 -42 -109.5 -42zM174 0c-20.667 0 -31 10.333 -31 31v921
c0 20.667 10.333 31 31 31h188c20.667 0 31 -10.333 31 -31v-921c0 -20.667 -10.333 -31 -31 -31h-188z" />
    <glyph glyph-name="j" unicode="j" horiz-adv-x="540" 
d="M272 1198c-44 0 -80.833 14 -110.5 42s-44.5 61.833 -44.5 101.5s15 73.5 45 101.5s66.667 42 110 42c42 0 78.5 -14 109.5 -42s46.5 -61.833 46.5 -101.5s-15.5 -73.5 -46.5 -101.5s-67.5 -42 -109.5 -42zM-4 -502c-19.333 0 -30.333 9.66699 -33 29l-24 147
c-4 19.333 4.66699 30.333 26 33c69.333 6.66699 117 24.667 143 54s39 79 39 149v1042c0 20.667 10.333 31 31 31h189c20.667 0 30.667 -10.333 30 -31v-1011c0 -295.333 -133.667 -443 -401 -443z" />
    <glyph glyph-name="k" unicode="k" horiz-adv-x="1220" 
d="M1190 37c9.33301 -9.33301 11.668 -17.833 7.00098 -25.5s-13.334 -11.5 -26.001 -11.5h-249c-12 0 -24.333 6 -37 18l-492 451v-438c0 -20.667 -10.333 -31 -31 -31h-188c-20.667 -0 -31 10.333 -31 31v1454c0 20.667 10.333 31 31 31h188c20.667 0 31 -10.333 31 -31
v-993l455 475c9.33301 10.667 22.333 16 39 16h223c13.333 0 21.5 -3.33301 24.5 -10s-0.5 -15.667 -10.5 -27l-434 -454z" />
    <glyph glyph-name="l" unicode="l" horiz-adv-x="655" 
d="M430 -31c-86 0 -155.334 20.832 -208.001 62.499s-79 96.834 -79 165.501v1288c0 20.667 10.333 31 31 31h188c20.667 0 31 -10.333 31 -31v-1221c0 -23.333 6.5 -41.833 19.5 -55.5s30.5 -20.5 52.5 -20.5s47.333 3 76 9c22 4 34.333 -4.33301 37 -25l16 -141
c2.66699 -18 -5.66602 -30.333 -24.999 -37c-52 -16.667 -98.333 -25 -139 -25z" />
    <glyph glyph-name="m" unicode="m" horiz-adv-x="2058" 
d="M1487 1014c134 0 242.166 -42.6641 324.499 -127.997s123.5 -197.666 123.5 -336.999v-518c0 -20.667 -10 -31 -30 -31h-189c-20.667 0 -30.667 10.333 -30 31v504c0 79.333 -23.333 143.166 -70 191.499s-107.334 72.5 -182.001 72.5
c-65.333 0 -118.333 -22.833 -159 -68.5s-61 -106.167 -61 -181.5v-518c0 -20.667 -10 -31 -30 -31h-189c-20.667 0 -30.667 10.333 -30 31v504c0 79.333 -20.833 143.166 -62.5 191.499s-97.5 72.5 -167.5 72.5c-72.667 0 -131.334 -22.833 -176.001 -68.5
s-67 -106.167 -67 -181.5v-518c0 -20.667 -10.333 -31 -31 -31h-189c-20.667 0 -30.667 10.333 -30 31v688c0 50.667 -28.667 76 -86 76c-9.33301 0 -28.666 -2.33301 -57.999 -7c-24.667 -2.66699 -37 5.66602 -37 24.999v143c0 19.333 8.33301 31.666 25 36.999
c36.667 13.333 78.334 20.333 125.001 21c113.333 0 190.333 -41.667 231 -125c86 83.333 201.333 125 346 125c138 0 247.333 -50 328 -150c88.667 100 212.334 150 371.001 150z" />
    <glyph glyph-name="n" unicode="n" horiz-adv-x="1382" 
d="M811 1014c134 0 242.332 -42.665 324.999 -127.998s124 -197.666 124 -336.999v-518c0 -20.667 -10.333 -31 -31 -31h-189c-20.667 0 -30.667 10.333 -30 31v504c0 79.333 -23.333 143.166 -70 191.499s-107.334 72.5 -182.001 72.5
c-79.333 0 -143.5 -22.833 -192.5 -68.5s-73.5 -106.167 -73.5 -181.5v-518c0 -20.667 -10.333 -31 -31 -31h-189c-20.667 0 -30.667 10.333 -30 31v688c0 50.667 -28.667 76 -86 76c-9.33301 0 -28.666 -2.33301 -57.999 -7c-24.667 -2.66699 -37 5.66602 -37 24.999v143
c0 19.333 8.33301 31.666 25 36.999c36.667 13.333 78.334 20.333 125.001 21c113.333 0 191 -43 233 -129c90.667 86 213 129 367 129z" />
    <glyph glyph-name="o" unicode="o" horiz-adv-x="1277" 
d="M639 -31c-164 0 -296.167 47.833 -396.5 143.5s-150.5 222 -150.5 379s50.167 283.333 150.5 379s232.5 143.5 396.5 143.5s296.167 -47.833 396.5 -143.5s150.5 -222 150.5 -379s-50.167 -283.333 -150.5 -379s-232.5 -143.5 -396.5 -143.5zM639 184
c88.667 0 160.334 28 215.001 84s82 130.5 82 223.5s-27.333 167.5 -82 223.5s-126.334 84 -215.001 84s-160.334 -28 -215.001 -84s-82 -130.5 -82 -223.5s27.333 -167.5 82 -223.5s126.334 -84 215.001 -84z" />
    <glyph glyph-name="p" unicode="p" horiz-adv-x="1415" 
d="M780 1014c158.667 0 288.832 -48.8311 390.499 -146.498s152.5 -223 152.5 -376s-50.833 -278.333 -152.5 -376s-231.834 -146.5 -390.501 -146.5c-109.333 0 -205.333 30 -288 90v-499c0 -20.667 -10.333 -31 -31 -31h-189c-20.667 0 -30.667 10.333 -30 31v1159
c0 50.667 -28.667 76 -86 76c-9.33301 0 -28.666 -2.33301 -57.999 -7c-24.667 -2.66699 -37 5.66602 -37 24.999v143c0 19.333 8.33301 31.666 25 36.999c36.667 13.333 78.334 20.333 125.001 21c113.333 0 191 -43 233 -129c90 86 202 129 336 129zM777.998 174.002
c86 0 156.667 29.667 212 89s83 135.5 83 228.5s-27.667 169.167 -83 228.5s-126 89 -212 89c-84.667 0 -153.5 -29.667 -206.5 -89s-79.5 -135.5 -79.5 -228.5s26.5 -169.167 79.5 -228.5s121.833 -89 206.5 -89z" />
    <glyph glyph-name="q" unicode="q" horiz-adv-x="1228" 
d="M1112 983c20.667 0 31 -10.333 31 -31v-1392c0 -20.667 -10.333 -31 -31 -31h-188c-20.667 0 -31 10.333 -31 31v499c-83.333 -60 -179.666 -90 -288.999 -90c-158.667 0 -288.834 48.833 -390.501 146.5s-152.5 223 -152.5 376s51 278.333 153 376s232 146.5 390 146.5
c108 0 203.667 -30 287 -90v28c0 20.667 10.333 31 31 31h190zM606 174c84.667 0 153.667 29.667 207 89s80 135.5 80 228.5s-26.667 169.167 -80 228.5s-122.333 89 -207 89c-86 0 -156.667 -29.667 -212 -89s-83 -135.5 -83 -228.5s27.667 -169.167 83 -228.5
s126 -89 212 -89z" />
    <glyph glyph-name="r" unicode="r" horiz-adv-x="1028" 
d="M944 993c18 -5.33301 25.666 -17.665 22.999 -36.998l-25 -153c-4 -20.667 -16.333 -29 -37 -25c-38 6.66699 -77 10 -117 10c-87.333 0 -158.5 -27.167 -213.5 -81.5s-82.5 -125.833 -82.5 -214.5v-461c0 -20.667 -10.333 -31 -31 -31h-189
c-20.667 0 -30.667 10.333 -30 31v688c0 50.667 -28.667 76 -86 76c-9.33301 0 -28.666 -2.33301 -57.999 -7c-24.667 -2.66699 -37 5.66602 -37 24.999v143c0 19.333 8.33301 31.666 25 36.999c44 13.333 85.667 20.333 125 21c124 0 204 -49.333 240 -148
c90 98 203.333 147.333 340 148c56.667 -0.666992 107.667 -7.66699 153 -21z" />
    <glyph glyph-name="s" unicode="s" horiz-adv-x="1089" 
d="M559 -31c-139.333 0 -251.67 28.666 -337.003 85.999s-135.333 137.333 -150 240c-2.66699 22 7.33301 33 30 33l172 -2c16.667 0 27.667 -9 33 -27c30 -91.333 114 -137 252 -137c58.667 0 106.5 10.167 143.5 30.5s55.5 46.833 55.5 79.5
c0 39.333 -22.5 68.333 -67.5 87s-99.333 32.167 -163 40.5s-127.167 19.333 -190.5 33s-117.666 42.667 -162.999 87s-68 105.166 -68 182.499c0 92.667 39.667 167.834 119 225.501s184 86.5 314 86.5c120 0 221 -26.667 303 -80s129.667 -123.666 143 -210.999
c2.66699 -22 -7.66602 -33 -30.999 -33h-172c-18 0 -28.667 6.33301 -32 19c-12 36.667 -37.667 66.167 -77 88.5s-84 33.5 -134 33.5c-56 0 -100.833 -9.5 -134.5 -28.5s-50.5 -44.167 -50.5 -75.5c0 -35.333 16.167 -63.333 48.5 -84s72 -33.667 119 -39
s98.5 -13.833 154.5 -25.5s107.5 -25.334 154.5 -41.001s86.5 -44.667 118.5 -87s48 -96.166 48 -161.499c0 -95.333 -40.167 -172.5 -120.5 -231.5s-186.166 -88.5 -317.499 -88.5z" />
    <glyph glyph-name="t" unicode="t" horiz-adv-x="956" 
d="M643 -31c-118.667 0 -214.499 36.168 -287.499 108.501s-109.5 168.166 -109.5 287.499v419h-205c-20.667 0 -31 10.333 -31 31v137c0 20.667 10.333 31 31 31h205v272c0 20.667 10 31 30 31h189c20.667 0 31 -10.333 31 -31v-272h348c20.667 0 30.667 -10.333 30 -31
v-137c0 -20.667 -10 -31 -30 -31h-348v-411c0 -56 16 -100.833 48 -134.5s74.667 -50.5 128 -50.5c57.333 0 111.333 6.33301 162 19c20.667 4 32.667 -4.33301 36 -25l25 -143c1.33301 -18 -7 -30.333 -25 -37c-84.667 -22 -160.334 -33 -227.001 -33z" />
    <glyph glyph-name="u" unicode="u" horiz-adv-x="1402" 
d="M1341 31c1.33301 -18 -6.66602 -30.332 -23.999 -36.999c-50.667 -16.667 -97 -25 -139 -25c-121.333 0 -206 38.333 -254 115c-88.667 -76.667 -206.334 -115 -353.001 -115c-134 0 -242.167 42.667 -324.5 128s-123.5 197.666 -123.5 336.999v518
c0 20.667 10.333 31 31 31h188c20.667 0 31 -10.333 31 -31v-503c0 -79.333 23.167 -143.333 69.5 -192s107.166 -73 182.499 -73c79.333 0 143.5 23 192.5 69s73.5 106.333 73.5 181v518c0 20.667 10.333 31 31 31h188c20.667 0 31 -10.333 31 -31v-688
c0 -23.333 6.5 -41.833 19.5 -55.5s30.333 -20.5 52 -20.5s46.834 3 75.501 9c22 4 34.333 -4.33301 37 -25z" />
    <glyph glyph-name="v" unicode="v" horiz-adv-x="1220" 
d="M524 0c-16.667 0 -28.333 7.66797 -35 23.001l-444 923c-10.667 24.667 -3 37 23 37h202c16.667 0 28.334 -7.33301 35.001 -22l305 -660l310 660c6.66699 15.333 18 22.666 34 21.999h199c26 0 33.667 -12.333 23 -37l-445 -923
c-6.66699 -15.333 -18.334 -23 -35.001 -23h-172z" />
    <glyph glyph-name="w" unicode="w" horiz-adv-x="1689" 
d="M440 0c-18 0 -30.333 8.33301 -37 25l-360 923c-8 23.333 0.333008 35 25 35h206c18 0 29.667 -8.33301 35 -25l213 -581l209 581c5.33301 16.667 17 25 35 25h160c18 0 29.667 -8.33301 35 -25l206 -583l215 583c5.33301 16.667 17 25 35 25h205
c24.667 0 33 -11.667 25 -35l-359 -923c-6.66699 -16.667 -19 -25 -37 -25h-166c-18 -0 -29.333 8.33301 -34 25l-205 575l-205 -575c-5.33301 -16.667 -17 -25 -35 -25h-166z" />
    <glyph glyph-name="x" unicode="x" horiz-adv-x="1155" 
d="M68 0c-12 0 -20.167 3.33301 -24.5 10s-2.5 15.667 5.5 27l361 461l-357 448c-8 10.667 -10.333 19.5 -7 26.5s11.333 10.5 24 10.5h239c16.667 0 29 -6 37 -18l232 -299l235 299c8 12 20.333 18 37 18h237c12 0 19.833 -3.33301 23.5 -10s1.5 -15.667 -6.5 -27
l-359 -452l361 -457c8 -10.667 10 -19.5 6 -26.5s-12.333 -10.5 -25 -10.5h-227c-16.667 0 -29 6 -37 18l-241 312l-248 -312c-8 -12 -20.333 -18 -37 -18h-229z" />
    <glyph glyph-name="y" unicode="y" horiz-adv-x="1323" 
d="M1235 983c26 0 33.335 -12.333 22.002 -37l-530 -1163c-87.333 -190 -227.333 -285 -420 -285c-88.667 0 -165 11 -229 33c-19.333 6.66699 -27 18.334 -23 35.001l25 145c5.33301 23.333 17.666 32.333 36.999 27c52 -15.333 106.667 -23 164 -23
c101.333 0 173.666 46 216.999 138l53 116l-496 977c-10.667 24.667 -3 37 23 37h205c15.333 0 26.666 -7.33301 33.999 -22l359 -715l323 715c6.66699 15.333 18.334 22.666 35.001 21.999h201z" />
    <glyph glyph-name="z" unicode="z" horiz-adv-x="1069" 
d="M967 983c20.667 0 30.667 -10.333 30 -31v-73c0 -16.667 -4.66699 -29.667 -14 -39l-543 -643h525c20.667 0 30.667 -10.333 30 -31v-135c0 -20.667 -10 -31 -30 -31h-863c-20.667 -0 -30.667 10.333 -30 31v57c0 16.667 4.66699 29.667 14 39l553 659h-518
c-20.667 0 -31 10.333 -31 31v135c0 20.667 10.333 31 31 31h846z" />
    <glyph glyph-name="braceleft" unicode="{" horiz-adv-x="755" 
d="M653 -293c-122.667 6.66699 -220.834 44.167 -294.501 112.5s-110.5 156.5 -110.5 264.5v287c0 53.333 -10.667 89.833 -32 109.5s-62.666 30.167 -123.999 31.5c-20.667 0 -31 10.333 -31 31v147c0 20.667 10.333 31 31 31c61.333 1.33301 102.666 11.833 123.999 31.5
s32 56.167 32 109.5v287c0 108 36.833 196.167 110.5 264.5s171.834 105.833 294.501 112.5c20.667 0 31 -10.333 31 -31v-170c0 -20.667 -10.333 -31.667 -31 -33c-48 -4 -85.833 -19 -113.5 -45s-41.5 -58.667 -41.5 -98v-293c0 -74 -11.333 -128 -34 -162
s-65.334 -60 -128.001 -78c62.667 -18 105.334 -44 128.001 -78s34 -87.667 34 -161v-293c0 -39.333 14 -72 42 -98s65.667 -41 113 -45c20.667 -1.33301 31 -12.333 31 -33v-170c0 -20.667 -10.333 -31 -31 -31z" />
    <glyph glyph-name="bar" unicode="|" horiz-adv-x="663" 
d="M246 -328c-20.667 0 -31 10.333 -31 31v1761c0 20.667 10.333 31 31 31h172c20.667 0 31 -10.333 31 -31v-1761c0 -20.667 -10.333 -31 -31 -31h-172z" />
    <glyph glyph-name="braceright" unicode="}" horiz-adv-x="755" 
d="M102 -293c-20.667 0 -30.668 10.333 -30.001 31v170c0 20.667 10 31.667 30 33c48 4 86 19 114 45s42 58.667 42 98v293c0 74 11.333 128 34 162s65.334 59.667 128.001 77c-62.667 18 -105.334 44 -128.001 78s-34 88 -34 162v293c0 39.333 -14 72 -42 98
s-66 41 -114 45c-20.667 1.33301 -30.667 12.333 -30 33v170c0 20.667 10 31 30 31c122.667 -6.66699 221 -44.167 295 -112.5s111 -156.5 111 -264.5v-287c0 -53.333 10.5 -89.833 31.5 -109.5s62.5 -30.167 124.5 -31.5c20.667 0 30.667 -10.333 30 -31v-147
c0 -20.667 -10 -31 -30 -31c-61.333 -1.33301 -102.666 -11.833 -123.999 -31.5s-32 -56.167 -32 -109.5v-287c0 -108 -37 -196.167 -111 -264.5s-172.333 -105.833 -295 -112.5z" />
    <glyph glyph-name="asciitilde" unicode="~" horiz-adv-x="954" 
d="M631 541c-49.333 0 -108.499 20.5 -177.499 61.5s-111.5 61.5 -127.5 61.5c-28.667 0 -46.667 -17.333 -54 -52c-6.66699 -19.333 -17.334 -28.666 -32.001 -27.999h-160c-22 0 -31.667 10.667 -29 32c6.66699 78 33.667 140.167 81 186.5s106.333 69.5 177 69.5
c56 0 118.5 -20.333 187.5 -61s112.5 -61 130.5 -61c27.333 0 45 16.333 53 49c6.66699 19.333 17.667 28.666 33 27.999h161c20.667 0 30.334 -10 29.001 -30c-5.33301 -80.667 -31.833 -143.5 -79.5 -188.5s-111.834 -67.5 -192.501 -67.5z" />
    <glyph glyph-name="exclamdown" unicode="&#xa1;" horiz-adv-x="579" 
d="M291 735c-40.667 0 -75.5 13.667 -104.5 41s-43.5 60.166 -43.5 98.499s14.333 71.166 43 98.499s63.667 41 105 41c39.333 0 73.333 -13.667 102 -41s43 -60.166 43 -98.499s-14.333 -71.166 -43 -98.499s-62.667 -41 -102 -41zM190 -451
c-22 0 -32.666 10.333 -31.999 31v381l20 561c0 20.667 11 31 33 31h156c23.333 0 34.666 -10.333 33.999 -31l19 -561v-381c0 -20.667 -11 -31 -33 -31h-197z" />
    <glyph glyph-name="cent" unicode="&#xa2;" horiz-adv-x="1224" 
d="M1106 354c22 0 31 -10.665 27 -31.998c-18 -88.667 -60.167 -163.167 -126.5 -223.5s-149.166 -99.833 -248.499 -118.5v-199c0 -20.667 -10.333 -31 -31 -31h-164c-20.667 0 -31 10.333 -31 31v196c-135.333 19.333 -242.5 75.166 -321.5 167.499s-118.5 208 -118.5 347
s39.667 254.667 119 347s186.333 148.166 321 167.499v211c0 20.667 10.333 30.667 31 30h164c20.667 0 31 -10 31 -30v-213c100 -19.333 183 -59 249 -119s108 -134.333 126 -223c4 -22 -5 -33 -27 -33h-195c-16.667 0 -27.334 8.66699 -32.001 26
c-15.333 44 -44.833 79.333 -88.5 106s-94.834 40 -153.501 40c-88.667 0 -160.334 -28.333 -215.001 -85s-82 -131.5 -82 -224.5s27.333 -167.833 82 -224.5s126.334 -85 215.001 -85c58.667 0 109.834 13.333 153.501 40s73.167 62 88.5 106c5.33301 18 16 26.667 32 26
h195z" />
    <glyph glyph-name="sterling" unicode="&#xa3;" horiz-adv-x="1325" 
d="M102 0c-20.667 0 -30.6641 10.333 -29.9971 31v145c0 20.667 10 31 30 31h107v358h-107c-20.667 0 -30.667 10.333 -30 31v145c0 20.667 10 31 30 31h107v203c0 146 48.833 264 146.5 354s226.167 135 385.5 135c139.333 0 258.166 -35.5 356.499 -106.5
s153.833 -164.5 166.5 -280.5c2.66699 -22 -7 -33 -29 -33h-195c-16.667 0 -27.334 9 -32.001 27c-19.333 57.333 -52.5 102.333 -99.5 135s-102.833 49 -167.5 49c-84.667 0 -152.834 -25.5 -204.501 -76.5s-77.5 -118.833 -77.5 -203.5v-203h413
c20.667 0 31 -10.333 31 -31v-145c0 -20.667 -10.333 -31 -31 -31h-413v-358h753c20.667 0 31 -10.333 31 -31v-145c0 -20.667 -10.333 -31 -31 -31h-1110z" />
    <glyph glyph-name="currency" unicode="&#xa4;" horiz-adv-x="1103" 
d="M211 162l-109 110.001c-15.333 13.333 -15.333 27.666 0 42.999l78 78c-39.333 62.667 -59 135.667 -59 219c0 84.667 19.667 158.667 59 222l-78 77c-13.333 15.333 -13.333 29.666 0 42.999l109 111c13.333 13.333 28.333 13.333 45 0l90 -92
c61.333 27.333 129.666 41 204.999 41c76.667 0 146.334 -13.667 209.001 -41l90 90c15.333 15.333 29.666 15.333 42.999 0l111 -109c12 -15.333 12 -30.333 0 -45l-80 -80c38 -64 57 -136.333 57 -217c0 -83.333 -19.667 -156.333 -59 -219l79 -78
c15.333 -15.333 15.333 -29.666 0 -42.999l-108 -110c-13.333 -13.333 -28.333 -13.333 -45 0l-90 90c-61.333 -27.333 -130.333 -41 -207 -41c-75.333 0 -143.666 13.667 -204.999 41l-90 -90c-14.667 -12 -29.667 -12 -45 0zM550.5 383.001
c72.333 0 130.833 21.167 175.5 63.5s67 97.666 67 165.999s-22.333 123.666 -67 165.999s-103.167 63.5 -175.5 63.5s-130.666 -21.167 -174.999 -63.5s-66.5 -97.666 -66.5 -165.999s22.167 -123.666 66.5 -165.999s102.666 -63.5 174.999 -63.5z" />
    <glyph glyph-name="yen" unicode="&#xa5;" horiz-adv-x="1456" 
d="M1409 1434c12 0 20.168 -3.5 24.501 -10.5s3.16602 -15.833 -3.50098 -26.5l-492 -801h276c20.667 0 31 -10.333 31 -31v-110c0 -20.667 -10.333 -31 -31 -31h-354v-105h354c20.667 0 31 -10 31 -30v-111c0 -20.667 -10.333 -31 -31 -31h-354v-116
c0 -20.667 -10.333 -31 -31 -31h-202c-20.667 -0 -31 10.333 -31 31v116h-354c-20.667 0 -31 10.333 -31 31v111c0 20.667 10.333 30.667 31 30h354v105h-354c-20.667 0 -31 10.333 -31 31v110c0 20.667 10.333 31 31 31h276l-491 801c-6.66699 10.667 -8 19.5 -4 26.5
s12 10.5 24 10.5h221c16.667 0 29 -7 37 -21l422 -702l424 702c8 13.333 20.333 20.333 37 21h221z" />
    <glyph glyph-name="brokenbar" unicode="&#xa6;" horiz-adv-x="663" 
d="M246 688c-20.667 0 -31 10.333 -31 31v745c0 20.667 10.333 31 31 31h172c20.667 0 31 -10.333 31 -31v-745c0 -20.667 -10.333 -31 -31 -31h-172zM246 -328c-20.667 0 -31 10.333 -31 31v746c0 20.667 10.333 30.667 31 30h172c20.667 0 31 -10 31 -30v-746
c0 -20.667 -10.333 -31 -31 -31h-172z" />
    <glyph glyph-name="section" unicode="&#xa7;" horiz-adv-x="1181" 
d="M588 -276c-121.333 0 -224.669 32.002 -310.002 96.002s-137.666 147.333 -156.999 250c-4 22 5.66699 32.667 29 32h212c18 0 28.333 -9.33301 31 -28c6.66699 -40.667 27.834 -73.667 63.501 -99s78.834 -38 129.501 -38c52 0 93 11.833 123 35.5s45 56.167 45 97.5
c0 44 -23.667 81.5 -71 112.5s-104.333 58.167 -171 81.5s-133.167 49.666 -199.5 78.999s-123 71.666 -170 126.999s-70.5 122.666 -70.5 201.999c0 114.667 53.667 200 161 256c-44 57.333 -65.667 124 -65 200c0 98 40 178.5 120 241.5s182 94.5 306 94.5
s226.667 -30.333 308 -91s133 -145 155 -253c4 -22 -5 -33 -27 -33h-211c-18 0 -29 9.66699 -33 29c-20.667 91.333 -84.667 137 -192 137c-48 0 -87.667 -12.5 -119 -37.5s-47 -56.833 -47 -95.5c0 -45.333 23.5 -85 70.5 -119s104 -63.167 171 -87.5
s133.667 -51.333 200 -81s123 -71 170 -124s70.5 -116.5 70.5 -190.5c0 -117.333 -56 -202.666 -168 -255.999c48 -54.667 72 -121.667 72 -201c0 -105.333 -37.833 -187.833 -113.5 -247.5s-179.834 -89.5 -312.501 -89.5zM751.997 395.002
c70.667 20.667 106 60.334 106 119.001c0 38 -20.167 70.667 -60.5 98s-104.833 58.166 -193.5 92.499s-152.667 61.5 -192 81.5c-58.667 -18 -88 -56 -88 -114c0 -34 14.667 -65.333 44 -94s60.333 -50.167 93 -64.5s81.167 -33.833 145.5 -58.5s112.833 -44.667 145.5 -60
z" />
    <glyph glyph-name="dieresis" unicode="&#xa8;" horiz-adv-x="974" 
d="M262.5 1161c-43.667 0 -81.332 14.333 -112.999 43s-47.5 62.834 -47.5 102.501s15.833 73.5 47.5 101.5s69.167 42 112.5 42c42 0 78.833 -14 110.5 -42s47.5 -61.833 47.5 -101.5s-15.333 -73.834 -46 -102.501s-67.834 -43 -111.501 -43zM714.502 1161
c-43.667 0 -81.166 14.333 -112.499 43s-47 62.834 -47 102.501s15.667 73.5 47 101.5s69 42 113 42c42 0 78.667 -14 110 -42s47 -61.833 47 -101.5s-15.333 -73.834 -46 -102.501s-67.834 -43 -111.501 -43z" />
    <glyph glyph-name="copyright" unicode="&#xa9;" horiz-adv-x="1810" 
d="M905 -31c-232 0 -422 69.667 -570 209s-222 319 -222 539s74 399.5 222 538.5s338 208.5 570 208.5s422.167 -69.5 570.5 -208.5s222.5 -318.5 222.5 -538.5s-74.167 -399.667 -222.5 -539s-338.5 -209 -570.5 -209zM905.5 125c180.333 0 328.166 55.333 443.499 166
s173 252.667 173 426s-57.667 315.333 -173 426s-263.166 166 -443.499 166s-328.166 -55.333 -443.499 -166s-173 -252.667 -173 -426s57.667 -315.333 173 -426s263.166 -166 443.499 -166zM911 369c-110.667 0 -201.501 32.332 -272.501 96.999
s-106.5 148.167 -106.5 250.5s35.5 186 106.5 251s161.833 97.5 272.5 97.5c83.333 0 157.5 -21.833 222.5 -65.5s109.167 -100.5 132.5 -170.5c6.66699 -23.333 -2.33301 -34.666 -27 -33.999h-135c-15.333 0 -27 7.33301 -35 22c-35.333 54.667 -88.666 82 -159.999 82
c-56 0 -101.667 -17 -137 -51s-53 -77.667 -53 -131s17.667 -97 53 -131s81 -51 137 -51c70.667 0 124 27 160 81c8 15.333 19.667 23 35 23h135c24.667 0 33.667 -11.667 27 -35c-23.333 -69.333 -67.5 -125.833 -132.5 -169.5s-139.167 -65.5 -222.5 -65.5z" />
    <glyph glyph-name="ordfeminine" unicode="&#xaa;" horiz-adv-x="860" 
d="M328 784c-86 0 -155.326 19.167 -207.993 57.5s-79 89.5 -79 153.5c0 57.333 23.167 102.5 69.5 135.5s111.166 49.5 194.499 49.5h211v8c0 90 -45 135 -135 135c-70.667 0 -114.334 -24 -131.001 -72c-4 -12 -11.667 -18 -23 -18h-135c-15.333 0 -21.333 6.66699 -18 20
c12 68 47 120.167 105 156.5s125.333 54.5 202 54.5c94 0 168.667 -25.167 224 -75.5s83 -119.833 83 -208.5v-207c0 -16.667 5.16699 -30 15.5 -40s23.666 -15 39.999 -15s29.166 1.33301 38.499 4c13.333 4 21.666 -1 24.999 -15l12 -84
c1.33301 -12 -3.33398 -20 -14.001 -24c-26 -9.33301 -55.333 -14.333 -88 -15c-66.667 0 -119.334 21.333 -158.001 64c-61.333 -42.667 -138.333 -64 -231 -64zM336.007 918c53.333 0 96.667 13.168 130 39.501s50 60.166 50 101.499h-223
c-22 0 -41.5 -4.83301 -58.5 -14.5s-25.5 -24.167 -25.5 -43.5c0 -27.333 12 -48 36 -62s54.333 -21 91 -21z" />
    <glyph glyph-name="guillemotleft" unicode="&#xab;" horiz-adv-x="946" 
d="M289 203c-15.333 0 -27.667 6.66699 -37 20l-182 273c-9.33301 13.333 -9.33301 27 0 41l182 272c8 13.333 20.333 20 37 20h172c28.667 0 35.334 -12 20.001 -36l-182 -277l182 -276c15.333 -24.667 8.66602 -37 -20.001 -37h-172zM685.999 203
c-15.333 0 -27.667 6.66699 -37 20l-182 273c-9.33301 13.333 -9.33301 27 0 41l182 272c8 13.333 20.333 20 37 20h172c28.667 0 35.667 -12 21 -36l-183 -277l183 -276c15.333 -24.667 8.33301 -37 -21 -37h-172z" />
    <glyph glyph-name="registered" unicode="&#xae;" horiz-adv-x="1232" 
d="M616.5 420c-153 0 -282 48.5 -387 145.5s-157.5 215.167 -157.5 354.5c0 138 52.5 255.333 157.5 352s234 145 387 145s282 -48.5 387 -145.5s157.5 -214.167 157.5 -351.5c0 -139.333 -52.5 -257.5 -157.5 -354.5s-234 -145.5 -387 -145.5zM616.5 541
c110.333 0 205.166 37.167 284.499 111.5s119 163.333 119 267s-39.667 192.334 -119 266.001s-174.166 110.5 -284.499 110.5s-205.166 -36.833 -284.499 -110.5s-119 -162.334 -119 -266.001s39.667 -192.667 119 -267s174.166 -111.5 284.499 -111.5zM475 715
c-20.667 0 -31.001 10.001 -31.001 30.001v375c0 20.667 10.333 31 31 31h168c54.667 0 99 -14.333 133 -43s51 -66.334 51 -113.001c0 -66.667 -31.333 -111 -94 -133l82 -110c6.66699 -9.33301 8.33398 -17.833 5.00098 -25.5s-11 -11.5 -23 -11.5h-58
c-16.667 0 -29 6 -37 18l-81 113h-74v-101c0 -20.667 -10.333 -30.667 -31 -30h-41zM546.999 932.001h95.999c52 0 78 21.667 78 65c0 18 -7.16699 32.833 -21.5 44.5s-33.166 17.5 -56.499 17.5h-96v-127z" />
    <glyph glyph-name="macron" unicode="&#xaf;" horiz-adv-x="813" 
d="M133 1196c-20.667 0 -31 10.333 -31 31v133c0 20.667 10.333 31 31 31h547c20.667 0 31 -10.333 31 -31v-133c0 -20.667 -10.333 -31 -31 -31h-547z" />
    <glyph glyph-name="degree" unicode="&#xb0;" horiz-adv-x="1003" 
d="M502 772c-113.333 0 -204.833 31.833 -274.5 95.5s-104.5 147.334 -104.5 251.001s34.833 187.167 104.5 250.5s161.167 95 274.5 95s204.833 -31.667 274.5 -95s104.5 -146.833 104.5 -250.5s-34.833 -187.334 -104.5 -251.001s-161.167 -95.5 -274.5 -95.5zM502 948
c56 0 100.667 15.667 134 47s50 72.333 50 123s-16.667 91.667 -50 123s-78 47 -134 47s-100.833 -15.667 -134.5 -47s-50.5 -72.333 -50.5 -123s16.833 -91.667 50.5 -123s78.5 -47 134.5 -47z" />
    <glyph glyph-name="plusminus" unicode="&#xb1;" horiz-adv-x="1466" 
d="M645 358c-20.667 0 -31 10.333 -31 31v270h-368c-20.667 0 -31 10.333 -31 31v158c0 20.667 10.333 31 31 31h368v272c0 20.667 10.333 31 31 31h178c20.667 0 31 -10.333 31 -31v-272h367c20.667 0 30.667 -10.333 30 -31v-158c0 -20.667 -10 -31 -30 -31h-367v-270
c0 -20.667 -10.333 -31 -31 -31h-178zM246 0c-20.667 0 -31 10.333 -31 31v157c0 20.667 10.333 31 31 31h975c20.667 0 30.667 -10.333 30 -31v-157c0 -20.667 -10 -31 -30 -31h-975z" />
    <glyph glyph-name="uni00B2" unicode="&#xb2;" horiz-adv-x="782" 
d="M115 1024c-20.667 0 -30.998 10.332 -30.998 30.999v39c0 15.333 5.33301 28.333 16 39l297 297l22.5 22l26 25.5c5 5 12.167 13 21.5 24s16.5 19.833 21.5 26.5s10.167 14.834 15.5 24.501s9 19.167 11 28.5s3 19 3 29c0 30 -10.5 53.833 -31.5 71.5
s-49.5 26.5 -85.5 26.5c-66.667 0 -110.334 -30 -131.001 -90c-6.66699 -19.333 -17.334 -29 -32.001 -29h-127c-22 0 -31.667 10.333 -29 31c6.66699 74 39 133.167 97 177.5s132 66.5 222 66.5c91.333 0 165.5 -22.5 222.5 -67.5s85.5 -103.833 85.5 -176.5
c0 -76.667 -50.667 -166.667 -152 -270l-174 -179h307c20.667 0 31 -10 31 -30v-86c0 -20.667 -10.333 -31 -31 -31h-575z" />
    <glyph glyph-name="uni00B3" unicode="&#xb3;" horiz-adv-x="813" 
d="M406 1006c-84.667 0 -156.166 19.6689 -214.499 59.002s-97.5 92 -117.5 158c-6.66699 22 2 32.667 26 32h129c16.667 0 29 -8 37 -24c24.667 -48 72.667 -72 144 -72c42 0 76 8.83301 102 26.5s39 41.5 39 71.5c0 31.333 -13 56.666 -39 75.999s-63 29 -111 29h-51
c-20.667 0 -31 10.333 -31 31v82c0 20.667 10.333 30.667 31 30h39c39.333 0 71.333 9.66699 96 29s37 44.666 37 75.999c0 30 -11.167 54.167 -33.5 72.5s-52.166 27.5 -89.499 27.5c-60 0 -97.333 -23.333 -112 -70c-5.33301 -18 -16.333 -26.667 -33 -26h-129
c-23.333 0 -33 11 -29 33c13.333 66.667 46.666 119.5 99.999 158.5s120.333 58.5 201 58.5c91.333 0 164.666 -23.333 219.999 -70s83 -108 83 -184c0 -82 -30.667 -138.667 -92 -170c82 -32.667 123 -93.667 123 -183c0 -75.333 -30 -136 -90 -182s-138.333 -69 -235 -69z
" />
    <glyph glyph-name="acute" unicode="&#xb4;" horiz-adv-x="614" 
d="M129 1157c-10.667 0 -18.499 3.83398 -23.499 11.501s-4.83301 16.167 0.5 25.5l136 252c8 15.333 20.333 22.666 37 21.999h208c27.333 0 33.666 -12 18.999 -36l-176 -256c-8 -12 -21 -18.333 -39 -19h-162z" />
    <glyph glyph-name="paragraph" unicode="&#xb6;" horiz-adv-x="1228" 
d="M815 -287c-20.667 0 -31 10.333 -31 31v752h-178c-166.667 0 -300.834 43 -402.501 129s-152.5 199.333 -152.5 340s50.833 254 152.5 340s235.834 129 402.501 129h879c20.667 0 31 -10.333 31 -31v-1659c0 -20.667 -10.333 -31 -31 -31h-199
c-20.667 0 -31 10.333 -31 31v1479h-213v-1479c0 -20.667 -10 -31 -30 -31h-197zM606 707h178v516h-178c-88.667 0 -160.334 -23.667 -215.001 -71s-82 -109.833 -82 -187.5s27.333 -140 82 -187s126.334 -70.5 215.001 -70.5z" />
    <glyph glyph-name="periodcentered" unicode="&#xb7;" horiz-adv-x="436" 
d="M217 352c-39.333 0 -73.333 13.667 -102 41s-43 60.166 -43 98.499s14.333 71.166 43 98.499s62.667 41 102 41c40.667 0 75.5 -13.667 104.5 -41s43.5 -60.166 43.5 -98.499s-14.5 -71.166 -43.5 -98.499s-63.833 -41 -104.5 -41z" />
    <glyph glyph-name="cedilla" unicode="&#xb8;" horiz-adv-x="561" 
d="M139 -346c-24.667 0 -33.334 11.667 -26.001 35l92 331c4 18 15.667 27 35 27h188c24.667 0 33 -11.667 25 -35l-125 -334c-5.33301 -16.667 -17.666 -24.667 -36.999 -24h-152z" />
    <glyph glyph-name="uni00B9" unicode="&#xb9;" horiz-adv-x="526" 
d="M414 1843c20.667 0 30.667 -10.333 30 -31v-757c0 -20.667 -10 -31 -30 -31h-119c-20.667 0 -31 10.333 -31 31v626h-188c-23.333 0 -35 8.33301 -35 25v106c0 20.667 11.667 31 35 31h338z" />
    <glyph glyph-name="ordmasculine" unicode="&#xba;" horiz-adv-x="831" 
d="M415.5 784c-106.333 0 -193.666 31.833 -261.999 95.5s-102.5 145.334 -102.5 245.001s34.167 181.167 102.5 244.5s155.666 95 261.999 95s193.666 -31.667 261.999 -95s102.5 -144.833 102.5 -244.5s-34.167 -181.334 -102.5 -245.001s-155.666 -95.5 -261.999 -95.5z
M416 934c56 0 101.667 17.667 137 53s53 81 53 137s-17.667 101.833 -53 137.5s-81 53.5 -137 53.5s-101.833 -17.833 -137.5 -53.5s-53.5 -81.5 -53.5 -137.5s17.833 -101.667 53.5 -137s81.5 -53 137.5 -53z" />
    <glyph glyph-name="guillemotright" unicode="&#xbb;" horiz-adv-x="946" 
d="M88 203c-28.667 0 -35.335 12.333 -20.002 37l182 276l-182 277c-15.333 24.667 -8.66602 36.667 20.001 36h172c16.667 0 29 -6.66699 37 -20l182 -272c9.33301 -13.333 9.33301 -27 0 -41l-182 -273c-9.33301 -13.333 -21.666 -20 -36.999 -20h-172zM484.999 203
c-28.667 0 -35.335 12.333 -20.002 37l182 276l-182 277c-15.333 24.667 -8.66602 36.667 20.001 36h172c16.667 0 29 -6.66699 37 -20l183 -272c9.33301 -13.333 9.33301 -27 0 -41l-183 -273c-9.33301 -13.333 -21.666 -20 -36.999 -20h-172z" />
    <glyph glyph-name="onequarter" unicode="&#xbc;" horiz-adv-x="1800" 
d="M455 1434c20.667 0 30.667 -10.333 30 -31v-758c0 -20.667 -10 -31 -30 -31h-119c-20.667 0 -31 10.333 -31 31v627h-188c-23.333 0 -35 8 -35 24v107c0 20.667 11.667 31 35 31h338zM293 0c-12 0 -19.832 3.33301 -23.499 10s-2.16699 15.667 4.5 27l973 1378
c8 12 21 18.333 39 19h107c12 0 19.667 -3.5 23 -10.5s1.66602 -15.833 -5.00098 -26.5l-973 -1379c-8 -12 -21 -18 -39 -18h-106zM1708 313c20.667 0 31 -9.99902 31 -29.999v-95c0 -20.667 -10.333 -30.667 -31 -30h-86v-127c0 -20.667 -10.333 -31 -31 -31h-123
c-20.667 0 -30.667 10.333 -30 31v127h-437c-20.667 0 -30.667 10 -30 30v62c0 18 2.66699 31 8 39l399 508c9.33301 15.333 21 22.666 35 21.999h178c20.667 0 31 -10.333 31 -31v-475h86zM1188 313.001h250v312z" />
    <glyph glyph-name="onehalf" unicode="&#xbd;" horiz-adv-x="1712" 
d="M414 1434c20.667 0 30.667 -10.333 30 -31v-758c0 -20.667 -10 -31 -30 -31h-119c-20.667 0 -31 10.333 -31 31v627h-188c-23.333 0 -35 8 -35 24v107c0 20.667 11.667 31 35 31h338zM252 0c-12 0 -19.832 3.33301 -23.499 10s-2.16699 15.667 4.5 27l973 1378
c8 12 21 18.333 39 19h107c12 0 19.667 -3.5 23 -10.5s1.66602 -15.833 -5.00098 -26.5l-973 -1379c-8 -12 -21 -18 -39 -18h-106zM1044 0c-20.667 0 -30.6689 10.332 -30.002 30.999v39c0 15.333 5.33301 28.333 16 39l297 297l22.5 22c12.333 12 20.833 20.5 25.5 25.5
l21.5 24c9.66699 11 16.834 19.833 21.501 26.5s9.83398 14.834 15.501 24.501s9.5 19.167 11.5 28.5s3 19 3 29c0 30 -10.667 53.833 -32 71.5s-49.666 26.5 -84.999 26.5c-66.667 0 -110.334 -30 -131.001 -90c-6.66699 -19.333 -17.667 -29 -33 -29h-127
c-22 0 -31.333 10.333 -28 31c6.66699 74 39 133.167 97 177.5s132 66.5 222 66.5c91.333 0 165.333 -22.5 222 -67.5s85 -103.833 85 -176.5c0 -76.667 -50.333 -166.667 -151 -270l-174 -179h307c20.667 0 31 -10 31 -30v-86c0 -20.667 -10.333 -31 -31 -31h-576z" />
    <glyph glyph-name="threequarters" unicode="&#xbe;" horiz-adv-x="1931" 
d="M406 596c-84.667 0 -156.166 19.833 -214.499 59.5s-97.5 92.167 -117.5 157.5c-6.66699 22 2 33 26 33h129c16.667 0 29 -8.33301 37 -25c24.667 -48 72.667 -71.667 144 -71c42 0 76 8.83301 102 26.5s39 41.5 39 71.5c0 31.333 -13 56.5 -39 75.5s-63 28.5 -111 28.5
h-51c-20.667 0 -31 10.333 -31 31v82c0 20.667 10.333 31 31 31h39c39.333 0 71.333 9.5 96 28.5s37 44.167 37 75.5c0 30 -11.167 54.167 -33.5 72.5s-52.166 27.5 -89.499 27.5c-60 0 -97.333 -23 -112 -69c-5.33301 -18 -16.333 -27 -33 -27h-129
c-23.333 0 -33 11 -29 33c13.333 66.667 46.666 119.5 99.999 158.5s120.333 58.5 201 58.5c91.333 0 164.666 -23.167 219.999 -69.5s83 -107.833 83 -184.5c0 -82 -30.667 -138.667 -92 -170c82 -32.667 123 -93.334 123 -182.001c0 -75.333 -30 -136.166 -90 -182.499
s-138.333 -69.5 -235 -69.5zM424.001 0c-12 0 -19.8311 3.33301 -23.498 10s-1.83398 15.667 5.49902 27l972 1378c8 12 21 18.333 39 19h107c12 0 19.667 -3.5 23 -10.5s1.66602 -15.833 -5.00098 -26.5l-973 -1379c-8 -12 -21 -18 -39 -18h-106zM1839 313
c20.667 0 31 -9.99902 31 -29.999v-95c0 -20.667 -10.333 -30.667 -31 -30h-86v-127c0 -20.667 -10.333 -31 -31 -31h-123c-20.667 0 -30.667 10.333 -30 31v127h-436c-20.667 0 -31 10 -31 30v62c0 18 2.66699 31 8 39l399 508c9.33301 15.333 21 22.666 35 21.999h178
c20.667 0 31 -10.333 31 -31v-475h86zM1319 313.001h250v312z" />
    <glyph glyph-name="questiondown" unicode="&#xbf;" horiz-adv-x="1150" 
d="M639 735c-40.667 0 -75.334 13.667 -104.001 41s-43 60.166 -43 98.499s14.333 71.166 43 98.499s63.334 41 104.001 41c39.333 0 73.333 -13.667 102 -41s43 -60.166 43 -98.499s-14.333 -71.166 -43 -98.499s-62.667 -41 -102 -41zM604 -481
c-150 0 -271.168 40.167 -363.501 120.5s-138.5 186.833 -138.5 319.5c0 109.333 38.667 199.5 116 270.5s181.333 113.167 312 126.5l9 166c0 20.667 10.667 31 32 31h134c22 0 32.667 -10.333 32 -31l17 -297c2.66699 -20.667 -7 -30.667 -29 -30h-111
c-80.667 0 -145.5 -21.5 -194.5 -64.5s-73.5 -99.333 -73.5 -169s22.5 -125.667 67.5 -168s105.167 -63.5 180.5 -63.5c58.667 0 109.167 14.667 151.5 44s71.833 68.333 88.5 117c5.33301 18 16.666 27 33.999 27h191c10.667 0 18.834 -2.33301 24.501 -7
s7.83398 -12 6.50098 -22c-12 -112 -62.5 -201.667 -151.5 -269s-200.5 -101 -334.5 -101z" />
    <glyph glyph-name="Agrave" unicode="&#xc0;" horiz-adv-x="1595" 
d="M725 1579c-18 0 -30.998 6 -38.998 18l-176 256c-15.333 24.667 -9.33301 37 18 37h209c16.667 0 29 -7.33301 37 -22l135 -252c5.33301 -9.33301 5.66602 -17.833 0.999023 -25.5s-12.334 -11.5 -23.001 -11.5h-162zM68.002 0c-26 0 -33.6689 12.333 -23.002 37
l623 1374c6.66699 15.333 18 23 34 23h195c18 0 29.667 -7.66699 35 -23l618 -1374c10.667 -24.667 3.33398 -37 -21.999 -37h-213c-18 0 -29.667 7.66699 -35 23l-133 309h-694l-134 -309c-5.33301 -15.333 -16.666 -23 -33.999 -23h-217zM551 559h498l-250 576z" />
    <glyph glyph-name="Aacute" unicode="&#xc1;" horiz-adv-x="1595" 
d="M711 1579c-10.667 0 -18.5 3.83398 -23.5 11.501s-4.83301 16.167 0.5 25.5l135 252c8 15.333 20.333 22.666 37 21.999h209c27.333 0 33.333 -12.333 18 -37l-176 -256c-8 -12 -21 -18 -39 -18h-161zM68 0.000976562c-26 0 -33.6689 12.333 -23.002 37l623 1374
c6.66699 15.333 18 23 34 23h195c18 0 29.667 -7.66699 35 -23l618 -1374c10.667 -24.667 3.33398 -37 -21.999 -37h-213c-18 0 -29.667 7.66699 -35 23l-133 309h-694l-134 -309c-5.33301 -15.333 -16.666 -23 -33.999 -23h-217zM550.998 559.001h498l-250 576z" />
    <glyph glyph-name="Acircumflex" unicode="&#xc2;" horiz-adv-x="1595" 
d="M469 1571c-13.333 0 -21.834 3.66699 -25.501 11s-1.16699 16 7.5 26l213 256c10.667 12 22.667 18 36 18h197c13.333 0 25.666 -6 36.999 -18l213 -256c8 -9.33301 10.333 -17.833 7 -25.5s-12 -11.5 -26 -11.5h-161c-15.333 0 -27.666 5.33301 -36.999 16l-131 146
l-131 -146c-9.33301 -10.667 -21.666 -16 -36.999 -16h-162zM67.999 0c-26 0 -33.6689 12.333 -23.002 37l623 1374c6.66699 15.333 18 23 34 23h195c18 0 29.667 -7.66699 35 -23l618 -1374c10.667 -24.667 3.33398 -37 -21.999 -37h-213c-18 0 -29.667 7.66699 -35 23
l-133 309h-694l-134 -309c-5.33301 -15.333 -16.666 -23 -33.999 -23h-217zM550.997 559h498l-250 576z" />
    <glyph glyph-name="Atilde" unicode="&#xc3;" horiz-adv-x="1595" 
d="M944 1597c-52 0 -107.332 17.5 -165.999 52.5s-96 52.5 -112 52.5c-24.667 0 -41.334 -13 -50.001 -39c-6.66699 -19.333 -17.334 -29 -32.001 -29h-142c-22 0 -31.333 10.333 -28 31c6.66699 69.333 31.167 124.833 73.5 166.5s96.166 62.5 161.499 62.5
c53.333 0 109 -17.333 167 -52s96 -52 114 -52c24.667 0 41 13 49 39c6.66699 19.333 17.667 29 33 29h141c20.667 0 30.334 -10.333 29.001 -31c-6.66699 -69.333 -31.667 -125 -75 -167s-97.666 -63 -162.999 -63zM68.001 0c-26 0 -33.6689 12.333 -23.002 37l623 1374
c6.66699 15.333 18 23 34 23h195c18 0 29.667 -7.66699 35 -23l618 -1374c10.667 -24.667 3.33398 -37 -21.999 -37h-213c-18 0 -29.667 7.66699 -35 23l-133 309h-694l-134 -309c-5.33301 -15.333 -16.666 -23 -33.999 -23h-217zM550.999 559h498l-250 576z" />
    <glyph glyph-name="Adieresis" unicode="&#xc4;" horiz-adv-x="1595" 
d="M573.5 1587c-43.667 0 -81.165 14.333 -112.498 43s-47 62.834 -47 102.501s15.667 73.5 47 101.5s68.666 42 111.999 42c42 0 78.833 -14 110.5 -42s47.5 -61.833 47.5 -101.5s-15.333 -73.834 -46 -102.501s-67.834 -43 -111.501 -43zM1026.5 1587
c-43.667 0 -81.332 14.333 -112.999 43s-47.5 62.834 -47.5 102.501s15.833 73.5 47.5 101.5s69.167 42 112.5 42c42 0 78.833 -14 110.5 -42s47.5 -61.833 47.5 -101.5s-15.333 -73.834 -46 -102.501s-67.834 -43 -111.501 -43zM68.0039 0
c-26 0 -33.6689 12.333 -23.002 37l623 1374c6.66699 15.333 18 23 34 23h195c18 0 29.667 -7.66699 35 -23l618 -1374c10.667 -24.667 3.33398 -37 -21.999 -37h-213c-18 0 -29.667 7.66699 -35 23l-133 309h-694l-134 -309c-5.33301 -15.333 -16.666 -23 -33.999 -23h-217
zM551.002 559h498l-250 576z" />
    <glyph glyph-name="Aring" unicode="&#xc5;" horiz-adv-x="1595" 
d="M800.5 1604c-72.333 0 -131 19.667 -176 59s-67.5 91.166 -67.5 155.499s22.5 116.333 67.5 156s103.667 59.5 176 59.5s130.333 -19.833 174 -59.5s65.5 -91.667 65.5 -156s-21.833 -116.166 -65.5 -155.499s-101.667 -59 -174 -59zM799 1722c30 0 54.167 9 72.5 27
s27.5 41.333 27.5 70s-9.16699 51.834 -27.5 69.501s-42.5 26.5 -72.5 26.5c-28.667 0 -52.667 -8.83301 -72 -26.5s-29 -40.834 -29 -69.501s9.66699 -52 29 -70s43.333 -27 72 -27zM68 0c-26 0 -33.6689 12.333 -23.002 37l623 1374c6.66699 15.333 18 23 34 23h195
c18 0 29.667 -7.66699 35 -23l618 -1374c10.667 -24.667 3.33398 -37 -21.999 -37h-213c-18 0 -29.667 7.66699 -35 23l-133 309h-694l-134 -309c-5.33301 -15.333 -16.666 -23 -33.999 -23h-217zM550.998 559h498l-250 576z" />
    <glyph glyph-name="AE" unicode="&#xc6;" horiz-adv-x="2394" 
d="M98 0c-12 0 -20 3.33301 -24 10s-2 15.667 6 27l1112 1378c10.667 12 23 18.333 37 19h1042c20.667 0 31 -10.333 31 -31v-166c0 -20.667 -10.333 -31 -31 -31h-782v-385h694c20.667 0 31 -10 31 -30v-166c0 -20.667 -10.333 -31 -31 -31h-694v-367h782
c20.667 0 31 -10 31 -30v-166c0 -20.667 -10.333 -31 -31 -31h-1009c-20.667 -0 -31 10.333 -31 31v299h-602l-246 -312c-8 -12 -20.333 -18 -37 -18h-248zM809 559h422v537z" />
    <glyph glyph-name="Ccedilla" unicode="&#xc7;" horiz-adv-x="1705" 
d="M1565 541c23.333 0 32.6631 -11 27.9961 -33c-32.667 -150 -106.334 -272.833 -221.001 -368.5s-252.667 -150.5 -414 -164.5l-110 -297c-5.33301 -16.667 -17.666 -24.667 -36.999 -24h-152c-24.667 0 -33.334 11.667 -26.001 35l82 297
c-184 31.333 -330.333 112.5 -439 243.5s-163 294.167 -163 489.5c0 224 70.667 404.167 212 540.5s327.333 204.5 558 204.5c178.667 0 332.834 -48.833 462.501 -146.5s212.167 -227.5 247.5 -389.5c4 -22 -5.33301 -33 -28 -33h-207c-18 0 -29.667 8.33301 -35 25
c-31.333 96.667 -85.666 172.334 -162.999 227.001s-169.666 82 -276.999 82c-151.333 0 -273.166 -46.833 -365.499 -140.5s-138.5 -216.834 -138.5 -369.501c0 -154 46 -277.833 138 -371.5s214 -140.5 366 -140.5c106.667 0 198.834 27 276.501 81
s132.167 129.333 163.5 226c5.33301 18 17 27 35 27h207z" />
    <glyph glyph-name="Egrave" unicode="&#xc8;" horiz-adv-x="1316" 
d="M643 1579c-18 0 -30.998 6 -38.998 18l-176 256c-15.333 24.667 -9.33301 37 18 37h209c16.667 0 29 -7.33301 37 -22l135 -252c5.33301 -9.33301 5.66602 -17.833 0.999023 -25.5s-12.334 -11.5 -23.001 -11.5h-162zM1225 1237c0 -20.667 -10.333 -31 -31 -31h-780v-385
h694c20.667 0 31 -10 31 -30v-166c0 -20.667 -10.333 -31 -31 -31h-694v-367h780c20.667 0 31 -10 31 -30v-166c0 -20.667 -10.333 -31 -31 -31h-1010c-20.667 -0 -30.667 10.333 -30 31v1372c0 20.667 10 31 30 31h1010c20.667 0 31 -10.333 31 -31v-166z" />
    <glyph glyph-name="Eacute" unicode="&#xc9;" horiz-adv-x="1316" 
d="M629 1579c-10.667 0 -18.499 3.83398 -23.499 11.501s-4.83301 16.167 0.5 25.5l135 252c8 15.333 20.333 22.666 37 21.999h209c27.333 0 33.666 -12.333 18.999 -37l-177 -256c-8 -12 -20.667 -18 -38 -18h-162zM1225 1237c0 -20.667 -10.333 -31 -31 -31h-780v-385
h694c20.667 0 31 -10 31 -30v-166c0 -20.667 -10.333 -31 -31 -31h-694v-367h780c20.667 0 31 -10 31 -30v-166c0 -20.667 -10.333 -31 -31 -31h-1010c-20.667 0 -30.667 10.333 -30 31v1372c0 20.667 10 31 30 31h1010c20.667 0 31 -10.333 31 -31v-166z" />
    <glyph glyph-name="Ecircumflex" unicode="&#xca;" horiz-adv-x="1316" 
d="M387 1571c-13.333 0 -21.835 3.66699 -25.502 11s-1.16699 16 7.5 26l213 256c10.667 12 22.667 18 36 18h197c13.333 0 25.666 -6 36.999 -18l213 -256c8 -9.33301 10.333 -17.833 7 -25.5s-11.666 -11.5 -24.999 -11.5h-162c-15.333 0 -27.666 5.33301 -36.999 16
l-131 146l-131 -146c-9.33301 -10.667 -21.666 -16 -36.999 -16h-162zM1225 1237c0 -20.667 -10.333 -31 -31 -31h-780v-385h694c20.667 0 31 -10 31 -30v-166c0 -20.667 -10.333 -31 -31 -31h-694v-367h780c20.667 0 31 -10 31 -30v-166c0 -20.667 -10.333 -31 -31 -31
h-1010c-20.667 -0 -30.667 10.333 -30 31v1372c0 20.667 10 31 30 31h1010c20.667 0 31 -10.333 31 -31v-166z" />
    <glyph glyph-name="Edieresis" unicode="&#xcb;" horiz-adv-x="1316" 
d="M491.5 1587c-43.667 0 -81.166 14.333 -112.499 43s-47 62.834 -47 102.501s15.667 73.5 47 101.5s69 42 113 42c42 0 78.667 -14 110 -42s47 -61.833 47 -101.5s-15.333 -73.834 -46 -102.501s-67.834 -43 -111.501 -43zM944.501 1587
c-43.667 0 -81.332 14.333 -112.999 43s-47.5 62.834 -47.5 102.501s15.833 73.5 47.5 101.5s69.167 42 112.5 42c42 0 78.833 -14 110.5 -42s47.5 -61.833 47.5 -101.5s-15.333 -73.834 -46 -102.501s-67.834 -43 -111.501 -43zM1225 1237c0 -20.667 -10.333 -31 -31 -31
h-780v-385h694c20.667 0 31 -10 31 -30v-166c0 -20.667 -10.333 -31 -31 -31h-694v-367h780c20.667 0 31 -10 31 -30v-166c0 -20.667 -10.333 -31 -31 -31h-1010c-20.667 -0 -30.667 10.333 -30 31v1372c0 20.667 10 31 30 31h1010c20.667 0 31 -10.333 31 -31v-166z" />
    <glyph glyph-name="Igrave" unicode="&#xcc;" horiz-adv-x="894" 
d="M375 1579c-18 0 -30.998 6 -38.998 18l-176 256c-15.333 24.667 -9.33301 37 18 37h209c18 0 30.333 -7.33301 37 -22l135 -252c5.33301 -9.33301 5.66602 -17.833 0.999023 -25.5s-12.334 -11.5 -23.001 -11.5h-162zM92.002 0c-20.667 0 -31 10.333 -31 31v166
c0 20.667 10.333 30.667 31 30h225v979h-225c-20.667 0 -31 10.333 -31 31v166c0 20.667 10.333 31 31 31h711c20.667 0 31 -10.333 31 -31v-166c0 -20.667 -10.333 -31 -31 -31h-225v-979h225c20.667 0 31 -10 31 -30v-166c0 -20.667 -10.333 -31 -31 -31h-711z" />
    <glyph glyph-name="Iacute" unicode="&#xcd;" horiz-adv-x="894" 
d="M360 1579c-10.667 0 -18.332 3.83398 -22.999 11.501s-4.33398 16.167 0.999023 25.5l135 252c6.66699 15.333 19 22.666 37 21.999h209c27.333 0 33.333 -12.333 18 -37l-176 -256c-8 -12 -21 -18 -39 -18h-162zM92.002 0.000976562c-20.667 0 -31 10.333 -31 31v166
c0 20.667 10.333 30.667 31 30h225v979h-225c-20.667 0 -31 10.333 -31 31v166c0 20.667 10.333 31 31 31h711c20.667 0 31 -10.333 31 -31v-166c0 -20.667 -10.333 -31 -31 -31h-225v-979h225c20.667 0 31 -10 31 -30v-166c0 -20.667 -10.333 -31 -31 -31h-711z" />
    <glyph glyph-name="Icircumflex" unicode="&#xce;" horiz-adv-x="894" 
d="M119 1571c-13.333 0 -21.8311 3.66699 -25.498 11s-1.5 16 6.5 26l213 256c9.33301 12 21.666 18 36.999 18h197c15.333 0 27.666 -6 36.999 -18l213 -256c8 -9.33301 10.333 -17.833 7 -25.5s-12 -11.5 -26 -11.5h-162c-15.333 0 -27.333 5.33301 -36 16l-131 146
l-132 -146c-9.33301 -10.667 -21.333 -16 -36 -16h-162zM92.002 0c-20.667 0 -31 10.333 -31 31v166c0 20.667 10.333 30.667 31 30h225v979h-225c-20.667 0 -31 10.333 -31 31v166c0 20.667 10.333 31 31 31h711c20.667 0 31 -10.333 31 -31v-166
c0 -20.667 -10.333 -31 -31 -31h-225v-979h225c20.667 0 31 -10 31 -30v-166c0 -20.667 -10.333 -31 -31 -31h-711z" />
    <glyph glyph-name="Idieresis" unicode="&#xcf;" horiz-adv-x="894" 
d="M223.5 1587c-43.667 0 -81.332 14.333 -112.999 43s-47.5 62.834 -47.5 102.501s15.833 73.5 47.5 101.5s69.167 42 112.5 42c42 0 78.833 -14 110.5 -42s47.5 -61.833 47.5 -101.5s-15.333 -73.834 -46 -102.501s-67.834 -43 -111.501 -43zM675.502 1587
c-43.667 0 -81.167 14.333 -112.5 43s-47 62.834 -47 102.501s15.667 73.5 47 101.5s69 42 113 42c42 0 78.833 -14 110.5 -42s47.5 -61.833 47.5 -101.5s-15.5 -73.834 -46.5 -102.501s-68.333 -43 -112 -43zM92.002 0c-20.667 0 -31 10.333 -31 31v166
c0 20.667 10.333 30.667 31 30h225v979h-225c-20.667 0 -31 10.333 -31 31v166c0 20.667 10.333 31 31 31h711c20.667 0 31 -10.333 31 -31v-166c0 -20.667 -10.333 -31 -31 -31h-225v-979h225c20.667 0 31 -10 31 -30v-166c0 -20.667 -10.333 -31 -31 -31h-711z" />
    <glyph glyph-name="Eth" unicode="&#xd0;" horiz-adv-x="1607" 
d="M694 1434c240 0 433.501 -65.667 580.501 -197s220.5 -304.833 220.5 -520.5s-73.333 -389 -220 -520s-340.334 -196.5 -581.001 -196.5h-510c-20.667 -0 -30.667 10.333 -30 31v573h-99c-20.667 0 -30.667 10.333 -30 31v166c0 20.667 10 30.667 30 30h99v572
c0 20.667 10 31 30 31h510zM666.001 227c168 0 303.5 45.167 406.5 135.5s154.5 208.5 154.5 354.5s-51.5 264 -154.5 354s-238.5 135 -406.5 135h-252v-375h276c20.667 0 31 -10 31 -30v-166c0 -20.667 -10.333 -31 -31 -31h-276v-377h252z" />
    <glyph glyph-name="Ntilde" unicode="&#xd1;" horiz-adv-x="1611" 
d="M952 1597c-52 0 -107.334 17.5 -166.001 52.5s-96 52.5 -112 52.5c-24.667 0 -41 -13 -49 -39c-6.66699 -19.333 -17.667 -29 -33 -29h-141c-22 0 -31.667 10.333 -29 31c6.66699 69.333 31.167 124.833 73.5 166.5s96.166 62.5 161.499 62.5
c53.333 0 109 -17.333 167 -52s96 -52 114 -52c24.667 0 41 13 49 39c6.66699 19.333 17.667 29 33 29h141c20.667 0 30.334 -10.333 29.001 -31c-6.66699 -69.333 -31.667 -125 -75 -167s-97.666 -63 -162.999 -63zM1198 1403c0 20.667 10.333 31 31 31h198
c20.667 0 31 -10.333 31 -31v-1372c0 -20.667 -10.333 -31 -31 -31h-151c-15.333 -0 -27.666 5.33301 -36.999 16l-825 957v-942c0 -20.667 -10.333 -31 -31 -31h-199c-20.667 -0 -30.667 10.333 -30 31v1372c0 20.667 10 31 30 31h144c15.333 0 27.666 -5.66699 36.999 -17
l833 -979v965z" />
    <glyph glyph-name="Ograve" unicode="&#xd2;" horiz-adv-x="1765" 
d="M809 1579c-18 0 -30.998 6 -38.998 18l-176 256c-15.333 24.667 -9.33301 37 18 37h209c18 0 30.333 -7.33301 37 -22l135 -252c5.33301 -9.33301 5.66602 -17.833 0.999023 -25.5s-12.334 -11.5 -23.001 -11.5h-162zM883.002 -29c-225.333 0 -410 69.667 -554 209
s-216 318.166 -216 536.499s72 397.166 216 536.499s328.667 209 554 209s410 -69.667 554 -209s216 -318.166 216 -536.499s-72 -397.166 -216 -536.499s-328.667 -209 -554 -209zM882.502 201c149 0 270.667 48 365 144s141.5 219.833 141.5 371.5
s-47.167 275.667 -141.5 372s-216 144.5 -365 144.5s-270.5 -48.167 -364.5 -144.5s-141 -220.333 -141 -372s47 -275.5 141 -371.5s215.5 -144 364.5 -144z" />
    <glyph glyph-name="Oacute" unicode="&#xd3;" horiz-adv-x="1765" 
d="M795 1579c-10.667 0 -18.5 3.83398 -23.5 11.501s-4.83301 16.167 0.5 25.5l135 252c6.66699 15.333 19 22.666 37 21.999h209c27.333 0 33.333 -12.333 18 -37l-176 -256c-8 -12 -21 -18 -39 -18h-161zM883 -28.999c-225.333 0 -410 69.667 -554 209
s-216 318.166 -216 536.499s72 397.166 216 536.499s328.667 209 554 209s410 -69.667 554 -209s216 -318.166 216 -536.499s-72 -397.166 -216 -536.499s-328.667 -209 -554 -209zM882.5 201.001c149 0 270.667 48 365 144s141.5 219.833 141.5 371.5
s-47.167 275.667 -141.5 372s-216 144.5 -365 144.5s-270.5 -48.167 -364.5 -144.5s-141 -220.333 -141 -372s47 -275.5 141 -371.5s215.5 -144 364.5 -144z" />
    <glyph glyph-name="Ocircumflex" unicode="&#xd4;" horiz-adv-x="1765" 
d="M553 1571c-13.333 0 -21.834 3.66699 -25.501 11s-1.16699 16 7.5 26l213 256c9.33301 12 21.333 18 36 18h197c15.333 0 27.666 -6 36.999 -18l213 -256c8 -9.33301 10.333 -17.833 7 -25.5s-12 -11.5 -26 -11.5h-161c-15.333 0 -27.666 5.33301 -36.999 16l-131 146
l-131 -146c-9.33301 -10.667 -21.666 -16 -36.999 -16h-162zM882.999 -29c-225.333 0 -410 69.667 -554 209s-216 318.166 -216 536.499s72 397.166 216 536.499s328.667 209 554 209s410 -69.667 554 -209s216 -318.166 216 -536.499s-72 -397.166 -216 -536.499
s-328.667 -209 -554 -209zM882.499 201c149 0 270.667 48 365 144s141.5 219.833 141.5 371.5s-47.167 275.667 -141.5 372s-216 144.5 -365 144.5s-270.5 -48.167 -364.5 -144.5s-141 -220.333 -141 -372s47 -275.5 141 -371.5s215.5 -144 364.5 -144z" />
    <glyph glyph-name="Otilde" unicode="&#xd5;" horiz-adv-x="1765" 
d="M1028 1597c-52 0 -107.331 17.5 -165.998 52.5s-96 52.5 -112 52.5c-24.667 0 -41.334 -13 -50.001 -39c-6.66699 -19.333 -17.334 -29 -32.001 -29h-142c-20.667 0 -30 10.333 -28 31c6.66699 69.333 31.167 124.833 73.5 166.5s96.166 62.5 161.499 62.5
c53.333 0 109 -17.333 167 -52s96 -52 114 -52c24.667 0 41 13 49 39c6.66699 19.333 17.667 29 33 29h141c22 0 31.667 -10.333 29 -31c-6.66699 -69.333 -31.667 -125 -75 -167s-97.666 -63 -162.999 -63zM883.002 -29c-225.333 0 -410 69.667 -554 209
s-216 318.166 -216 536.499s72 397.166 216 536.499s328.667 209 554 209s410 -69.667 554 -209s216 -318.166 216 -536.499s-72 -397.166 -216 -536.499s-328.667 -209 -554 -209zM882.502 201c149 0 270.667 48 365 144s141.5 219.833 141.5 371.5
s-47.167 275.667 -141.5 372s-216 144.5 -365 144.5s-270.5 -48.167 -364.5 -144.5s-141 -220.333 -141 -372s47 -275.5 141 -371.5s215.5 -144 364.5 -144z" />
    <glyph glyph-name="Odieresis" unicode="&#xd6;" horiz-adv-x="1765" 
d="M657.5 1587c-43.667 0 -81.165 14.333 -112.498 43s-47 62.834 -47 102.501s15.667 73.5 47 101.5s68.666 42 111.999 42c42 0 78.833 -14 110.5 -42s47.5 -61.833 47.5 -101.5s-15.333 -73.834 -46 -102.501s-67.834 -43 -111.501 -43zM1110 1587
c-44 0 -81.667 14.333 -113 43s-47 62.834 -47 102.501s15.667 73.5 47 101.5s69 42 113 42c42 0 78.833 -14 110.5 -42s47.5 -61.833 47.5 -101.5s-15.333 -73.834 -46 -102.501s-68 -43 -112 -43zM883.002 -29c-225.333 0 -410 69.667 -554 209s-216 318.166 -216 536.499
s72 397.166 216 536.499s328.667 209 554 209s410 -69.667 554 -209s216 -318.166 216 -536.499s-72 -397.166 -216 -536.499s-328.667 -209 -554 -209zM882.502 201c149 0 270.667 48 365 144s141.5 219.833 141.5 371.5s-47.167 275.667 -141.5 372s-216 144.5 -365 144.5
s-270.5 -48.167 -364.5 -144.5s-141 -220.333 -141 -372s47 -275.5 141 -371.5s215.5 -144 364.5 -144z" />
    <glyph glyph-name="multiply" unicode="&#xd7;" horiz-adv-x="1417" 
d="M367 205l-113 110c-13.333 15.333 -13.333 29.666 0 42.999l295 297l-277 275c-16.667 13.333 -16.667 27.666 0 42.999l121 123c15.333 13.333 29.666 13.333 42.999 0l279 -277l293 293c15.333 16.667 29.666 16.667 42.999 0l112 -111
c13.333 -15.333 13.333 -29.666 0 -42.999l-293 -294l275 -277c16.667 -15.333 16.667 -29.666 0 -42.999l-121 -123c-15.333 -13.333 -29.666 -13.333 -42.999 0l-276 279l-295 -295c-13.333 -16.667 -27.666 -16.667 -42.999 0z" />
    <glyph glyph-name="Oslash" unicode="&#xd8;" horiz-adv-x="1765" 
d="M1466 1223c124 -135.333 186.333 -304 187 -506c0 -218.667 -72 -397.667 -216 -537s-328.667 -209 -554 -209c-160 0 -303.333 37.667 -430 113l-80 -90c-13.333 -16.667 -27.666 -18 -42.999 -4l-109 84c-18 13.333 -19.333 28.333 -4 45l82 92
c-124 135.333 -186 304 -186 506c0 218.667 72 397.5 216 536.5s328.667 208.5 554 208.5c164 0 307.333 -38 430 -114l82 92c13.333 16.667 27.666 18 42.999 4l106 -84c16.667 -13.333 18 -28.333 4 -45zM377 717c0 -122.667 31.333 -227.334 94 -314.001l678 762
c-79.333 45.333 -168 68 -266 68c-148.667 0 -270.167 -48.167 -364.5 -144.5s-141.5 -220.166 -141.5 -371.499zM883 201c148.667 0 270.167 48 364.5 144s141.5 220 141.5 372c0 122.667 -31.667 227 -95 313l-678 -762c80 -44.667 169 -67 267 -67z" />
    <glyph glyph-name="Ugrave" unicode="&#xd9;" horiz-adv-x="1572" 
d="M713 1579c-18 0 -30.999 6 -38.999 18l-176 256c-15.333 24.667 -9.33301 37 18 37h209c16.667 0 29 -7.33301 37 -22l135 -252c5.33301 -9.33301 5.66602 -17.833 0.999023 -25.5s-12.667 -11.5 -24 -11.5h-161zM786.501 -31c-195 0 -352.667 59.833 -473 179.5
s-180.5 276.167 -180.5 469.5v785c0 20.667 10.333 31 31 31h198c20.667 0 31 -10.333 31 -31v-785c0 -125.333 36.167 -226.5 108.5 -303.5s167.333 -115.5 285 -115.5s212.667 38.5 285 115.5s108.5 178.167 108.5 303.5v785c0 20.667 10 31 30 31h199
c20.667 0 31 -10.333 31 -31v-785c0 -194 -60.167 -350.667 -180.5 -470s-278 -179 -473 -179z" />
    <glyph glyph-name="Uacute" unicode="&#xda;" horiz-adv-x="1572" 
d="M698 1579c-10.667 0 -18.332 3.83398 -22.999 11.501s-4.33398 16.167 0.999023 25.5l135 252c8 15.333 20.333 22.666 37 21.999h209c27.333 0 33.333 -12.333 18 -37l-176 -256c-8 -12 -21 -18 -39 -18h-162zM786.502 -30.999c-195 0 -352.667 59.833 -473 179.5
s-180.5 276.167 -180.5 469.5v785c0 20.667 10.333 31 31 31h198c20.667 0 31 -10.333 31 -31v-785c0 -125.333 36.167 -226.5 108.5 -303.5s167.333 -115.5 285 -115.5s212.667 38.5 285 115.5s108.5 178.167 108.5 303.5v785c0 20.667 10 31 30 31h199
c20.667 0 31 -10.333 31 -31v-785c0 -194 -60.167 -350.667 -180.5 -470s-278 -179 -473 -179z" />
    <glyph glyph-name="Ucircumflex" unicode="&#xdb;" horiz-adv-x="1572" 
d="M457 1571c-13.333 0 -21.833 3.66699 -25.5 11s-1.5 16 6.5 26l213 256c10.667 12 23 18 37 18h197c13.333 0 25.666 -6 36.999 -18l213 -256c8 -9.33301 10.333 -17.833 7 -25.5s-12 -11.5 -26 -11.5h-162c-15.333 0 -27.333 5.33301 -36 16l-132 146l-131 -146
c-9.33301 -10.667 -21.666 -16 -36.999 -16h-161zM786.5 -31c-195 0 -352.667 59.833 -473 179.5s-180.5 276.167 -180.5 469.5v785c0 20.667 10.333 31 31 31h198c20.667 0 31 -10.333 31 -31v-785c0 -125.333 36.167 -226.5 108.5 -303.5s167.333 -115.5 285 -115.5
s212.667 38.5 285 115.5s108.5 178.167 108.5 303.5v785c0 20.667 10 31 30 31h199c20.667 0 31 -10.333 31 -31v-785c0 -194 -60.167 -350.667 -180.5 -470s-278 -179 -473 -179z" />
    <glyph glyph-name="Udieresis" unicode="&#xdc;" horiz-adv-x="1572" 
d="M561.5 1587c-43.667 0 -81.332 14.333 -112.999 43s-47.5 62.834 -47.5 102.501s15.833 73.5 47.5 101.5s69.167 42 112.5 42c42 0 78.833 -14 110.5 -42s47.5 -61.833 47.5 -101.5s-15.333 -73.834 -46 -102.501s-67.834 -43 -111.501 -43zM1013.5 1587
c-43.667 0 -81.166 14.333 -112.499 43s-47 62.834 -47 102.501s15.667 73.5 47 101.5s69 42 113 42c42 0 78.667 -14 110 -42s47 -61.833 47 -101.5s-15.333 -73.834 -46 -102.501s-67.834 -43 -111.501 -43zM786.503 -31c-195 0 -352.667 59.833 -473 179.5
s-180.5 276.167 -180.5 469.5v785c0 20.667 10.333 31 31 31h198c20.667 0 31 -10.333 31 -31v-785c0 -125.333 36.167 -226.5 108.5 -303.5s167.333 -115.5 285 -115.5s212.667 38.5 285 115.5s108.5 178.167 108.5 303.5v785c0 20.667 10 31 30 31h199
c20.667 0 31 -10.333 31 -31v-785c0 -194 -60.167 -350.667 -180.5 -470s-278 -179 -473 -179z" />
    <glyph glyph-name="Yacute" unicode="&#xdd;" horiz-adv-x="1456" 
d="M641 1579c-10.667 0 -18.499 3.83398 -23.499 11.501s-4.83301 16.167 0.5 25.5l136 252c8 15.333 20.333 22.666 37 21.999h208c27.333 0 33.666 -12.333 18.999 -37l-176 -256c-8 -12 -21 -18 -39 -18h-162zM627.001 0.000976562c-20.667 0 -30.999 10.333 -30.999 31
v438l-569 928c-6.66699 10.667 -8 19.5 -4 26.5s12 10.5 24 10.5h221c16.667 0 29 -7 37 -21l422 -702l424 702c8 13.333 20.333 20.333 37 21h221c12 0 20.167 -3.5 24.5 -10.5s3.16602 -15.833 -3.50098 -26.5l-570 -928v-438c0 -20.667 -10.333 -31 -31 -31h-202z" />
    <glyph glyph-name="Thorn" unicode="&#xde;" 
d="M184 0c-20.667 0 -30.667 10.332 -30 30.999v1372c0 20.667 10 31 30 31h199c20.667 0 31 -10.333 31 -31v-193h315c165.333 0 300.5 -45 405.5 -135s157.5 -205.333 157.5 -346c0 -147.333 -54.5 -268.166 -163.5 -362.499s-248.833 -141.5 -419.5 -141.5h-295v-194
c0 -20.667 -10.333 -31 -31 -31h-199zM414 450.999h286c96.667 0 176.5 25.833 239.5 77.5s94.5 118.5 94.5 200.5c0 75.333 -31.333 136.5 -94 183.5s-142.667 70.5 -240 70.5h-286v-532z" />
    <glyph glyph-name="germandbls" unicode="&#xdf;" horiz-adv-x="1396" 
d="M936 467c130 -13.333 229.001 -56.999 297.001 -130.999s102 -165.667 102 -275c0 -136.667 -49.167 -246.834 -147.5 -330.501s-228.5 -125.5 -390.5 -125.5c-118.667 0 -233.334 16.333 -344.001 49c-16.667 6.66699 -25 18.334 -25 35.001v151
c0 23.333 11.667 31.666 35 24.999c104 -34 214 -51 330 -51c90 0 162.667 21.833 218 65.5s83 101.5 83 173.5c0 64 -24.333 115.5 -73 154.5s-112.667 58.5 -192 58.5h-211c-20.667 0 -30.667 10.333 -30 31v63c0 16.667 4.66699 29.667 14 39l309 367h-528v-735
c0 -20.667 -10.333 -31 -31 -31h-188c-20.667 -0 -31 10.333 -31 31v1093c0 121.333 37.5 220.333 112.5 297s175.5 118.334 301.5 125.001c20.667 0 31 -10 31 -30v-170c0 -20.667 -10.333 -31.667 -31 -33c-49.333 -6.66699 -89 -26.834 -119 -60.501
s-45 -76.5 -45 -128.5v-141h842c20.667 0 30.667 -10.333 30 -31v-94c0 -16.667 -4.66699 -29.667 -14 -39z" />
    <glyph glyph-name="agrave" unicode="&#xe0;" horiz-adv-x="1435" 
d="M535 1176l-176.999 256c-15.333 24.667 -9 36.667 19 36h209c16.667 0 29 -7.33301 37 -22l135 -252c5.33301 -9.33301 5.66602 -17.833 0.999023 -25.5s-12.667 -11.5 -24 -11.5h-162c-17.333 0.666992 -30 7 -38 19zM1374 31
c1.33301 -18 -6.66406 -30.333 -23.9971 -37c-50.667 -16.667 -97.334 -25 -140.001 -25c-117.333 0 -196.333 42.333 -237 127c-96.667 -84.667 -209.334 -127 -338.001 -127c-158.667 0 -288.834 48.833 -390.501 146.5s-152.5 223 -152.5 376s50.833 278.333 152.5 376
s231.834 146.5 390.501 146.5c109.333 0 205.666 -30 288.999 -90v28c0 20.667 10 31 30 31h189c20.667 0 31 -10.333 31 -31v-688c0 -23.333 6.33301 -41.833 19 -55.5s30 -20.5 52 -20.5s47.333 3 76 9c22 4 34.333 -4.33301 37 -25zM637.004 174
c84.667 0 153.667 29.667 207 89s80 135.5 80 228.5s-26.667 169.167 -80 228.5s-122.333 89 -207 89c-86 0 -156.667 -29.667 -212 -89s-83 -135.5 -83 -228.5s27.667 -169.167 83 -228.5s126 -89 212 -89z" />
    <glyph glyph-name="aacute" unicode="&#xe1;" horiz-adv-x="1435" 
d="M559 1157c-10.667 0 -18.5 3.83398 -23.5 11.501s-4.5 16.167 1.5 25.5l135 252c8 15.333 20.333 22.666 37 21.999h209c27.333 0 33.333 -12 18 -36l-176 -256c-8 -12 -21 -18.333 -39 -19h-162zM1374 31.001c1.33301 -18 -6.66406 -30.333 -23.9971 -37
c-50.667 -16.667 -97.334 -25 -140.001 -25c-117.333 0 -196.333 42.333 -237 127c-96.667 -84.667 -209.334 -127 -338.001 -127c-158.667 0 -288.834 48.833 -390.501 146.5s-152.5 223 -152.5 376s50.833 278.333 152.5 376s231.834 146.5 390.501 146.5
c109.333 0 205.666 -30 288.999 -90v28c0 20.667 10 31 30 31h189c20.667 0 31 -10.333 31 -31v-688c0 -23.333 6.33301 -41.833 19 -55.5s30 -20.5 52 -20.5s47.333 3 76 9c22 4 34.333 -4.33301 37 -25zM637.003 174.001c84.667 0 153.667 29.667 207 89
s80 135.5 80 228.5s-26.667 169.167 -80 228.5s-122.333 89 -207 89c-86 0 -156.667 -29.667 -212 -89s-83 -135.5 -83 -228.5s27.667 -169.167 83 -228.5s126 -89 212 -89z" />
    <glyph glyph-name="acircumflex" unicode="&#xe2;" horiz-adv-x="1435" 
d="M317 1139c-13.333 0 -21.6689 3.33301 -25.002 10s-1 15.667 7 27l213 256c10.667 12 23 18 37 18h196c13.333 0 25.666 -6 36.999 -18l213 -256c8 -10.667 10.333 -19.5 7 -26.5s-11.666 -10.5 -24.999 -10.5h-162c-15.333 0 -27.666 5.33301 -36.999 16l-131 145
l-131 -145c-9.33301 -10.667 -21.666 -16 -36.999 -16h-162zM1374 31c1.33301 -18 -6.66406 -30.333 -23.9971 -37c-50.667 -16.667 -97.334 -25 -140.001 -25c-117.333 0 -196.333 42.333 -237 127c-96.667 -84.667 -209.334 -127 -338.001 -127
c-158.667 0 -288.834 48.833 -390.501 146.5s-152.5 223 -152.5 376s50.833 278.333 152.5 376s231.834 146.5 390.501 146.5c109.333 0 205.666 -30 288.999 -90v28c0 20.667 10 31 30 31h189c20.667 0 31 -10.333 31 -31v-688c0 -23.333 6.33301 -41.833 19 -55.5
s30 -20.5 52 -20.5s47.333 3 76 9c22 4 34.333 -4.33301 37 -25zM637 174c84.667 0 153.667 29.667 207 89s80 135.5 80 228.5s-26.667 169.167 -80 228.5s-122.333 89 -207 89c-86 0 -156.667 -29.667 -212 -89s-83 -135.5 -83 -228.5s27.667 -169.167 83 -228.5
s126 -89 212 -89z" />
    <glyph glyph-name="atilde" unicode="&#xe3;" horiz-adv-x="1435" 
d="M291 1196c-22 0 -31.667 10.334 -29 31.001c6.66699 69.333 31.167 124.833 73.5 166.5s96.5 62.5 162.5 62.5c53.333 0 109 -17.333 167 -52s95.667 -52 113 -52c24.667 0 41 13 49 39c6.66699 19.333 17.667 28.666 33 27.999h141c20.667 0 30.334 -10 29.001 -30
c-6.66699 -69.333 -31.5 -125 -74.5 -167s-97.167 -63 -162.5 -63c-52 0 -107.333 17.5 -166 52.5s-96.334 52.5 -113.001 52.5c-24.667 0 -41 -13 -49 -39c-6.66699 -19.333 -17.667 -29 -33 -29h-141zM1374 31.001c1.33301 -18 -6.66406 -30.333 -23.9971 -37
c-50.667 -16.667 -97.334 -25 -140.001 -25c-117.333 0 -196.333 42.333 -237 127c-96.667 -84.667 -209.334 -127 -338.001 -127c-158.667 0 -288.834 48.833 -390.501 146.5s-152.5 223 -152.5 376s50.833 278.333 152.5 376s231.834 146.5 390.501 146.5
c109.333 0 205.666 -30 288.999 -90v28c0 20.667 10 31 30 31h189c20.667 0 31 -10.333 31 -31v-688c0 -23.333 6.33301 -41.833 19 -55.5s30 -20.5 52 -20.5s47.333 3 76 9c22 4 34.333 -4.33301 37 -25zM637.003 174.001c84.667 0 153.667 29.667 207 89
s80 135.5 80 228.5s-26.667 169.167 -80 228.5s-122.333 89 -207 89c-86 0 -156.667 -29.667 -212 -89s-83 -135.5 -83 -228.5s27.667 -169.167 83 -228.5s126 -89 212 -89z" />
    <glyph glyph-name="adieresis" unicode="&#xe4;" horiz-adv-x="1435" 
d="M421.5 1161c-43.667 0 -81.167 14.333 -112.5 43s-47 62.834 -47 102.501s15.667 73.5 47 101.5s69 42 113 42c42 0 78.833 -14 110.5 -42s47.5 -61.833 47.5 -101.5s-15.5 -73.834 -46.5 -102.501s-68.333 -43 -112 -43zM874.5 1161
c-43.667 0 -81.165 14.333 -112.498 43s-47 62.834 -47 102.501s15.667 73.5 47 101.5s68.666 42 111.999 42c42 0 78.833 -14 110.5 -42s47.5 -61.833 47.5 -101.5s-15.333 -73.834 -46 -102.501s-67.834 -43 -111.501 -43zM1374 31
c1.33301 -18 -6.66406 -30.333 -23.9971 -37c-50.667 -16.667 -97.334 -25 -140.001 -25c-117.333 0 -196.333 42.333 -237 127c-96.667 -84.667 -209.334 -127 -338.001 -127c-158.667 0 -288.834 48.833 -390.501 146.5s-152.5 223 -152.5 376s50.833 278.333 152.5 376
s231.834 146.5 390.501 146.5c109.333 0 205.666 -30 288.999 -90v28c0 20.667 10 31 30 31h189c20.667 0 31 -10.333 31 -31v-688c0 -23.333 6.33301 -41.833 19 -55.5s30 -20.5 52 -20.5s47.333 3 76 9c22 4 34.333 -4.33301 37 -25zM637.005 174
c84.667 0 153.667 29.667 207 89s80 135.5 80 228.5s-26.667 169.167 -80 228.5s-122.333 89 -207 89c-86 0 -156.667 -29.667 -212 -89s-83 -135.5 -83 -228.5s27.667 -169.167 83 -228.5s126 -89 212 -89z" />
    <glyph glyph-name="aring" unicode="&#xe5;" horiz-adv-x="1435" 
d="M649.5 1124c-72.333 0 -131 19.833 -176 59.5s-67.5 91.667 -67.5 156s22.5 116.166 67.5 155.499s103.667 59 176 59s130.333 -19.667 174 -59s65.5 -91.166 65.5 -155.499s-21.833 -116.333 -65.5 -156s-101.667 -59.5 -174 -59.5zM647 1436
c-28.667 0 -52.5 -9 -71.5 -27s-28.5 -41.333 -28.5 -70s9.5 -51.834 28.5 -69.501s42.833 -26.5 71.5 -26.5c30 0 54.333 8.83301 73 26.5s28 40.834 28 69.501s-9.33301 52 -28 70s-43 27 -73 27zM1374 31c1.33301 -18 -6.66406 -30.333 -23.9971 -37
c-50.667 -16.667 -97.334 -25 -140.001 -25c-117.333 0 -196.333 42.333 -237 127c-96.667 -84.667 -209.334 -127 -338.001 -127c-158.667 0 -288.834 48.833 -390.501 146.5s-152.5 223 -152.5 376s50.833 278.333 152.5 376s231.834 146.5 390.501 146.5
c109.333 0 205.666 -30 288.999 -90v28c0 20.667 10 31 30 31h189c20.667 0 31 -10.333 31 -31v-688c0 -23.333 6.33301 -41.833 19 -55.5s30 -20.5 52 -20.5s47.333 3 76 9c22 4 34.333 -4.33301 37 -25zM637.003 174c84.667 0 153.667 29.667 207 89s80 135.5 80 228.5
s-26.667 169.167 -80 228.5s-122.333 89 -207 89c-86 0 -156.667 -29.667 -212 -89s-83 -135.5 -83 -228.5s27.667 -169.167 83 -228.5s126 -89 212 -89z" />
    <glyph glyph-name="ae" unicode="&#xe6;" horiz-adv-x="1929" 
d="M502 -31c-130 0 -234.165 29 -312.498 87s-117.5 135 -117.5 231c0 87.333 33.333 155.833 100 205.5s159.667 74.5 279 74.5h344l2 27c0 68 -20.167 121.167 -60.5 159.5s-94.166 57.5 -161.499 57.5c-50.667 0 -94 -9.83301 -130 -29.5s-60 -47.5 -72 -83.5
c-5.33301 -18 -16.333 -26.667 -33 -26h-193c-10.667 0 -18.667 2.33301 -24 7s-7.33301 11 -6 19c15.333 95.333 64.5 171.833 147.5 229.5s186.5 86.5 310.5 86.5c78 0 149.167 -13 213.5 -39s114.166 -61 149.499 -105c95.333 95.333 223 143.333 383 144
c154 0 278.5 -47.167 373.5 -141.5s142.5 -218.5 142.5 -372.5l-4 -82c-1.33301 -18 -13 -27 -35 -27h-756c19.333 -68 55.666 -121.833 108.999 -161.5s116.666 -59.5 189.999 -59.5c82 0 147 24 195 72c12 12 25 18 39 18h203c10.667 0 18.667 -3.33301 24 -10
s5.33301 -15 0 -25c-38 -76.667 -98.667 -138.5 -182 -185.5s-178.333 -70.5 -285 -70.5c-172 0 -308.333 52.667 -409 158c-136.667 -105.333 -278 -158 -424 -158zM1036 567l547.002 -0.000976562c-2.66699 72.667 -26.834 131.834 -72.501 177.501
s-106.834 68.5 -183.501 68.5s-142 -22.5 -196 -67.5s-85.667 -104.5 -95 -178.5zM514.004 163.999c104 0 209.669 36.667 317.002 110c-16.667 38 -27.334 77 -32.001 117h-350c-40.667 0 -73.834 -8.83301 -99.501 -26.5s-38.5 -41.5 -38.5 -71.5
c0 -38 18.833 -69 56.5 -93s86.5 -36 146.5 -36z" />
    <glyph glyph-name="ccedilla" unicode="&#xe7;" horiz-adv-x="1224" 
d="M1106 354c22 0 30.998 -10.667 26.998 -32c-19.333 -95.333 -66.166 -173.833 -140.499 -235.5s-166.166 -99.5 -275.499 -113.5l-111 -295c-5.33301 -16.667 -17.666 -24.667 -36.999 -24h-151c-24.667 0 -33.667 11.667 -27 35l84 299
c-118.667 30 -212.167 89.333 -280.5 178s-102.5 197.334 -102.5 326.001c0 157.333 49.833 283.666 149.5 378.999s231.5 143 395.5 143c130 0 239.667 -32.167 329 -96.5s145 -149.5 167 -255.5c4 -22 -5 -33 -27 -33h-195c-16.667 0 -27.334 8.66699 -32.001 26
c-15.333 44 -44.833 79.333 -88.5 106s-94.834 40 -153.501 40c-88.667 0 -160 -28.333 -214 -85s-81 -131.5 -81 -224.5s27 -167.833 81 -224.5s125.333 -85 214 -85c58.667 0 109.834 13.333 153.501 40s73.167 62 88.5 106c5.33301 18 16 26.667 32 26h195z" />
    <glyph glyph-name="egrave" unicode="&#xe8;" horiz-adv-x="1230" 
d="M543 1157c-18 0 -30.998 6.33301 -38.998 19l-176 256c-15.333 24.667 -9.33301 36.667 18 36h209c18 0 30.333 -7.33301 37 -22l135 -252c5.33301 -9.33301 5.66602 -17.833 0.999023 -25.5s-12.334 -11.5 -23.001 -11.5h-162zM637.002 -31
c-162.667 0 -294.17 47.832 -394.503 143.499s-150.5 222 -150.5 379s48.833 283.333 146.5 379s225.834 143.5 384.501 143.5c154 0 278.5 -47.167 373.5 -141.5s142.5 -218.5 142.5 -372.5c0 -19.333 -1.33301 -46.666 -4 -81.999c-4 -18 -15.667 -27 -35 -27h-756
c19.333 -68 55.5 -121.833 108.5 -161.5s116.5 -59.5 190.5 -59.5c88.667 0 153.667 24 195 72c12 12 25 18 39 18h202c10.667 0 18.834 -3.33301 24.501 -10s5.83398 -15 0.500977 -25c-35.333 -78 -95 -140.167 -179 -186.5s-180 -69.5 -288 -69.5zM337.999 566.999
l547 -0.000976562c-2.66699 72.667 -27 131.834 -73 177.501s-107.167 68.5 -183.5 68.5s-141.5 -22.5 -195.5 -67.5s-85.667 -104.5 -95 -178.5z" />
    <glyph glyph-name="eacute" unicode="&#xe9;" horiz-adv-x="1230" 
d="M528 1157c-10.667 0 -18.332 3.83398 -22.999 11.501s-4.33398 16.167 0.999023 25.5l135 252c6.66699 15.333 19 22.666 37 21.999h209c27.333 0 33.333 -12 18 -36l-176 -256c-8 -12 -21 -18.333 -39 -19h-162zM637.002 -30.999
c-162.667 0 -294.17 47.832 -394.503 143.499s-150.5 222 -150.5 379s48.833 283.333 146.5 379s225.834 143.5 384.501 143.5c154 0 278.5 -47.167 373.5 -141.5s142.5 -218.5 142.5 -372.5c0 -19.333 -1.33301 -46.666 -4 -81.999c-4 -18 -15.667 -27 -35 -27h-756
c19.333 -68 55.5 -121.833 108.5 -161.5s116.5 -59.5 190.5 -59.5c88.667 0 153.667 24 195 72c12 12 25 18 39 18h202c10.667 0 18.834 -3.33301 24.501 -10s5.83398 -15 0.500977 -25c-35.333 -78 -95 -140.167 -179 -186.5s-180 -69.5 -288 -69.5zM337.999 567
l547 -0.000976562c-2.66699 72.667 -27 131.834 -73 177.501s-107.167 68.5 -183.5 68.5s-141.5 -22.5 -195.5 -67.5s-85.667 -104.5 -95 -178.5z" />
    <glyph glyph-name="ecircumflex" unicode="&#xea;" horiz-adv-x="1230" 
d="M287 1139c-13.333 0 -21.8311 3.33301 -25.498 10s-1.5 15.667 6.5 27l213 256c9.33301 12 21.666 18 36.999 18h197c15.333 0 27.666 -6 36.999 -18l213 -256c8 -10.667 10.333 -19.5 7 -26.5s-12 -10.5 -26 -10.5h-162c-15.333 0 -27.333 5.33301 -36 16l-132 145
l-131 -145c-9.33301 -10.667 -21.333 -16 -36 -16h-162zM637.002 -31c-162.667 0 -294.17 47.832 -394.503 143.499s-150.5 222 -150.5 379s48.833 283.333 146.5 379s225.834 143.5 384.501 143.5c154 0 278.5 -47.167 373.5 -141.5s142.5 -218.5 142.5 -372.5
c0 -19.333 -1.33301 -46.666 -4 -81.999c-4 -18 -15.667 -27 -35 -27h-756c19.333 -68 55.5 -121.833 108.5 -161.5s116.5 -59.5 190.5 -59.5c88.667 0 153.667 24 195 72c12 12 25 18 39 18h202c10.667 0 18.834 -3.33301 24.501 -10s5.83398 -15 0.500977 -25
c-35.333 -78 -95 -140.167 -179 -186.5s-180 -69.5 -288 -69.5zM337.999 566.999l547 -0.000976562c-2.66699 72.667 -27 131.834 -73 177.501s-107.167 68.5 -183.5 68.5s-141.5 -22.5 -195.5 -67.5s-85.667 -104.5 -95 -178.5z" />
    <glyph glyph-name="edieresis" unicode="&#xeb;" horiz-adv-x="1230" 
d="M391.5 1161c-43.667 0 -81.332 14.333 -112.999 43s-47.5 62.834 -47.5 102.501s15.833 73.5 47.5 101.5s69.167 42 112.5 42c42 0 78.833 -14 110.5 -42s47.5 -61.833 47.5 -101.5s-15.333 -73.834 -46 -102.501s-67.834 -43 -111.501 -43zM843.502 1161
c-43.667 0 -81.166 14.333 -112.499 43s-47 62.834 -47 102.501s15.667 73.5 47 101.5s69 42 113 42c42 0 78.667 -14 110 -42s47 -61.833 47 -101.5s-15.333 -73.834 -46 -102.501s-67.834 -43 -111.501 -43zM637.003 -31c-162.667 0 -294.17 47.832 -394.503 143.499
s-150.5 222 -150.5 379s48.833 283.333 146.5 379s225.834 143.5 384.501 143.5c154 0 278.5 -47.167 373.5 -141.5s142.5 -218.5 142.5 -372.5c0 -19.333 -1.33301 -46.666 -4 -81.999c-4 -18 -15.667 -27 -35 -27h-756c19.333 -68 55.5 -121.833 108.5 -161.5
s116.5 -59.5 190.5 -59.5c88.667 0 153.667 24 195 72c12 12 25 18 39 18h202c10.667 0 18.834 -3.33301 24.501 -10s5.83398 -15 0.500977 -25c-35.333 -78 -95 -140.167 -179 -186.5s-180 -69.5 -288 -69.5zM338 566.999l547 -0.000976562
c-2.66699 72.667 -27 131.834 -73 177.501s-107.167 68.5 -183.5 68.5s-141.5 -22.5 -195.5 -67.5s-85.667 -104.5 -95 -178.5z" />
    <glyph glyph-name="igrave" unicode="&#xec;" horiz-adv-x="536" 
d="M195 1157c-18 0 -30.999 6.33301 -38.999 19l-176 256c-15.333 24.667 -9.33301 36.667 18 36h209c18 0 30.333 -7.33301 37 -22l135 -252c5.33301 -9.33301 5.66602 -17.833 0.999023 -25.5s-12.667 -11.5 -24 -11.5h-161zM362.001 983c20.667 0 31 -10.333 31 -31v-921
c0 -20.667 -10.333 -31 -31 -31h-188c-20.667 -0 -31 10.333 -31 31v921c0 20.667 10.333 31 31 31h188z" />
    <glyph glyph-name="iacute" unicode="&#xed;" horiz-adv-x="536" 
d="M180 1157c-10.667 0 -18.332 3.83398 -22.999 11.501s-4.33398 16.167 0.999023 25.5l135 252c6.66699 15.333 19 22.666 37 21.999h209c27.333 0 33.333 -12 18 -36l-176 -256c-8 -12 -21 -18.333 -39 -19h-162zM362.002 983.001c20.667 0 31 -10.333 31 -31v-921
c0 -20.667 -10.333 -31 -31 -31h-188c-20.667 0 -31 10.333 -31 31v921c0 20.667 10.333 31 31 31h188z" />
    <glyph glyph-name="icircumflex" unicode="&#xee;" horiz-adv-x="536" 
d="M-61 1139c-13.333 0 -21.835 3.33301 -25.502 10s-1.5 15.667 6.5 27l213 256c9.33301 12 21.666 18 36.999 18h197c15.333 0 27.333 -6 36 -18l213 -256c8 -10.667 10.333 -19.5 7 -26.5s-11.666 -10.5 -24.999 -10.5h-162c-15.333 0 -27.666 5.33301 -36.999 16
l-131 145l-131 -145c-9.33301 -10.667 -21.666 -16 -36.999 -16h-161zM361.998 983c20.667 0 31 -10.333 31 -31v-921c0 -20.667 -10.333 -31 -31 -31h-188c-20.667 -0 -31 10.333 -31 31v921c0 20.667 10.333 31 31 31h188z" />
    <glyph glyph-name="idieresis" unicode="&#xef;" horiz-adv-x="536" 
d="M43 1161c-44 0 -81.667 14.333 -113 43s-47 62.834 -47 102.501s15.667 73.5 47 101.5s69 42 113 42c42 0 78.833 -14 110.5 -42s47.5 -61.833 47.5 -101.5s-15.333 -73.834 -46 -102.501s-68 -43 -112 -43zM495.5 1161c-43.667 0 -81.166 14.333 -112.499 43
s-47 62.834 -47 102.501s15.667 73.5 47 101.5s69 42 113 42c42 0 78.667 -14 110 -42s47 -61.833 47 -101.5s-15.333 -73.834 -46 -102.501s-67.834 -43 -111.501 -43zM362.001 983c20.667 0 31 -10.333 31 -31v-921c0 -20.667 -10.333 -31 -31 -31h-188
c-20.667 -0 -31 10.333 -31 31v921c0 20.667 10.333 31 31 31h188z" />
    <glyph glyph-name="eth" unicode="&#xf0;" horiz-adv-x="1265" 
d="M860 1223c101.333 -95.333 180.667 -204.164 238 -326.497s86 -249.166 86 -380.499c0 -164 -49.833 -296.167 -149.5 -396.5s-231.5 -150.5 -395.5 -150.5s-296.167 47.167 -396.5 141.5s-150.5 218.5 -150.5 372.5c0 152.667 50.167 275.5 150.5 368.5
s232.5 139.5 396.5 139.5c53.333 0 108.666 -11 165.999 -33c-57.333 68 -118 129 -182 183l-291 -101c-19.333 -6.66699 -32.333 -0.333984 -39 18.999l-41 98c-8 19.333 -2 32.333 18 39l179 61c-62.667 32.667 -122.334 60.667 -179.001 84
c-13.333 5.33301 -19.666 12.166 -18.999 20.499s7 15.166 19 20.499l183 74c13.333 5.33301 27 5.33301 41 0c78 -32.667 148.333 -69.334 211 -110.001l180 61c20.667 6.66699 34.334 0.666992 41.001 -18l39 -99c8 -19.333 1.66699 -32.333 -19 -39zM639.001 184.002
c88.667 0 160 27.333 214 82s81 127 81 217c0 87.333 -27 158 -81 212s-125.333 81 -214 81s-160.334 -27 -215.001 -81s-82 -124.667 -82 -212c0 -90 27.333 -162.333 82 -217s126.334 -82 215.001 -82z" />
    <glyph glyph-name="ntilde" unicode="&#xf1;" horiz-adv-x="1382" 
d="M406 1196c-22 0 -31.667 10.334 -29 31.001c6.66699 69.333 31.167 124.833 73.5 166.5s96.166 62.5 161.499 62.5c53.333 0 109 -17.333 167 -52s96 -52 114 -52c24.667 0 41 13 49 39c6.66699 19.333 17.667 28.666 33 27.999h141c20.667 0 30.334 -10 29.001 -30
c-6.66699 -69.333 -31.5 -125 -74.5 -167s-97.5 -63 -163.5 -63c-52 0 -107.333 17.5 -166 52.5s-96 52.5 -112 52.5c-24.667 0 -41 -13 -49 -39c-6.66699 -19.333 -17.667 -29 -33 -29h-141zM811 1014c134 0 242.332 -42.665 324.999 -127.998s124 -197.666 124 -336.999
v-518c0 -20.667 -10.333 -31 -31 -31h-189c-20.667 0 -30.667 10.333 -30 31v504c0 79.333 -23.333 143.166 -70 191.499s-107.334 72.5 -182.001 72.5c-79.333 0 -143.5 -22.833 -192.5 -68.5s-73.5 -106.167 -73.5 -181.5v-518c0 -20.667 -10.333 -31 -31 -31h-189
c-20.667 0 -30.667 10.333 -30 31v688c0 50.667 -28.667 76 -86 76c-9.33301 0 -28.666 -2.33301 -57.999 -7c-24.667 -2.66699 -37 5.66602 -37 24.999v143c0 19.333 8.33301 31.666 25 36.999c36.667 13.333 78.334 20.333 125.001 21c113.333 0 191 -43 233 -129
c90.667 86 213 129 367 129z" />
    <glyph glyph-name="ograve" unicode="&#xf2;" horiz-adv-x="1277" 
d="M565 1157c-18 0 -31 6.33301 -39 19l-176 256c-15.333 24.667 -9 36.667 19 36h209c16.667 0 28.667 -7.33301 36 -22l136 -252c5.33301 -9.33301 5.5 -17.833 0.5 -25.5s-12.833 -11.5 -23.5 -11.5h-162zM639 -31c-164 0 -296.167 47.833 -396.5 143.5
s-150.5 222 -150.5 379s50.167 283.333 150.5 379s232.5 143.5 396.5 143.5s296.167 -47.833 396.5 -143.5s150.5 -222 150.5 -379s-50.167 -283.333 -150.5 -379s-232.5 -143.5 -396.5 -143.5zM639 184c88.667 0 160.334 28 215.001 84s82 130.5 82 223.5
s-27.333 167.5 -82 223.5s-126.334 84 -215.001 84s-160.334 -28 -215.001 -84s-82 -130.5 -82 -223.5s27.333 -167.5 82 -223.5s126.334 -84 215.001 -84z" />
    <glyph glyph-name="oacute" unicode="&#xf3;" horiz-adv-x="1277" 
d="M551 1157c-10.667 0 -18.499 3.83398 -23.499 11.501s-4.83301 16.167 0.5 25.5l136 252c8 15.333 20 22.666 36 21.999h209c27.333 0 33.666 -12 18.999 -36l-176 -256c-8 -12 -21 -18.333 -39 -19h-162zM639.001 -30.999c-164 0 -296.167 47.833 -396.5 143.5
s-150.5 222 -150.5 379s50.167 283.333 150.5 379s232.5 143.5 396.5 143.5s296.167 -47.833 396.5 -143.5s150.5 -222 150.5 -379s-50.167 -283.333 -150.5 -379s-232.5 -143.5 -396.5 -143.5zM639.001 184.001c88.667 0 160.334 28 215.001 84s82 130.5 82 223.5
s-27.333 167.5 -82 223.5s-126.334 84 -215.001 84s-160.334 -28 -215.001 -84s-82 -130.5 -82 -223.5s27.333 -167.5 82 -223.5s126.334 -84 215.001 -84z" />
    <glyph glyph-name="ocircumflex" unicode="&#xf4;" horiz-adv-x="1277" 
d="M309 1139c-13.333 0 -21.6689 3.33301 -25.002 10s-1 15.667 7 27l213 256c10.667 12 23 18 37 18h196c13.333 0 25.666 -6 36.999 -18l213 -256c8 -10.667 10.333 -19.5 7 -26.5s-11.666 -10.5 -24.999 -10.5h-162c-15.333 0 -27.666 5.33301 -36.999 16l-131 145
l-131 -145c-9.33301 -10.667 -21.666 -16 -36.999 -16h-162zM638.997 -31c-164 0 -296.167 47.833 -396.5 143.5s-150.5 222 -150.5 379s50.167 283.333 150.5 379s232.5 143.5 396.5 143.5s296.167 -47.833 396.5 -143.5s150.5 -222 150.5 -379
s-50.167 -283.333 -150.5 -379s-232.5 -143.5 -396.5 -143.5zM638.997 184c88.667 0 160.334 28 215.001 84s82 130.5 82 223.5s-27.333 167.5 -82 223.5s-126.334 84 -215.001 84s-160.334 -28 -215.001 -84s-82 -130.5 -82 -223.5s27.333 -167.5 82 -223.5
s126.334 -84 215.001 -84z" />
    <glyph glyph-name="otilde" unicode="&#xf5;" horiz-adv-x="1277" 
d="M784 1159c-52 0 -107.334 17.501 -166.001 52.501s-96 52.5 -112 52.5c-24.667 0 -41 -13 -49 -39c-6.66699 -19.333 -17.667 -29 -33 -29h-141c-22 0 -31.667 10.333 -29 31c6.66699 69.333 31.167 124.833 73.5 166.5s96.166 62.5 161.499 62.5
c53.333 0 109 -17.333 167 -52s96 -52 114 -52c24.667 0 41 13 49 39c6.66699 19.333 17.667 28.666 33 27.999h141c20.667 0 30.334 -10 29.001 -30c-6.66699 -69.333 -31.667 -125 -75 -167s-97.666 -63 -162.999 -63zM638.999 -30.999
c-164 0 -296.167 47.833 -396.5 143.5s-150.5 222 -150.5 379s50.167 283.333 150.5 379s232.5 143.5 396.5 143.5s296.167 -47.833 396.5 -143.5s150.5 -222 150.5 -379s-50.167 -283.333 -150.5 -379s-232.5 -143.5 -396.5 -143.5zM638.999 184.001
c88.667 0 160.334 28 215.001 84s82 130.5 82 223.5s-27.333 167.5 -82 223.5s-126.334 84 -215.001 84s-160.334 -28 -215.001 -84s-82 -130.5 -82 -223.5s27.333 -167.5 82 -223.5s126.334 -84 215.001 -84z" />
    <glyph glyph-name="odieresis" unicode="&#xf6;" horiz-adv-x="1277" 
d="M413.5 1161c-43.667 0 -81.166 14.333 -112.499 43s-47 62.834 -47 102.501s15.667 73.5 47 101.5s69 42 113 42c42 0 78.667 -14 110 -42s47 -61.833 47 -101.5s-15.333 -73.834 -46 -102.501s-67.834 -43 -111.501 -43zM866.501 1161
c-43.667 0 -81.165 14.333 -112.498 43s-47 62.834 -47 102.501s15.667 73.5 47 101.5s68.666 42 111.999 42c42 0 78.833 -14 110.5 -42s47.5 -61.833 47.5 -101.5s-15.333 -73.834 -46 -102.501s-67.834 -43 -111.501 -43zM639.003 -31
c-164 0 -296.167 47.833 -396.5 143.5s-150.5 222 -150.5 379s50.167 283.333 150.5 379s232.5 143.5 396.5 143.5s296.167 -47.833 396.5 -143.5s150.5 -222 150.5 -379s-50.167 -283.333 -150.5 -379s-232.5 -143.5 -396.5 -143.5zM639.003 184
c88.667 0 160.334 28 215.001 84s82 130.5 82 223.5s-27.333 167.5 -82 223.5s-126.334 84 -215.001 84s-160.334 -28 -215.001 -84s-82 -130.5 -82 -223.5s27.333 -167.5 82 -223.5s126.334 -84 215.001 -84z" />
    <glyph glyph-name="divide" unicode="&#xf7;" horiz-adv-x="1466" 
d="M735 934c-42 0 -77.667 13 -107 39s-44 58 -44 96s14.667 70 44 96s65 39 107 39c40.667 0 75.834 -13 105.501 -39s44.5 -58 44.5 -96s-14.833 -70 -44.5 -96s-64.834 -39 -105.501 -39zM246 567c-20.667 0 -31 10.333 -31 31v156c0 20.667 10.333 30.667 31 30h975
c20.667 0 30.667 -10 30 -30v-156c0 -20.667 -10 -31 -30 -31h-975zM737 158c-44 0 -80.499 13 -109.499 39s-43.5 58 -43.5 96s14.667 70 44 96s65.666 39 108.999 39c39.333 0 73.833 -13 103.5 -39s44.5 -58 44.5 -96s-14.833 -70 -44.5 -96s-64.167 -39 -103.5 -39z" />
    <glyph glyph-name="oslash" unicode="&#xf8;" horiz-adv-x="1277" 
d="M1063 840c82 -90 123.001 -205.998 123.001 -347.998c0 -157.333 -50.167 -283.833 -150.5 -379.5s-232.5 -143.5 -396.5 -143.5c-110.667 0 -208.334 23.333 -293.001 70l-57 -64c-13.333 -16.667 -27.666 -18 -42.999 -4l-84 64c-18 13.333 -19.333 28.333 -4 45l55 63
c-80.667 91.333 -121 207.666 -121 348.999c0 157.333 50.167 283.666 150.5 378.999s232.5 143 396.5 143c109.333 0 207 -22.667 293 -68l55 62c13.333 16.667 27.666 18 42.999 4l86 -66c16.667 -12 18 -26.333 4 -43zM342.001 492.002
c0 -60 13.001 -114.667 39.001 -164l393 442c-40.667 19.333 -85.667 29 -135 29c-88.667 0 -160.334 -28 -215.001 -84s-82 -130.333 -82 -223zM639.002 184.002c88.667 0 160.333 28 215 84s82 130.667 82 224c0 60 -13 114.333 -39 163l-395 -442
c42 -19.333 87.667 -29 137 -29z" />
    <glyph glyph-name="ugrave" unicode="&#xf9;" horiz-adv-x="1402" 
d="M520 1176l-175.998 256c-15.333 24.667 -9.33301 36.667 18 36h209c18 0 30.333 -7.33301 37 -22l135 -252c5.33301 -9.33301 5.66602 -17.833 0.999023 -25.5s-12.334 -11.5 -23.001 -11.5h-162c-18 0.666992 -31 7 -39 19zM1341 31
c1.33301 -18 -6.66602 -30.332 -23.999 -36.999c-50.667 -16.667 -97 -25 -139 -25c-121.333 0 -206 38.333 -254 115c-88.667 -76.667 -206.334 -115 -353.001 -115c-134 0 -242.167 42.667 -324.5 128s-123.5 197.666 -123.5 336.999v518c0 20.667 10.333 31 31 31h188
c20.667 0 31 -10.333 31 -31v-503c0 -79.333 23.167 -143.333 69.5 -192s107.166 -73 182.499 -73c79.333 0 143.5 23 192.5 69s73.5 106.333 73.5 181v518c0 20.667 10.333 31 31 31h188c20.667 0 31 -10.333 31 -31v-688c0 -23.333 6.5 -41.833 19.5 -55.5
s30.333 -20.5 52 -20.5s46.834 3 75.501 9c22 4 34.333 -4.33301 37 -25z" />
    <glyph glyph-name="uacute" unicode="&#xfa;" horiz-adv-x="1402" 
d="M545 1157c-10.667 0 -18.499 3.83398 -23.499 11.501s-4.83301 16.167 0.5 25.5l135 252c6.66699 15.333 19 22.666 37 21.999h209c27.333 0 33.666 -12 18.999 -36l-177 -256c-8 -12 -20.667 -18.333 -38 -19h-162zM1341 31.001
c1.33301 -18 -6.66602 -30.332 -23.999 -36.999c-50.667 -16.667 -97 -25 -139 -25c-121.333 0 -206 38.333 -254 115c-88.667 -76.667 -206.334 -115 -353.001 -115c-134 0 -242.167 42.667 -324.5 128s-123.5 197.666 -123.5 336.999v518c0 20.667 10.333 31 31 31h188
c20.667 0 31 -10.333 31 -31v-503c0 -79.333 23.167 -143.333 69.5 -192s107.166 -73 182.499 -73c79.333 0 143.5 23 192.5 69s73.5 106.333 73.5 181v518c0 20.667 10.333 31 31 31h188c20.667 0 31 -10.333 31 -31v-688c0 -23.333 6.5 -41.833 19.5 -55.5
s30.333 -20.5 52 -20.5s46.834 3 75.501 9c22 4 34.333 -4.33301 37 -25z" />
    <glyph glyph-name="ucircumflex" unicode="&#xfb;" horiz-adv-x="1402" 
d="M303 1139c-13.333 0 -21.834 3.33301 -25.501 10s-1.16699 15.667 7.5 27l213 256c9.33301 12 21.666 18 36.999 18h196c15.333 0 27.666 -6 36.999 -18l213 -256c8 -10.667 10.333 -19.5 7 -26.5s-11.666 -10.5 -24.999 -10.5h-162
c-15.333 0 -27.666 5.33301 -36.999 16l-131 145l-131 -145c-9.33301 -10.667 -21.666 -16 -36.999 -16h-162zM1341 31c1.33301 -18 -6.66602 -30.332 -23.999 -36.999c-50.667 -16.667 -97 -25 -139 -25c-121.333 0 -206 38.333 -254 115
c-88.667 -76.667 -206.334 -115 -353.001 -115c-134 0 -242.167 42.667 -324.5 128s-123.5 197.666 -123.5 336.999v518c0 20.667 10.333 31 31 31h188c20.667 0 31 -10.333 31 -31v-503c0 -79.333 23.167 -143.333 69.5 -192s107.166 -73 182.499 -73
c79.333 0 143.5 23 192.5 69s73.5 106.333 73.5 181v518c0 20.667 10.333 31 31 31h188c20.667 0 31 -10.333 31 -31v-688c0 -23.333 6.5 -41.833 19.5 -55.5s30.333 -20.5 52 -20.5s46.834 3 75.501 9c22 4 34.333 -4.33301 37 -25z" />
    <glyph glyph-name="udieresis" unicode="&#xfc;" horiz-adv-x="1402" 
d="M407.5 1161c-43.667 0 -81.166 14.333 -112.499 43s-47 62.834 -47 102.501s15.667 73.5 47 101.5s69 42 113 42c42 0 78.667 -14 110 -42s47 -61.833 47 -101.5s-15.333 -73.834 -46 -102.501s-67.834 -43 -111.501 -43zM860.501 1161
c-43.667 0 -81.332 14.333 -112.999 43s-47.5 62.834 -47.5 102.501s15.833 73.5 47.5 101.5s69.167 42 112.5 42c42 0 78.833 -14 110.5 -42s47.5 -61.833 47.5 -101.5s-15.333 -73.834 -46 -102.501s-67.834 -43 -111.501 -43zM1341 31
c1.33301 -18 -6.66602 -30.332 -23.999 -36.999c-50.667 -16.667 -97 -25 -139 -25c-121.333 0 -206 38.333 -254 115c-88.667 -76.667 -206.334 -115 -353.001 -115c-134 0 -242.167 42.667 -324.5 128s-123.5 197.666 -123.5 336.999v518c0 20.667 10.333 31 31 31h188
c20.667 0 31 -10.333 31 -31v-503c0 -79.333 23.167 -143.333 69.5 -192s107.166 -73 182.499 -73c79.333 0 143.5 23 192.5 69s73.5 106.333 73.5 181v518c0 20.667 10.333 31 31 31h188c20.667 0 31 -10.333 31 -31v-688c0 -23.333 6.5 -41.833 19.5 -55.5
s30.333 -20.5 52 -20.5s46.834 3 75.501 9c22 4 34.333 -4.33301 37 -25z" />
    <glyph glyph-name="yacute" unicode="&#xfd;" horiz-adv-x="1323" 
d="M573 1157c-10.667 0 -18.332 3.83398 -22.999 11.501s-4.33398 16.167 0.999023 25.5l135 252c6.66699 15.333 19 22.666 37 21.999h209c27.333 0 33.333 -12 18 -36l-176 -256c-8 -12 -21 -18.333 -39 -19h-162zM1235 983.001c26 0 33.335 -12.333 22.002 -37
l-530 -1163c-87.333 -190 -227.333 -285 -420 -285c-88.667 0 -165 11 -229 33c-19.333 6.66699 -27 18.334 -23 35.001l25 145c5.33301 23.333 17.666 32.333 36.999 27c52 -15.333 106.667 -23 164 -23c101.333 0 173.666 46 216.999 138l53 116l-496 977
c-10.667 24.667 -3 37 23 37h205c15.333 0 26.666 -7.33301 33.999 -22l359 -715l323 715c6.66699 15.333 18.334 22.666 35.001 21.999h201z" />
    <glyph glyph-name="thorn" unicode="&#xfe;" horiz-adv-x="1316" 
d="M174 -471c-20.667 0 -31 10.333 -31 31v1925c0 20.667 10.333 31 31 31h191c20.667 0 30.667 -10.333 30 -31v-559c84.667 58.667 180.334 88 287.001 88c158.667 0 288.834 -48.833 390.501 -146.5s152.5 -223 152.5 -376s-50.833 -278.333 -152.5 -376
s-231.834 -146.5 -390.501 -146.5c-106.667 0 -202.334 29.333 -287.001 88v-497c0 -20.667 -10 -31 -30 -31h-191zM680 174c86 0 156.667 29.667 212 89s83 135.5 83 228.5s-27.667 169.167 -83 228.5s-126 89 -212 89c-84.667 0 -153.667 -29.667 -207 -89
s-80 -135.5 -80 -228.5s26.667 -169.167 80 -228.5s122.333 -89 207 -89z" />
    <glyph glyph-name="ydieresis" unicode="&#xff;" horiz-adv-x="1323" 
d="M436.5 1161c-43.667 0 -81.332 14.333 -112.999 43s-47.5 62.834 -47.5 102.501s15.833 73.5 47.5 101.5s69.167 42 112.5 42c42 0 78.833 -14 110.5 -42s47.5 -61.833 47.5 -101.5s-15.333 -73.834 -46 -102.501s-67.834 -43 -111.501 -43zM888.502 1161
c-43.667 0 -81.167 14.333 -112.5 43s-47 62.834 -47 102.501s15.667 73.5 47 101.5s69 42 113 42c42 0 78.833 -14 110.5 -42s47.5 -61.833 47.5 -101.5s-15.5 -73.834 -46.5 -102.501s-68.333 -43 -112 -43zM1235 983c26 0 33.335 -12.333 22.002 -37l-530 -1163
c-87.333 -190 -227.333 -285 -420 -285c-88.667 0 -165 11 -229 33c-19.333 6.66699 -27 18.334 -23 35.001l25 145c5.33301 23.333 17.666 32.333 36.999 27c52 -15.333 106.667 -23 164 -23c101.333 0 173.666 46 216.999 138l53 116l-496 977c-10.667 24.667 -3 37 23 37
h205c15.333 0 26.666 -7.33301 33.999 -22l359 -715l323 715c6.66699 15.333 18.334 22.666 35.001 21.999h201z" />
    <glyph glyph-name="Amacron" unicode="&#x100;" horiz-adv-x="1595" 
d="M524 1595c-20.667 0 -30.667 10.333 -30 31v133c0 20.667 10 31 30 31h547c20.667 0 31 -10.333 31 -31v-133c0 -20.667 -10.333 -31 -31 -31h-547zM68 0c-26 0 -33.6689 12.333 -23.002 37l623 1374c6.66699 15.333 18 23 34 23h195c18 0 29.667 -7.66699 35 -23
l618 -1374c10.667 -24.667 3.33398 -37 -21.999 -37h-213c-18 0 -29.667 7.66699 -35 23l-133 309h-694l-134 -309c-5.33301 -15.333 -16.666 -23 -33.999 -23h-217zM550.998 559h498l-250 576z" />
    <glyph glyph-name="amacron" unicode="&#x101;" horiz-adv-x="1435" 
d="M373 1196c-20.667 0 -31 10.333 -31 31v133c0 20.667 10.333 31 31 31h547c20.667 0 30.667 -10.333 30 -31v-133c0 -20.667 -10 -31 -30 -31h-547zM1374 31c1.33301 -18 -6.66406 -30.333 -23.9971 -37c-50.667 -16.667 -97.334 -25 -140.001 -25
c-117.333 0 -196.333 42.333 -237 127c-96.667 -84.667 -209.334 -127 -338.001 -127c-158.667 0 -288.834 48.833 -390.501 146.5s-152.5 223 -152.5 376s50.833 278.333 152.5 376s231.834 146.5 390.501 146.5c109.333 0 205.666 -30 288.999 -90v28
c0 20.667 10 31 30 31h189c20.667 0 31 -10.333 31 -31v-688c0 -23.333 6.33301 -41.833 19 -55.5s30 -20.5 52 -20.5s47.333 3 76 9c22 4 34.333 -4.33301 37 -25zM637.003 174c84.667 0 153.667 29.667 207 89s80 135.5 80 228.5s-26.667 169.167 -80 228.5
s-122.333 89 -207 89c-86 0 -156.667 -29.667 -212 -89s-83 -135.5 -83 -228.5s27.667 -169.167 83 -228.5s126 -89 212 -89z" />
    <glyph glyph-name="Abreve" unicode="&#x102;" horiz-adv-x="1595" 
d="M798.5 1583c-94.333 0 -171.503 26 -231.503 78s-94 121 -102 207c-1.33301 20.667 8.33398 30.667 29.001 30h120c19.333 0 30.333 -10 33 -30c4 -39.333 19.667 -70.333 47 -93s62.333 -34 105 -34c84.667 0 135 42.333 151 127c4 20.667 15 30.667 33 30h121
c20.667 0 30.334 -10 29.001 -30c-8 -86 -42.167 -155 -102.5 -207s-137.666 -78 -231.999 -78zM67.9971 0c-26 0 -33.6689 12.333 -23.002 37l623 1374c6.66699 15.333 18 23 34 23h195c18 0 29.667 -7.66699 35 -23l618 -1374c10.667 -24.667 3.33398 -37 -21.999 -37
h-213c-18 0 -29.667 7.66699 -35 23l-133 309h-694l-134 -309c-5.33301 -15.333 -16.666 -23 -33.999 -23h-217zM550.995 559h498l-250 576z" />
    <glyph glyph-name="abreve" unicode="&#x103;" horiz-adv-x="1435" 
d="M647 1128c-94 0 -171.333 26 -232 78s-94.667 121 -102 207c-1.33301 20.667 8.33398 31 29.001 31h121c18 0 29 -10.333 33 -31c4 -39.333 19.667 -70.333 47 -93s62.166 -34 104.499 -34s77.166 11.333 104.499 34s43 53.667 47 93c4 20.667 14.667 31 32 31h121
c20.667 0 30.334 -10.333 29.001 -31c-6.66699 -86 -40.5 -155 -101.5 -207s-138.5 -78 -232.5 -78zM1374 31c1.33301 -18 -6.66406 -30.333 -23.9971 -37c-50.667 -16.667 -97.334 -25 -140.001 -25c-117.333 0 -196.333 42.333 -237 127
c-96.667 -84.667 -209.334 -127 -338.001 -127c-158.667 0 -288.834 48.833 -390.501 146.5s-152.5 223 -152.5 376s50.833 278.333 152.5 376s231.834 146.5 390.501 146.5c109.333 0 205.666 -30 288.999 -90v28c0 20.667 10 31 30 31h189c20.667 0 31 -10.333 31 -31
v-688c0 -23.333 6.33301 -41.833 19 -55.5s30 -20.5 52 -20.5s47.333 3 76 9c22 4 34.333 -4.33301 37 -25zM637.003 174c84.667 0 153.667 29.667 207 89s80 135.5 80 228.5s-26.667 169.167 -80 228.5s-122.333 89 -207 89c-86 0 -156.667 -29.667 -212 -89
s-83 -135.5 -83 -228.5s27.667 -169.167 83 -228.5s126 -89 212 -89z" />
    <glyph glyph-name="Aogonek" unicode="&#x104;" horiz-adv-x="1595" 
d="M1610 -307c2.66699 -20.667 -5.00195 -32.999 -23.002 -36.999c-42 -9.33301 -81.667 -14 -119 -14c-92.667 0 -167.334 20 -224.001 60s-85 93 -85 159c0 79.333 37 140.666 111 183.999l-123 287h-694l-134 -309c-5.33301 -15.333 -16.666 -23 -33.999 -23h-217
c-26 -0 -33.667 12.333 -23 37l623 1374c6.66699 15.333 18 23 34 23h195c18 0 29.667 -7.66699 35 -23l618 -1374c10.667 -24.667 3.33398 -37 -21.999 -37h-10c-45.333 -4 -81.666 -15.167 -108.999 -33.5s-41 -40.5 -41 -66.5c0 -22 11.667 -39.5 35 -52.5
s54 -19.5 92 -19.5c28.667 0 50 1.33301 64 4c20.667 4 32 -4.33301 34 -25zM550.998 559.001h498l-250 576z" />
    <glyph glyph-name="aogonek" unicode="&#x105;" horiz-adv-x="1435" 
d="M1374 31c1.33301 -18 -6.66602 -30.333 -23.999 -37c-50.667 -16.667 -97.334 -25 -140.001 -25c-13.333 0 -33.666 1.33301 -60.999 4c-35.333 -18 -53 -42.333 -53 -73c0 -22 11.5 -39.5 34.5 -52.5s53.833 -19.5 92.5 -19.5c28.667 0 49.667 1.33301 63 4
c20.667 4 32.334 -4.33301 35.001 -25l16 -114c2.66699 -20.667 -4.66602 -33 -21.999 -37c-42 -9.33301 -81.667 -14 -119 -14c-92.667 0 -167.334 20 -224.001 60s-85 93 -85 159c0 82 39.667 144.667 119 188c-13.333 13.333 -24.333 29 -33 47
c-96.667 -84.667 -209.334 -127 -338.001 -127c-158.667 0 -288.834 48.833 -390.501 146.5s-152.5 223 -152.5 376s50.833 278.333 152.5 376s231.834 146.5 390.501 146.5c109.333 0 205.666 -30 288.999 -90v28c0 20.667 10 31 30 31h189c20.667 0 31 -10.333 31 -31
v-688c0 -23.333 6.33301 -41.833 19 -55.5s30 -20.5 52 -20.5s47.333 3 76 9c22 4 34.333 -4.33301 37 -25zM637.001 174c84.667 0 153.667 29.667 207 89s80 135.5 80 228.5s-26.667 169.167 -80 228.5s-122.333 89 -207 89c-86 0 -156.667 -29.667 -212 -89
s-83 -135.5 -83 -228.5s27.667 -169.167 83 -228.5s126 -89 212 -89z" />
    <glyph glyph-name="Cacute" unicode="&#x106;" horiz-adv-x="1705" 
d="M766 1579c-10.667 0 -18.499 3.83398 -23.499 11.501s-4.83301 16.167 0.5 25.5l136 252c6.66699 15.333 18.667 22.666 36 21.999h209c27.333 0 33.666 -12.333 18.999 -37l-176 -256c-8 -12 -21 -18 -39 -18h-162zM883.001 -28.999
c-230.667 0 -416.67 68.668 -558.003 206.001s-212 318 -212 542s70.667 404.167 212 540.5s327.333 204.5 558 204.5c178.667 0 332.834 -48.833 462.501 -146.5s212.167 -227.5 247.5 -389.5c4 -22 -5.33301 -33 -28 -33h-207c-18 0 -29.667 8.33301 -35 25
c-31.333 96.667 -85.666 172.334 -162.999 227.001s-169.666 82 -276.999 82c-151.333 0 -273.166 -46.833 -365.499 -140.5s-138.5 -216.834 -138.5 -369.501c0 -154 46 -277.833 138 -371.5s214 -140.5 366 -140.5c106.667 0 198.834 27 276.501 81
s132.167 129.333 163.5 226c5.33301 18 17 27 35 27h207c23.333 0 32.666 -11 27.999 -33c-35.333 -162.667 -117.833 -292.834 -247.5 -390.501s-283.834 -146.5 -462.501 -146.5z" />
    <glyph glyph-name="cacute" unicode="&#x107;" horiz-adv-x="1224" 
d="M524 1157c-10.667 0 -18.332 3.83398 -22.999 11.501s-4.33398 16.167 0.999023 25.5l135 252c6.66699 15.333 19 22.666 37 21.999h209c27.333 0 33.333 -12 18 -36l-176 -256c-8 -12 -21 -18.333 -39 -19h-162zM637.002 -30.999c-164 0 -295.832 47.833 -395.499 143.5
s-149.5 222 -149.5 379s49.833 283.333 149.5 379s231.5 143.5 395.5 143.5c130 0 239.667 -32.167 329 -96.5s145 -149.5 167 -255.5c4 -22 -5 -33 -27 -33h-195c-16.667 0 -27.334 8.66699 -32.001 26c-15.333 44 -44.833 79.333 -88.5 106s-94.834 40 -153.501 40
c-88.667 0 -160 -28.333 -214 -85s-81 -131.5 -81 -224.5s27 -167.833 81 -224.5s125.333 -85 214 -85c58.667 0 109.834 13.333 153.501 40s73.167 62 88.5 106c5.33301 18 16 26.667 32 26h195c22 0 31 -10.667 27 -32c-22 -106.667 -77.667 -192.167 -167 -256.5
s-199 -96.5 -329 -96.5z" />
    <glyph glyph-name="Cdotaccent" unicode="&#x10a;" horiz-adv-x="1705" 
d="M854 1587c-44 0 -81.667 14.333 -113 43s-47 62.834 -47 102.501s15.667 73.5 47 101.5s69 42 113 42c42 0 78.833 -14 110.5 -42s47.5 -61.833 47.5 -101.5s-15.333 -73.834 -46 -102.501s-68 -43 -112 -43zM883 -29c-230.667 0 -416.67 68.668 -558.003 206.001
s-212 318 -212 542s70.667 404.167 212 540.5s327.333 204.5 558 204.5c178.667 0 332.834 -48.833 462.501 -146.5s212.167 -227.5 247.5 -389.5c4 -22 -5.33301 -33 -28 -33h-207c-18 0 -29.667 8.33301 -35 25c-31.333 96.667 -85.666 172.334 -162.999 227.001
s-169.666 82 -276.999 82c-151.333 0 -273.166 -46.833 -365.499 -140.5s-138.5 -216.834 -138.5 -369.501c0 -154 46 -277.833 138 -371.5s214 -140.5 366 -140.5c106.667 0 198.834 27 276.501 81s132.167 129.333 163.5 226c5.33301 18 17 27 35 27h207
c23.333 0 32.666 -11 27.999 -33c-35.333 -162.667 -117.833 -292.834 -247.5 -390.501s-283.834 -146.5 -462.501 -146.5z" />
    <glyph glyph-name="cdotaccent" unicode="&#x10b;" horiz-adv-x="1224" 
d="M612.5 1161c-43.667 0 -81.165 14.333 -112.498 43s-47 62.834 -47 102.501s15.667 73.5 47 101.5s68.666 42 111.999 42c42 0 78.833 -14 110.5 -42s47.5 -61.833 47.5 -101.5s-15.333 -73.834 -46 -102.501s-67.834 -43 -111.501 -43zM637.002 -31
c-164 0 -295.832 47.833 -395.499 143.5s-149.5 222 -149.5 379s49.833 283.333 149.5 379s231.5 143.5 395.5 143.5c130 0 239.667 -32.167 329 -96.5s145 -149.5 167 -255.5c4 -22 -5 -33 -27 -33h-195c-16.667 0 -27.334 8.66699 -32.001 26
c-15.333 44 -44.833 79.333 -88.5 106s-94.834 40 -153.501 40c-88.667 0 -160 -28.333 -214 -85s-81 -131.5 -81 -224.5s27 -167.833 81 -224.5s125.333 -85 214 -85c58.667 0 109.834 13.333 153.501 40s73.167 62 88.5 106c5.33301 18 16 26.667 32 26h195
c22 0 31 -10.667 27 -32c-22 -106.667 -77.667 -192.167 -167 -256.5s-199 -96.5 -329 -96.5z" />
    <glyph glyph-name="Ccaron" unicode="&#x10c;" horiz-adv-x="1705" 
d="M756 1571c-15.333 0 -27.6641 6 -36.9971 18l-213 256c-8 9.33301 -10.333 17.833 -7 25.5s11.666 11.5 24.999 11.5h162c15.333 0 27.666 -5.33301 36.999 -16l131 -146l131 146c9.33301 10.667 21.666 16 36.999 16h162c13.333 0 21.666 -3.66699 24.999 -11
s1 -16 -7 -26l-213 -256c-9.33301 -12 -21.666 -18 -36.999 -18h-196zM883.002 -29c-230.667 0 -416.67 68.668 -558.003 206.001s-212 318 -212 542s70.667 404.167 212 540.5s327.333 204.5 558 204.5c178.667 0 332.834 -48.833 462.501 -146.5
s212.167 -227.5 247.5 -389.5c4 -22 -5.33301 -33 -28 -33h-207c-18 0 -29.667 8.33301 -35 25c-31.333 96.667 -85.666 172.334 -162.999 227.001s-169.666 82 -276.999 82c-151.333 0 -273.166 -46.833 -365.499 -140.5s-138.5 -216.834 -138.5 -369.501
c0 -154 46 -277.833 138 -371.5s214 -140.5 366 -140.5c106.667 0 198.834 27 276.501 81s132.167 129.333 163.5 226c5.33301 18 17 27 35 27h207c23.333 0 32.666 -11 27.999 -33c-35.333 -162.667 -117.833 -292.834 -247.5 -390.501s-283.834 -146.5 -462.501 -146.5z
" />
    <glyph glyph-name="ccaron" unicode="&#x10d;" horiz-adv-x="1224" 
d="M514 1139c-15.333 0 -27.666 6 -36.999 18l-213 256c-8 10.667 -10.333 19.5 -7 26.5s12 10.5 26 10.5h161c15.333 0 27.666 -5.33301 36.999 -16l131 -146l131 146c9.33301 10.667 21.666 16 36.999 16h162c13.333 0 21.833 -3.33301 25.5 -10s1.5 -15.667 -6.5 -27
l-213 -256c-9.33301 -12 -21.666 -18 -36.999 -18h-197zM637 -31c-164 0 -295.832 47.833 -395.499 143.5s-149.5 222 -149.5 379s49.833 283.333 149.5 379s231.5 143.5 395.5 143.5c130 0 239.667 -32.167 329 -96.5s145 -149.5 167 -255.5c4 -22 -5 -33 -27 -33h-195
c-16.667 0 -27.334 8.66699 -32.001 26c-15.333 44 -44.833 79.333 -88.5 106s-94.834 40 -153.501 40c-88.667 0 -160 -28.333 -214 -85s-81 -131.5 -81 -224.5s27 -167.833 81 -224.5s125.333 -85 214 -85c58.667 0 109.834 13.333 153.501 40s73.167 62 88.5 106
c5.33301 18 16 26.667 32 26h195c22 0 31 -10.667 27 -32c-22 -106.667 -77.667 -192.167 -167 -256.5s-199 -96.5 -329 -96.5z" />
    <glyph glyph-name="Dcaron" unicode="&#x10e;" horiz-adv-x="1607" 
d="M707 1571c-15.333 0 -27.6641 6 -36.9971 18l-213 256c-8 9.33301 -10.333 17.833 -7 25.5s11.666 11.5 24.999 11.5h162c15.333 0 27.666 -5.33301 36.999 -16l131 -146l131 146c9.33301 10.667 21.666 16 36.999 16h162c13.333 0 21.666 -3.66699 24.999 -11
s1 -16 -7 -26l-213 -256c-9.33301 -12 -21.666 -18 -36.999 -18h-196zM694.002 1434c240 0 433.501 -65.667 580.501 -197s220.5 -304.833 220.5 -520.5s-73.333 -389 -220 -520s-340.334 -196.5 -581.001 -196.5h-510c-20.667 -0 -30.667 10.333 -30 31v1372
c0 20.667 10 31 30 31h510zM666.003 227c168 0 303.5 45.167 406.5 135.5s154.5 208.5 154.5 354.5s-51.5 264 -154.5 354s-238.5 135 -406.5 135h-252v-979h252z" />
    <glyph glyph-name="dcaron" unicode="&#x10f;" horiz-adv-x="1435" 
d="M1358 172l16.001 -141c1.33301 -18 -6.66699 -30.333 -24 -37c-50.667 -16.667 -97.334 -25 -140.001 -25c-117.333 0 -196.333 42.333 -237 127c-96.667 -84.667 -209.334 -127 -338.001 -127c-158.667 0 -288.834 48.833 -390.501 146.5s-152.5 223 -152.5 376
s50.833 278.333 152.5 376s231.834 146.5 390.501 146.5c106.667 0 202.334 -29.333 287.001 -88v559c0 20.667 10 31 30 31h191c20.667 0 31 -10.333 31 -31v-1221c0 -23.333 6.33301 -41.833 19 -55.5s30 -20.5 52 -20.5s47.333 3 76 9c22 4 34.333 -4.33301 37 -25z
M1573 1516c23.333 0 33 -11 29 -33l-66 -348c-4 -18 -15.667 -27 -35 -27h-133c-19.333 0 -29 10.333 -29 31l13 346c0 20.667 10.667 31 32 31h189zM637.001 174c84.667 0 153.667 29.667 207 89s80 135.5 80 228.5s-26.667 169.167 -80 228.5s-122.333 89 -207 89
c-86 0 -156.667 -29.667 -212 -89s-83 -135.5 -83 -228.5s27.667 -169.167 83 -228.5s126 -89 212 -89z" />
    <glyph glyph-name="Dcroat" unicode="&#x110;" horiz-adv-x="1607" 
d="M694 1434c240 0 433.501 -65.667 580.501 -197s220.5 -304.833 220.5 -520.5s-73.333 -389 -220 -520s-340.334 -196.5 -581.001 -196.5h-510c-20.667 -0 -30.667 10.333 -30 31v573h-99c-20.667 0 -30.667 10.333 -30 31v166c0 20.667 10 30.667 30 30h99v572
c0 20.667 10 31 30 31h510zM666.001 227c168 0 303.5 45.167 406.5 135.5s154.5 208.5 154.5 354.5s-51.5 264 -154.5 354s-238.5 135 -406.5 135h-252v-375h276c20.667 0 31 -10 31 -30v-166c0 -20.667 -10.333 -31 -31 -31h-276v-377h252z" />
    <glyph glyph-name="dcroat" unicode="&#x111;" horiz-adv-x="1435" 
d="M1374 31c1.33301 -18 -6.66602 -30.333 -23.999 -37c-50.667 -16.667 -97.334 -25 -140.001 -25c-117.333 0 -196.333 42.333 -237 127c-96.667 -84.667 -209.334 -127 -338.001 -127c-158.667 0 -288.834 48.833 -390.501 146.5s-152.5 223 -152.5 376
s50.833 278.333 152.5 376s231.834 146.5 390.501 146.5c106.667 0 202.334 -29.333 287.001 -88v202h-332c-20.667 0 -31 10.333 -31 31v135c0 20.667 10.333 31 31 31h332v160c0 20.667 10 31 30 31h191c20.667 0 31 -10.333 31 -31v-160h51
c20.667 0 30.667 -10.333 30 -31v-135c0 -20.667 -10 -31 -30 -31h-51v-864c0 -23.333 6.33301 -41.833 19 -55.5s30 -20.5 52 -20.5s47.333 3 76 9c22 4 34.333 -4.33301 37 -25zM637.001 174c84.667 0 153.667 29.667 207 89s80 135.5 80 228.5s-26.667 169.167 -80 228.5
s-122.333 89 -207 89c-86 0 -156.667 -29.667 -212 -89s-83 -135.5 -83 -228.5s27.667 -169.167 83 -228.5s126 -89 212 -89z" />
    <glyph glyph-name="Emacron" unicode="&#x112;" horiz-adv-x="1316" 
d="M442 1595c-20.667 0 -30.667 10.333 -30 31v133c0 20.667 10 31 30 31h547c20.667 0 31 -10.333 31 -31v-133c0 -20.667 -10.333 -31 -31 -31h-547zM1225 1237c0 -20.667 -10.333 -31 -31 -31h-780v-385h694c20.667 0 31 -10 31 -30v-166c0 -20.667 -10.333 -31 -31 -31
h-694v-367h780c20.667 0 31 -10 31 -30v-166c0 -20.667 -10.333 -31 -31 -31h-1010c-20.667 -0 -30.667 10.333 -30 31v1372c0 20.667 10 31 30 31h1010c20.667 0 31 -10.333 31 -31v-166z" />
    <glyph glyph-name="emacron" unicode="&#x113;" horiz-adv-x="1230" 
d="M342 1196c-20.667 0 -31 10.333 -31 31v133c0 20.667 10.333 31 31 31h547c20.667 0 31 -10.333 31 -31v-133c0 -20.667 -10.333 -31 -31 -31h-547zM637 -31c-162.667 0 -294.17 47.832 -394.503 143.499s-150.5 222 -150.5 379s48.833 283.333 146.5 379
s225.834 143.5 384.501 143.5c154 0 278.5 -47.167 373.5 -141.5s142.5 -218.5 142.5 -372.5c0 -19.333 -1.33301 -46.666 -4 -81.999c-4 -18 -15.667 -27 -35 -27h-756c19.333 -68 55.5 -121.833 108.5 -161.5s116.5 -59.5 190.5 -59.5c88.667 0 153.667 24 195 72
c12 12 25 18 39 18h202c10.667 0 18.834 -3.33301 24.501 -10s5.83398 -15 0.500977 -25c-35.333 -78 -95 -140.167 -179 -186.5s-180 -69.5 -288 -69.5zM337.997 566.999l547 -0.000976562c-2.66699 72.667 -27 131.834 -73 177.501s-107.167 68.5 -183.5 68.5
s-141.5 -22.5 -195.5 -67.5s-85.667 -104.5 -95 -178.5z" />
    <glyph glyph-name="Edotaccent" unicode="&#x116;" horiz-adv-x="1316" 
d="M716.5 1587c-43.667 0 -81.166 14.333 -112.499 43s-47 62.834 -47 102.501s15.667 73.5 47 101.5s69 42 113 42c42 0 78.667 -14 110 -42s47 -61.833 47 -101.5s-15.333 -73.834 -46 -102.501s-67.834 -43 -111.501 -43zM1225 1237c0 -20.667 -10.333 -31 -31 -31h-780
v-385h694c20.667 0 31 -10 31 -30v-166c0 -20.667 -10.333 -31 -31 -31h-694v-367h780c20.667 0 31 -10 31 -30v-166c0 -20.667 -10.333 -31 -31 -31h-1010c-20.667 -0 -30.667 10.333 -30 31v1372c0 20.667 10 31 30 31h1010c20.667 0 31 -10.333 31 -31v-166z" />
    <glyph glyph-name="edotaccent" unicode="&#x117;" horiz-adv-x="1230" 
d="M616.5 1161c-43.667 0 -81.165 14.333 -112.498 43s-47 62.834 -47 102.501s15.667 73.5 47 101.5s68.666 42 111.999 42c42 0 78.833 -14 110.5 -42s47.5 -61.833 47.5 -101.5s-15.333 -73.834 -46 -102.501s-67.834 -43 -111.501 -43zM637.002 -31
c-162.667 0 -294.17 47.832 -394.503 143.499s-150.5 222 -150.5 379s48.833 283.333 146.5 379s225.834 143.5 384.501 143.5c154 0 278.5 -47.167 373.5 -141.5s142.5 -218.5 142.5 -372.5c0 -19.333 -1.33301 -46.666 -4 -81.999c-4 -18 -15.667 -27 -35 -27h-756
c19.333 -68 55.5 -121.833 108.5 -161.5s116.5 -59.5 190.5 -59.5c88.667 0 153.667 24 195 72c12 12 25 18 39 18h202c10.667 0 18.834 -3.33301 24.501 -10s5.83398 -15 0.500977 -25c-35.333 -78 -95 -140.167 -179 -186.5s-180 -69.5 -288 -69.5zM337.999 566.999
l547 -0.000976562c-2.66699 72.667 -27 131.834 -73 177.501s-107.167 68.5 -183.5 68.5s-141.5 -22.5 -195.5 -67.5s-85.667 -104.5 -95 -178.5z" />
    <glyph glyph-name="Eogonek" unicode="&#x118;" horiz-adv-x="1316" 
d="M1225 -307c2.66699 -20.667 -5 -33 -23 -37c-42 -9.33301 -81.667 -14 -119 -14c-92.667 0 -167.334 20 -224.001 60s-85 93 -85 159c0 56 18.333 102.333 55 139h-645c-20.667 -0 -30.667 10.333 -30 31v1372c0 20.667 10 31 30 31h1010c20.667 0 31 -10.333 31 -31
v-166c0 -20.667 -10.333 -31 -31 -31h-780v-385h694c20.667 0 31 -10 31 -30v-166c0 -20.667 -10.333 -31 -31 -31h-694v-367h780c20.667 0 31 -10 31 -30v-166c0 -20.667 -10.333 -31 -31 -31h-61c-45.333 -4 -81.666 -15.167 -108.999 -33.5s-41 -40.5 -41 -66.5
c0 -22 11.667 -39.5 35 -52.5s54 -19.5 92 -19.5c28.667 0 50 1.33301 64 4c20.667 4 32 -4.33301 34 -25z" />
    <glyph glyph-name="eogonek" unicode="&#x119;" horiz-adv-x="1230" 
d="M623 1014c154 0 278.497 -47.167 373.497 -141.5s142.5 -218.5 142.5 -372.5c0 -19.333 -1.33301 -46.666 -4 -81.999c-4 -18 -15.667 -27 -35 -27h-756c19.333 -68 55.5 -121.833 108.5 -161.5s116.5 -59.5 190.5 -59.5c88.667 0 153.667 24 195 72c12 12 25 18 39 18
h202c10.667 0 18.834 -3.33301 24.501 -10s5.83398 -15 0.500977 -25c-28.667 -64 -75.167 -117.833 -139.5 -161.5s-138.833 -72.5 -223.5 -86.5c-39.333 -20.667 -59 -46.334 -59 -77.001c0 -22 11.667 -39.5 35 -52.5s54 -19.5 92 -19.5c28.667 0 49.667 1.33301 63 4
c20.667 4 32.334 -4.33301 35.001 -25l17 -114c2.66699 -20.667 -5 -33 -23 -37c-44 -9.33301 -83.667 -14 -119 -14c-92.667 0 -167.334 20 -224.001 60s-85 93 -85 159c0 46.667 12.333 86.334 37 119.001c-128.667 24.667 -230.5 82.667 -305.5 174
s-112.5 204 -112.5 338c0 157.333 48.833 283.666 146.5 378.999s225.834 143 384.501 143zM337.997 567l547 -0.000976562c-2.66699 72.667 -27 131.834 -73 177.501s-107.167 68.5 -183.5 68.5s-141.5 -22.5 -195.5 -67.5s-85.667 -104.5 -95 -178.5z" />
    <glyph glyph-name="Ecaron" unicode="&#x11a;" horiz-adv-x="1316" 
d="M618 1571c-13.333 0 -25.3291 6 -35.9961 18l-213 256c-8 9.33301 -10.333 17.833 -7 25.5s11.666 11.5 24.999 11.5h162c15.333 0 27.666 -5.33301 36.999 -16l131 -146l131 146c9.33301 10.667 21.666 16 36.999 16h162c13.333 0 21.666 -3.66699 24.999 -11
s1 -16 -7 -26l-213 -256c-10.667 -12 -23 -18 -37 -18h-197zM1225 1237c0 -20.667 -10.333 -31 -31 -31h-780v-385h694c20.667 0 31 -10 31 -30v-166c0 -20.667 -10.333 -31 -31 -31h-694v-367h780c20.667 0 31 -10 31 -30v-166c0 -20.667 -10.333 -31 -31 -31h-1010
c-20.667 -0 -30.667 10.333 -30 31v1372c0 20.667 10 31 30 31h1010c20.667 0 31 -10.333 31 -31v-166z" />
    <glyph glyph-name="ecaron" unicode="&#x11b;" horiz-adv-x="1230" 
d="M518 1139c-15.333 0 -27.668 6 -37.001 18l-213 256c-8 10.667 -10.333 19.5 -7 26.5s12 10.5 26 10.5h162c15.333 0 27.333 -5.33301 36 -16l131 -146l132 146c9.33301 10.667 21.333 16 36 16h162c13.333 0 21.833 -3.33301 25.5 -10s1.5 -15.667 -6.5 -27l-213 -256
c-9.33301 -12 -21.666 -18 -36.999 -18h-197zM636.998 -31c-162.667 0 -294.17 47.832 -394.503 143.499s-150.5 222 -150.5 379s48.833 283.333 146.5 379s225.834 143.5 384.501 143.5c154 0 278.5 -47.167 373.5 -141.5s142.5 -218.5 142.5 -372.5
c0 -19.333 -1.33301 -46.666 -4 -81.999c-4 -18 -15.667 -27 -35 -27h-756c19.333 -68 55.5 -121.833 108.5 -161.5s116.5 -59.5 190.5 -59.5c88.667 0 153.667 24 195 72c12 12 25 18 39 18h202c10.667 0 18.834 -3.33301 24.501 -10s5.83398 -15 0.500977 -25
c-35.333 -78 -95 -140.167 -179 -186.5s-180 -69.5 -288 -69.5zM337.995 566.999l547 -0.000976562c-2.66699 72.667 -27 131.834 -73 177.501s-107.167 68.5 -183.5 68.5s-141.5 -22.5 -195.5 -67.5s-85.667 -104.5 -95 -178.5z" />
    <glyph glyph-name="Gbreve" unicode="&#x11e;" horiz-adv-x="1763" 
d="M882.5 1583c-94.333 0 -171.501 26 -231.501 78s-94 121 -102 207c-2.66699 20.667 7 30.667 29 30h120c20.667 0 31.667 -10 33 -30c4 -39.333 19.667 -70.333 47 -93s62.333 -34 105 -34c84.667 0 135 42.333 151 127c4 20.667 15 30.667 33 30h121
c22 0 31.667 -10 29 -30c-8 -86 -42.167 -155 -102.5 -207s-137.666 -78 -231.999 -78zM880.999 -29c-230.667 0 -416.332 68.668 -556.999 206.001s-211 318 -211 542s70.333 404.167 211 540.5s326.334 204.5 557.001 204.5c172 0 323.167 -43.333 453.5 -130
s217.166 -201 260.499 -343c6.66699 -23.333 -1.33301 -35 -24 -35h-217c-18 0 -29.667 8.33301 -35 25c-31.333 75.333 -86.666 135.5 -165.999 180.5s-170 67.5 -272 67.5c-150 0 -271.167 -46.833 -363.5 -140.5s-138.5 -217 -138.5 -370s46 -276.167 138 -369.5
s213.333 -140 364 -140c109.333 0 205.166 30 287.499 90s137.166 139.333 164.499 238h-442c-20.667 0 -31 10 -31 30v166c0 20.667 10.333 31 31 31h698c20.667 0 31 -10.333 31 -31c0 -234.667 -66.833 -420.334 -200.5 -557.001s-313.167 -205 -538.5 -205z" />
    <glyph glyph-name="gbreve" unicode="&#x11f;" horiz-adv-x="1327" 
d="M651.5 1128c-94.333 0 -171.832 26 -232.499 78s-94.667 121 -102 207c-1.33301 20.667 8.33398 31 29.001 31h121c18 0 29 -10.333 33 -31c4 -39.333 19.667 -70.333 47 -93s62.166 -34 104.499 -34s77.166 11.333 104.499 34s43 53.667 47 93c4 20.667 15 31 33 31h120
c20.667 0 30.334 -10.333 29.001 -31c-6.66699 -86 -40.334 -155 -101.001 -207s-138.167 -78 -232.5 -78zM1153 983c20.667 0 31.001 -10.333 31.001 -31v-970c0 -144.667 -47.833 -261.5 -143.5 -350.5s-221.834 -133.5 -378.501 -133.5c-138 0 -254.5 33.5 -349.5 100.5
s-153.5 156.5 -175.5 268.5c-4 22 5.66699 33 29 33h192c18 0 29.667 -9 35 -27c13.333 -49.333 44.333 -88.333 93 -117s107.334 -43 176.001 -43c82 0 147.833 24.667 197.5 74s74.5 114.333 74.5 195v77c-83.333 -60 -179.666 -90 -288.999 -90
c-158.667 0 -288.834 48.833 -390.501 146.5s-152.5 223 -152.5 376s51 278.333 153 376s232 146.5 390 146.5c109.333 0 205.666 -30 288.999 -90v28c0 20.667 10.333 31 31 31h188zM647.002 174c84.667 0 153.667 29.667 207 89s80 135.5 80 228.5
s-26.667 169.167 -80 228.5s-122.333 89 -207 89c-86 0 -156.667 -29.667 -212 -89s-83 -135.5 -83 -228.5s27.667 -169.167 83 -228.5s126 -89 212 -89z" />
    <glyph glyph-name="Gdotaccent" unicode="&#x120;" horiz-adv-x="1763" 
d="M882.5 1587c-43.667 0 -81.166 14.333 -112.499 43s-47 62.834 -47 102.501s15.667 73.5 47 101.5s69 42 113 42c42 0 78.667 -14 110 -42s47 -61.833 47 -101.5s-15.333 -73.834 -46 -102.501s-67.834 -43 -111.501 -43zM881.001 -29
c-230.667 0 -416.332 68.668 -556.999 206.001s-211 318 -211 542s70.333 404.167 211 540.5s326.334 204.5 557.001 204.5c172 0 323.167 -43.333 453.5 -130s217.166 -201 260.499 -343c6.66699 -23.333 -1.33301 -35 -24 -35h-217c-18 0 -29.667 8.33301 -35 25
c-31.333 75.333 -86.666 135.5 -165.999 180.5s-170 67.5 -272 67.5c-150 0 -271.167 -46.833 -363.5 -140.5s-138.5 -217 -138.5 -370s46 -276.167 138 -369.5s213.333 -140 364 -140c109.333 0 205.166 30 287.499 90s137.166 139.333 164.499 238h-442
c-20.667 0 -31 10 -31 30v166c0 20.667 10.333 31 31 31h698c20.667 0 31 -10.333 31 -31c0 -234.667 -66.833 -420.334 -200.5 -557.001s-313.167 -205 -538.5 -205z" />
    <glyph glyph-name="gdotaccent" unicode="&#x121;" horiz-adv-x="1327" 
d="M651.5 1161c-43.667 0 -81.165 14.333 -112.498 43s-47 62.834 -47 102.501s15.667 73.5 47 101.5s68.666 42 111.999 42c42 0 78.833 -14 110.5 -42s47.5 -61.833 47.5 -101.5s-15.333 -73.834 -46 -102.501s-67.834 -43 -111.501 -43zM1153 983
c20.667 0 31.001 -10.333 31.001 -31v-970c0 -144.667 -47.833 -261.5 -143.5 -350.5s-221.834 -133.5 -378.501 -133.5c-138 0 -254.5 33.5 -349.5 100.5s-153.5 156.5 -175.5 268.5c-4 22 5.66699 33 29 33h192c18 0 29.667 -9 35 -27
c13.333 -49.333 44.333 -88.333 93 -117s107.334 -43 176.001 -43c82 0 147.833 24.667 197.5 74s74.5 114.333 74.5 195v77c-83.333 -60 -179.666 -90 -288.999 -90c-158.667 0 -288.834 48.833 -390.501 146.5s-152.5 223 -152.5 376s51 278.333 153 376
s232 146.5 390 146.5c109.333 0 205.666 -30 288.999 -90v28c0 20.667 10.333 31 31 31h188zM647.003 174c84.667 0 153.667 29.667 207 89s80 135.5 80 228.5s-26.667 169.167 -80 228.5s-122.333 89 -207 89c-86 0 -156.667 -29.667 -212 -89s-83 -135.5 -83 -228.5
s27.667 -169.167 83 -228.5s126 -89 212 -89z" />
    <glyph glyph-name="uni0122" unicode="&#x122;" horiz-adv-x="1763" 
d="M881 -29c-230.667 0 -416.332 68.668 -556.999 206.001s-211 318 -211 542s70.333 404.167 211 540.5s326.334 204.5 557.001 204.5c172 0 323.167 -43.333 453.5 -130s217.166 -201 260.499 -343c6.66699 -23.333 -1.33301 -35 -24 -35h-217
c-18 0 -29.667 8.33301 -35 25c-31.333 75.333 -86.666 135.5 -165.999 180.5s-170 67.5 -272 67.5c-150 0 -271.167 -46.833 -363.5 -140.5s-138.5 -217 -138.5 -370s46 -276.167 138 -369.5s213.333 -140 364 -140c109.333 0 205.166 30 287.499 90
s137.166 139.333 164.499 238h-442c-20.667 0 -31 10 -31 30v166c0 20.667 10.333 31 31 31h698c20.667 0 31 -10.333 31 -31c0 -234.667 -66.833 -420.334 -200.5 -557.001s-313.167 -205 -538.5 -205zM778.002 -507.999c-24.667 0 -31.332 10.332 -19.999 30.999l69 133
c-60 13.333 -90 51 -90 113c0 36.667 13.333 67.334 40 92.001s62 37 106 37c40.667 0 75 -12.333 103 -37s42 -54 42 -88c0 -31.333 -11.667 -66.333 -35 -105l-96 -160c-6.66699 -10.667 -18.334 -16 -35.001 -16h-84z" />
    <glyph glyph-name="uni0123" unicode="&#x123;" horiz-adv-x="1327" 
d="M651 1161c-40.667 0 -75.002 12.333 -103.002 37s-42 54 -42 88c0 31.333 11.667 66.333 35 105l96 159c6.66699 10.667 18.334 16.334 35.001 17.001h84c24.667 0 31.334 -10.333 20.001 -31l-69 -133c60 -13.333 90 -51 90 -113c0 -36.667 -13.333 -67.334 -40 -92.001
s-62 -37 -106 -37zM1153 983c20.667 0 31.001 -10.333 31.001 -31v-970c0 -144.667 -47.833 -261.5 -143.5 -350.5s-221.834 -133.5 -378.501 -133.5c-138 0 -254.5 33.5 -349.5 100.5s-153.5 156.5 -175.5 268.5c-4 22 5.66699 33 29 33h192c18 0 29.667 -9 35 -27
c13.333 -49.333 44.333 -88.333 93 -117s107.334 -43 176.001 -43c82 0 147.833 24.667 197.5 74s74.5 114.333 74.5 195v77c-83.333 -60 -179.666 -90 -288.999 -90c-158.667 0 -288.834 48.833 -390.501 146.5s-152.5 223 -152.5 376s51 278.333 153 376
s232 146.5 390 146.5c109.333 0 205.666 -30 288.999 -90v28c0 20.667 10.333 31 31 31h188zM646.999 174c84.667 0 153.667 29.667 207 89s80 135.5 80 228.5s-26.667 169.167 -80 228.5s-122.333 89 -207 89c-86 0 -156.667 -29.667 -212 -89s-83 -135.5 -83 -228.5
s27.667 -169.167 83 -228.5s126 -89 212 -89z" />
    <glyph glyph-name="Hbar" unicode="&#x126;" horiz-adv-x="1562" 
d="M1483 1214c20.667 0 30.667 -10 30 -30v-142c0 -20.667 -10 -30.667 -30 -30h-74v-981c0 -20.667 -10.333 -31 -31 -31h-198c-20.667 -0 -31 10.333 -31 31v559h-735v-559c0 -20.667 -10.333 -31 -31 -31h-199c-20.667 -0 -30.667 10.333 -30 31v981h-76
c-20.667 0 -31 10 -31 30v142c0 20.667 10.333 30.667 31 30h76v189c0 20.667 10 31 30 31h199c20.667 0 31 -10.333 31 -31v-189h735v189c0 20.667 10.333 31 31 31h198c20.667 0 31 -10.333 31 -31v-189h74zM1149 817v195h-735v-195h735z" />
    <glyph glyph-name="hbar" unicode="&#x127;" horiz-adv-x="1423" 
d="M713 1014c134 0 242.166 -42.667 324.499 -128s123.5 -197.666 123.5 -336.999v-518c0 -20.667 -10.333 -31 -31 -31h-188c-20.667 0 -31 10.333 -31 31v504c0 79.333 -23.167 143.166 -69.5 191.499s-107.166 72.5 -182.499 72.5c-79.333 0 -143.5 -22.833 -192.5 -68.5
s-73.5 -106.167 -73.5 -181.5v-518c0 -20.667 -10.333 -31 -31 -31h-188c-20.667 -0 -31 10.333 -31 31v1155h-53c-20.667 0 -31 10.333 -31 31v106c0 20.667 10.333 31 31 31h53v131c0 20.667 10.333 31 31 31h188c20.667 0 31 -10.333 31 -31v-131h283
c20.667 0 31 -10.333 31 -31v-106c0 -20.667 -10.333 -31 -31 -31h-283v-262c88 60 194.667 90 320 90z" />
    <glyph glyph-name="Itilde" unicode="&#x128;" horiz-adv-x="894" 
d="M594 1597c-52 0 -107.332 17.5 -165.999 52.5s-96.334 52.5 -113.001 52.5c-24.667 0 -41 -13 -49 -39c-6.66699 -19.333 -17.667 -29 -33 -29h-141c-20.667 0 -30.334 10.333 -29.001 31c6.66699 69.333 31.334 124.833 74.001 166.5s96.667 62.5 162 62.5
c53.333 0 109 -17.333 167 -52s96 -52 114 -52c24.667 0 41 13 49 39c6.66699 19.333 17.667 29 33 29h141c22 0 31.333 -10.333 28 -31c-6.66699 -69.333 -31.5 -125 -74.5 -167s-97.167 -63 -162.5 -63zM92.001 0c-20.667 0 -31 10.333 -31 31v166
c0 20.667 10.333 30.667 31 30h225v979h-225c-20.667 0 -31 10.333 -31 31v166c0 20.667 10.333 31 31 31h711c20.667 0 31 -10.333 31 -31v-166c0 -20.667 -10.333 -31 -31 -31h-225v-979h225c20.667 0 31 -10 31 -30v-166c0 -20.667 -10.333 -31 -31 -31h-711z" />
    <glyph glyph-name="itilde" unicode="&#x129;" horiz-adv-x="536" 
d="M414 1159c-52 0 -107.333 17.501 -166 52.501s-96.334 52.5 -113.001 52.5c-24.667 0 -41 -13 -49 -39c-6.66699 -19.333 -17.667 -29 -33 -29h-141c-20.667 0 -30.334 10.333 -29.001 31c6.66699 69.333 31.167 124.833 73.5 166.5s96.5 62.5 162.5 62.5
c53.333 0 109 -17.333 167 -52s95.667 -52 113 -52c24.667 0 41.334 13 50.001 39c6.66699 19.333 17.334 28.666 32.001 27.999h142c22 0 31.333 -10 28 -30c-6.66699 -69.333 -31.5 -125 -74.5 -167s-97.167 -63 -162.5 -63zM362 983.001c20.667 0 31 -10.333 31 -31v-921
c0 -20.667 -10.333 -31 -31 -31h-188c-20.667 0 -31 10.333 -31 31v921c0 20.667 10.333 31 31 31h188z" />
    <glyph glyph-name="Imacron" unicode="&#x12a;" horiz-adv-x="894" 
d="M174 1595c-20.667 0 -31 10.333 -31 31v133c0 20.667 10.333 31 31 31h547c20.667 0 31 -10.333 31 -31v-133c0 -20.667 -10.333 -31 -31 -31h-547zM92 0c-20.667 0 -31 10.333 -31 31v166c0 20.667 10.333 30.667 31 30h225v979h-225c-20.667 0 -31 10.333 -31 31v166
c0 20.667 10.333 31 31 31h711c20.667 0 31 -10.333 31 -31v-166c0 -20.667 -10.333 -31 -31 -31h-225v-979h225c20.667 0 31 -10 31 -30v-166c0 -20.667 -10.333 -31 -31 -31h-711z" />
    <glyph glyph-name="imacron" unicode="&#x12b;" horiz-adv-x="536" 
d="M-6 1196c-20.667 0 -31 10.333 -31 31v133c0 20.667 10.333 31 31 31h547c20.667 0 30.667 -10.333 30 -31v-133c0 -20.667 -10 -31 -30 -31h-547zM362 983c20.667 0 31 -10.333 31 -31v-921c0 -20.667 -10.333 -31 -31 -31h-188c-20.667 -0 -31 10.333 -31 31v921
c0 20.667 10.333 31 31 31h188z" />
    <glyph glyph-name="Iogonek" unicode="&#x12e;" horiz-adv-x="894" 
d="M803 1206h-225v-979h225c20.667 0 31 -10 31 -30v-166c0 -20.667 -10.333 -31 -31 -31h-234c-45.333 -4 -81.5 -15.167 -108.5 -33.5s-40.5 -40.5 -40.5 -66.5c0 -22 11.5 -39.5 34.5 -52.5s53.833 -19.5 92.5 -19.5c28.667 0 49.667 1.33301 63 4
c20.667 4 32.334 -4.33301 35.001 -25l17 -114c2.66699 -20.667 -5 -33 -23 -37c-42 -9.33301 -81.667 -14 -119 -14c-92.667 0 -167.334 20 -224.001 60s-85 93 -85 159c0 56 18.333 102.333 55 139h-174c-20.667 -0 -31 10.333 -31 31v166c0 20.667 10.333 30.667 31 30
h225v979h-225c-20.667 0 -31 10.333 -31 31v166c0 20.667 10.333 31 31 31h711c20.667 0 31 -10.333 31 -31v-166c0 -20.667 -10.333 -31 -31 -31z" />
    <glyph glyph-name="iogonek" unicode="&#x12f;" horiz-adv-x="655" 
d="M268 1198c-44 0 -80.833 14 -110.5 42s-44.5 61.833 -44.5 101.5s15 73.5 45 101.5s66.667 42 110 42c42 0 78.5 -14 109.5 -42s46.5 -61.833 46.5 -101.5s-15.5 -73.5 -46.5 -101.5s-67.5 -42 -109.5 -42zM594 -307c2.66699 -20.667 -5.00195 -33 -23.002 -37
c-42 -9.33301 -81.333 -14 -118 -14c-92.667 0 -167.5 20 -224.5 60s-85.5 93 -85.5 159c0 56 18.667 102.333 56 139h-25c-20.667 -0 -31 10.333 -31 31v921c0 20.667 10.333 31 31 31h188c20.667 0 31 -10.333 31 -31v-858c18 4 47.333 9 88 15l21 -109
c-45.333 -4 -81.666 -15.167 -108.999 -33.5s-41 -40.5 -41 -66.5c0 -22 11.667 -39.5 35 -52.5s54 -19.5 92 -19.5c28.667 0 50 1.33301 64 4c20.667 4 32.334 -4.33301 35.001 -25z" />
    <glyph glyph-name="Idotaccent" unicode="&#x130;" horiz-adv-x="894" 
d="M448.5 1587c-43.667 0 -81.166 14.333 -112.499 43s-47 62.834 -47 102.501s15.667 73.5 47 101.5s69 42 113 42c42 0 78.667 -14 110 -42s47 -61.833 47 -101.5s-15.333 -73.834 -46 -102.501s-67.834 -43 -111.501 -43zM92.001 0c-20.667 0 -31 10.333 -31 31v166
c0 20.667 10.333 30.667 31 30h225v979h-225c-20.667 0 -31 10.333 -31 31v166c0 20.667 10.333 31 31 31h711c20.667 0 31 -10.333 31 -31v-166c0 -20.667 -10.333 -31 -31 -31h-225v-979h225c20.667 0 31 -10 31 -30v-166c0 -20.667 -10.333 -31 -31 -31h-711z" />
    <glyph glyph-name="dotlessi" unicode="&#x131;" horiz-adv-x="536" 
d="M362 983c20.667 0 31 -10.333 31 -31v-921c0 -20.667 -10.333 -31 -31 -31h-188c-20.667 -0 -31 10.333 -31 31v921c0 20.667 10.333 31 31 31h188z" />
    <glyph glyph-name="IJ" unicode="&#x132;" horiz-adv-x="2177" 
d="M92 0c-20.667 0 -31 10.333 -31 31v166c0 20.667 10.333 30.667 31 30h225v979h-225c-20.667 0 -31 10.333 -31 31v166c0 20.667 10.333 31 31 31h711c20.667 0 31 -10.333 31 -31v-166c0 -20.667 -10.333 -31 -31 -31h-225v-979h225c20.667 0 31 -10 31 -30v-166
c0 -20.667 -10.333 -31 -31 -31h-711zM1473 -31c-152.667 0 -278.667 40.333 -378 121s-155.666 188 -168.999 322c-2.66699 22 7.33301 32.667 30 32h201c18 0 28.333 -9.33301 31 -28c10.667 -65.333 43 -117.833 97 -157.5s122 -59.5 204 -59.5
c87.333 0 157.666 30 210.999 90s80 139 80 237v680h-627c-20.667 0 -31 10.333 -31 31v166c0 20.667 10.333 31 31 31h860c20.667 0 31 -10.333 31 -31v-885c0 -172 -50.5 -306.5 -151.5 -403.5s-240.833 -145.5 -419.5 -145.5z" />
    <glyph glyph-name="ij" unicode="&#x133;" horiz-adv-x="1077" 
d="M268 1198c-44 0 -80.833 14 -110.5 42s-44.5 61.833 -44.5 101.5s15 73.5 45 101.5s66.667 42 110 42c42 0 78.5 -14 109.5 -42s46.5 -61.833 46.5 -101.5s-15.5 -73.5 -46.5 -101.5s-67.5 -42 -109.5 -42zM809 1198c-44 0 -81 14 -111 42s-45 61.833 -45 101.5
s15 73.5 45 101.5s67 42 111 42c42 0 78.5 -14 109.5 -42s46.5 -61.833 46.5 -101.5s-15.5 -73.5 -46.5 -101.5s-67.5 -42 -109.5 -42zM174 0c-20.667 0 -31 10.333 -31 31v921c0 20.667 10.333 31 31 31h188c20.667 0 31 -10.333 31 -31v-921
c0 -20.667 -10.333 -31 -31 -31h-188zM532 -502c-19.333 0 -30 9.66699 -32 29l-25 147c-4 19.333 5 30.333 27 33c69.333 6.66699 117 24.667 143 54s39 79 39 149v1042c0 20.667 10.333 31 31 31h188c20.667 0 31 -10.333 31 -31v-1011
c-0.666992 -295.333 -134.667 -443 -402 -443z" />
    <glyph glyph-name="uni0136" unicode="&#x136;" horiz-adv-x="1507" 
d="M1468 37c9.33301 -9.33301 11.666 -17.834 6.99902 -25.501s-13 -11.5 -25 -11.5h-258c-12 0 -24.333 6 -37 18l-741 687v-674c0 -20.667 -10.333 -31 -31 -31h-199c-20.667 0 -30.667 10.333 -30 31v1372c0 20.667 10 31 30 31h199c20.667 0 31 -10.333 31 -31v-686
l686 700c9.33301 10.667 22.333 16.334 39 17.001h243c13.333 0 21.833 -3.83301 25.5 -11.5s0.833984 -16.167 -8.49902 -25.5l-666 -680zM754 -102.001c40.667 0 75.002 -12.334 103.002 -37.001s42 -54 42 -88c0 -31.333 -11.667 -66.333 -35 -105l-96 -160
c-6.66699 -10.667 -18.334 -16 -35.001 -16h-84c-24.667 0 -31.334 10.333 -20.001 31l69 133c-60 13.333 -90 51 -90 113c0 36.667 13.333 67.334 40 92.001s62 37 106 37z" />
    <glyph glyph-name="uni0137" unicode="&#x137;" horiz-adv-x="1220" 
d="M1190 37c9.33301 -9.33301 11.668 -17.833 7.00098 -25.5s-13.334 -11.5 -26.001 -11.5h-249c-12 0 -24.333 6 -37 18l-492 451v-438c0 -20.667 -10.333 -31 -31 -31h-188c-20.667 -0 -31 10.333 -31 31v1454c0 20.667 10.333 31 31 31h188c20.667 0 31 -10.333 31 -31
v-993l455 475c9.33301 10.667 22.333 16 39 16h223c13.333 0 21.5 -3.33301 24.5 -10s-0.5 -15.667 -10.5 -27l-434 -454zM610.002 -102c40.667 0 75.168 -12.334 103.501 -37.001s42.5 -54 42.5 -88c0 -31.333 -11.667 -66.333 -35 -105l-96 -160
c-6.66699 -10.667 -18.334 -16 -35.001 -16h-84c-24.667 0 -31.667 10.333 -21 31l70 133c-60 13.333 -90 51 -90 113c0 36.667 13.167 67.334 39.5 92.001s61.5 37 105.5 37z" />
    <glyph glyph-name="kgreenlandic" unicode="&#x138;" horiz-adv-x="1220" 
d="M1190 37c9.33301 -9.33301 11.668 -17.833 7.00098 -25.5s-13.334 -11.5 -26.001 -11.5h-249c-12 0 -24.333 6 -37 18l-492 451v-438c0 -20.667 -10.333 -31 -31 -31h-188c-20.667 -0 -31 10.333 -31 31v921c0 20.667 10.333 31 31 31h188c20.667 0 31 -10.333 31 -31
v-460l455 475c9.33301 10.667 22.333 16 39 16h223c13.333 0 21.5 -3.33301 24.5 -10s-0.5 -15.667 -10.5 -27l-434 -454z" />
    <glyph glyph-name="Lacute" unicode="&#x139;" horiz-adv-x="1241" 
d="M197 1579c-10.667 0 -18.5 3.83398 -23.5 11.501s-4.83301 16.167 0.5 25.5l135 252c6.66699 15.333 19 22.666 37 21.999h209c27.333 0 33.333 -12.333 18 -37l-176 -256c-8 -12 -21 -18 -39 -18h-161zM414 221.001h745c20.667 0 31 -10.333 31 -31v-159
c0 -20.667 -10.333 -31 -31 -31h-975c-20.667 0 -30.667 10.333 -30 31v1372c0 20.667 10 31 30 31h199c20.667 0 31 -10.333 31 -31v-1182z" />
    <glyph glyph-name="lacute" unicode="&#x13a;" horiz-adv-x="655" 
d="M180 1661c-10.667 0 -18.332 3.66797 -22.999 11.001s-4.33398 16 0.999023 26l135 252c6.66699 15.333 19 22.666 37 21.999h209c27.333 0 33.333 -12.333 18 -37l-176 -256c-8 -12 -21 -18 -39 -18h-162zM430.002 -30.999c-86 0 -155.334 20.832 -208.001 62.499
s-79 96.834 -79 165.501v1288c0 20.667 10.333 31 31 31h188c20.667 0 31 -10.333 31 -31v-1221c0 -23.333 6.5 -41.833 19.5 -55.5s30.5 -20.5 52.5 -20.5s47.333 3 76 9c22 4 34.333 -4.33301 37 -25l16 -141c2.66699 -18 -5.66602 -30.333 -24.999 -37
c-52 -16.667 -98.333 -25 -139 -25z" />
    <glyph glyph-name="uni013B" unicode="&#x13b;" horiz-adv-x="1241" 
d="M414 221h745c20.667 0 31 -10.333 31 -31v-159c0 -20.667 -10.333 -31 -31 -31h-975c-20.667 -0 -30.667 10.333 -30 31v1372c0 20.667 10 31 30 31h199c20.667 0 31 -10.333 31 -31v-1182zM557 -508c-24.667 0 -31.332 10.332 -19.999 30.999l69 133
c-60 13.333 -90 51 -90 113c0 36.667 13.333 67.334 40 92.001s62 37 106 37c40.667 0 75 -12.333 103 -37s42 -54 42 -88c0 -31.333 -11.667 -66.333 -35 -105l-96 -160c-6.66699 -10.667 -18.334 -16 -35.001 -16h-84z" />
    <glyph glyph-name="uni013C" unicode="&#x13c;" horiz-adv-x="655" 
d="M430 -31c-86 0 -155.334 20.832 -208.001 62.499s-79 96.834 -79 165.501v1288c0 20.667 10.333 31 31 31h188c20.667 0 31 -10.333 31 -31v-1221c0 -23.333 6.5 -41.833 19.5 -55.5s30.5 -20.5 52.5 -20.5s47.333 3 76 9c22 4 34.333 -4.33301 37 -25l16 -141
c2.66699 -18 -5.66602 -30.333 -24.999 -37c-52 -16.667 -98.333 -25 -139 -25zM222.999 -508.001c-24.667 0 -31.332 10.332 -19.999 30.999l69 133c-60 13.333 -90 51 -90 113c0 36.667 13.333 67.334 40 92.001s62 37 106 37c40.667 0 75 -12.333 103 -37s42 -54 42 -88
c0 -31.333 -11.667 -66.333 -35 -105l-96 -160c-6.66699 -10.667 -18.334 -16 -35.001 -16h-84z" />
    <glyph glyph-name="Lcaron" unicode="&#x13d;" horiz-adv-x="1241" 
d="M414 221h745c20.667 0 31 -10.333 31 -31v-159c0 -20.667 -10.333 -31 -31 -31h-975c-20.667 -0 -30.667 10.333 -30 31v1372c0 20.667 10 31 30 31h199c20.667 0 31 -10.333 31 -31v-1182zM743 1026c-19.333 0 -28.667 10.333 -28 31l12 346c0 20.667 11 31 33 31h188
c23.333 0 33 -11 29 -33l-66 -348c-4 -18 -15.333 -27 -34 -27h-134z" />
    <glyph glyph-name="lcaron" unicode="&#x13e;" horiz-adv-x="655" 
d="M569 1110c-19.333 0 -28.667 10.333 -28 31l12 346c0 20.667 11 31 33 31h188c23.333 0 33 -11 29 -33l-66 -348c-4 -18 -15.667 -27 -35 -27h-133zM429.999 -31c-86 0 -155.334 20.832 -208.001 62.499s-79 96.834 -79 165.501v1288c0 20.667 10.333 31 31 31h188
c20.667 0 31 -10.333 31 -31v-1221c0 -23.333 6.5 -41.833 19.5 -55.5s30.5 -20.5 52.5 -20.5s47.333 3 76 9c22 4 34.333 -4.33301 37 -25l16 -141c2.66699 -18 -5.66602 -30.333 -24.999 -37c-52 -16.667 -98.333 -25 -139 -25z" />
    <glyph glyph-name="Ldot" unicode="&#x13f;" horiz-adv-x="1241" 
d="M414 221h745c20.667 0 31 -10.333 31 -31v-159c0 -20.667 -10.333 -31 -31 -31h-975c-20.667 -0 -30.667 10.333 -30 31v1372c0 20.667 10 31 30 31h199c20.667 0 31 -10.333 31 -31v-1182zM838 578c-39.333 0 -73.5 13.5 -102.5 40.5s-43.5 59.667 -43.5 98
s14.333 71.166 43 98.499s63 41 103 41c40.667 0 75.334 -13.667 104.001 -41s43 -60.166 43 -98.499s-14.333 -71 -43 -98s-63.334 -40.5 -104.001 -40.5z" />
    <glyph glyph-name="ldot" unicode="&#x140;" horiz-adv-x="655" 
d="M430 -31c-86 0 -155.334 20.832 -208.001 62.499s-79 96.834 -79 165.501v1288c0 20.667 10.333 31 31 31h188c20.667 0 31 -10.333 31 -31v-1221c0 -23.333 6.5 -41.833 19.5 -55.5s30.5 -20.5 52.5 -20.5s47.333 3 76 9c22 4 34.333 -4.33301 37 -25l16 -141
c2.66699 -18 -5.66602 -30.333 -24.999 -37c-52 -16.667 -98.333 -25 -139 -25zM626.999 433.999c-39.333 0 -73.5 13.667 -102.5 41s-43.5 60.166 -43.5 98.499s14.333 71.166 43 98.499s63 41 103 41c40.667 0 75.334 -13.667 104.001 -41s43 -60.166 43 -98.499
s-14.333 -71.166 -43 -98.499s-63.334 -41 -104.001 -41z" />
    <glyph glyph-name="Lslash" unicode="&#x141;" horiz-adv-x="1241" 
d="M1159 221c20.667 0 31 -10.333 31 -31v-159c0 -20.667 -10.333 -31 -31 -31h-975c-20.667 -0 -30.667 10.333 -30 31v493l-103 -41c-23.333 -9.33301 -35 -1 -35 25v141c0 18 8.33301 30.333 25 37l113 45v672c0 20.667 10 31 30 31h199c20.667 0 31 -10.333 31 -31v-572
l313 123c23.333 9.33301 35 1.33301 35 -24v-142c0 -18 -8.33301 -30 -25 -36l-323 -127v-404h745z" />
    <glyph glyph-name="lslash" unicode="&#x142;" horiz-adv-x="655" 
d="M594 31c2.66699 -18 -5.66699 -30.334 -25 -37.001c-52 -16.667 -98.333 -25 -139 -25c-86 0 -155.333 20.833 -208 62.5s-79 96.834 -79 165.501v391l-106 -43c-23.333 -9.33301 -35 -1.33301 -35 24v176c0 19.333 8.33301 31.666 25 36.999l116 47v656
c0 20.667 10.333 31 31 31h188c20.667 0 31 -10.333 31 -31v-555l109 43c23.333 9.33301 35 1 35 -25v-174c0 -19.333 -8.33301 -31.666 -25 -36.999l-119 -47v-426c0 -23.333 6.5 -41.833 19.5 -55.5s30.5 -20.5 52.5 -20.5s47.333 3 76 9c22 4 34.333 -4.33301 37 -25z
" />
    <glyph glyph-name="Nacute" unicode="&#x143;" horiz-adv-x="1611" 
d="M719 1579c-10.667 0 -18.499 3.83398 -23.499 11.501s-4.83301 16.167 0.5 25.5l135 252c8 15.333 20.333 22.666 37 21.999h209c27.333 0 33.666 -12.333 18.999 -37l-176 -256c-8 -12 -21 -18 -39 -18h-162zM1198 1403c0 20.667 10.333 31 31 31h198
c20.667 0 31 -10.333 31 -31v-1372c0 -20.667 -10.333 -31 -31 -31h-151c-15.333 0 -27.666 5.33301 -36.999 16l-825 957v-942c0 -20.667 -10.333 -31 -31 -31h-199c-20.667 0 -30.667 10.333 -30 31v1372c0 20.667 10 31 30 31h144c15.333 0 27.666 -5.66699 36.999 -17
l833 -979v965z" />
    <glyph glyph-name="nacute" unicode="&#x144;" horiz-adv-x="1382" 
d="M674 1157c-10.667 0 -18.499 3.83398 -23.499 11.501s-4.83301 16.167 0.5 25.5l135 252c8 15.333 20.333 22.666 37 21.999h209c27.333 0 33.666 -12 18.999 -36l-177 -256c-8 -12 -20.667 -18.333 -38 -19h-162zM811.001 1014c134 0 242.332 -42.665 324.999 -127.998
s124 -197.666 124 -336.999v-518c0 -20.667 -10.333 -31 -31 -31h-189c-20.667 0 -30.667 10.333 -30 31v504c0 79.333 -23.333 143.166 -70 191.499s-107.334 72.5 -182.001 72.5c-79.333 0 -143.5 -22.833 -192.5 -68.5s-73.5 -106.167 -73.5 -181.5v-518
c0 -20.667 -10.333 -31 -31 -31h-189c-20.667 0 -30.667 10.333 -30 31v688c0 50.667 -28.667 76 -86 76c-9.33301 0 -28.666 -2.33301 -57.999 -7c-24.667 -2.66699 -37 5.66602 -37 24.999v143c0 19.333 8.33301 31.666 25 36.999c36.667 13.333 78.334 20.333 125.001 21
c113.333 0 191 -43 233 -129c90.667 86 213 129 367 129z" />
    <glyph glyph-name="uni0145" unicode="&#x145;" horiz-adv-x="1611" 
d="M1198 1403c0 20.667 10.333 31 31 31h198c20.667 0 31 -10.333 31 -31v-1372c0 -20.667 -10.333 -31 -31 -31h-151c-15.333 -0 -27.666 5.33301 -36.999 16l-825 957v-942c0 -20.667 -10.333 -31 -31 -31h-199c-20.667 -0 -30.667 10.333 -30 31v1372
c0 20.667 10 31 30 31h144c15.333 0 27.666 -5.66699 36.999 -17l833 -979v965zM702 -508c-24.667 0 -31.332 10.332 -19.999 30.999l70 133c-60 13.333 -90 51 -90 113c0 36.667 13.167 67.334 39.5 92.001s61.5 37 105.5 37c40.667 0 75 -12.333 103 -37s42 -54 42 -88
c0 -31.333 -11.333 -66.333 -34 -105l-97 -160c-6.66699 -10.667 -18.334 -16 -35.001 -16h-84z" />
    <glyph glyph-name="uni0146" unicode="&#x146;" horiz-adv-x="1382" 
d="M811 1014c134 0 242.332 -42.665 324.999 -127.998s124 -197.666 124 -336.999v-518c0 -20.667 -10.333 -31 -31 -31h-189c-20.667 0 -30.667 10.333 -30 31v504c0 79.333 -23.333 143.166 -70 191.499s-107.334 72.5 -182.001 72.5
c-79.333 0 -143.5 -22.833 -192.5 -68.5s-73.5 -106.167 -73.5 -181.5v-518c0 -20.667 -10.333 -31 -31 -31h-189c-20.667 0 -30.667 10.333 -30 31v688c0 50.667 -28.667 76 -86 76c-9.33301 0 -28.666 -2.33301 -57.999 -7c-24.667 -2.66699 -37 5.66602 -37 24.999v143
c0 19.333 8.33301 31.666 25 36.999c36.667 13.333 78.334 20.333 125.001 21c113.333 0 191 -43 233 -129c90.667 86 213 129 367 129zM761.999 -101.998c40.667 0 75.002 -12.334 103.002 -37.001s42 -54 42 -88c0 -31.333 -11.667 -66.333 -35 -105l-96 -160
c-6.66699 -10.667 -18.334 -16 -35.001 -16h-84c-24.667 0 -31.334 10.333 -20.001 31l70 133c-60 13.333 -90.333 51 -91 113c0 36.667 13.333 67.334 40 92.001s62 37 106 37z" />
    <glyph glyph-name="Ncaron" unicode="&#x147;" horiz-adv-x="1611" 
d="M709 1571c-13.333 0 -25.6631 6 -36.9961 18l-213 256c-8 9.33301 -10.333 17.833 -7 25.5s11.666 11.5 24.999 11.5h162c15.333 0 27.666 -5.33301 36.999 -16l131 -146l131 146c9.33301 10.667 21.666 16 36.999 16h162c13.333 0 21.666 -3.66699 24.999 -11
s1 -16 -7 -26l-213 -256c-10.667 -12 -23 -18 -37 -18h-196zM1198 1403c0 20.667 10.333 31 31 31h198c20.667 0 31 -10.333 31 -31v-1372c0 -20.667 -10.333 -31 -31 -31h-151c-15.333 -0 -27.666 5.33301 -36.999 16l-825 957v-942c0 -20.667 -10.333 -31 -31 -31h-199
c-20.667 -0 -30.667 10.333 -30 31v1372c0 20.667 10 31 30 31h144c15.333 0 27.666 -5.66699 36.999 -17l833 -979v965z" />
    <glyph glyph-name="ncaron" unicode="&#x148;" horiz-adv-x="1382" 
d="M627 1157l-212.996 256c-8 10.667 -10.333 19.5 -7 26.5s11.666 10.5 24.999 10.5h162c15.333 0 27.666 -5.33301 36.999 -16l131 -146l131 146c9.33301 10.667 21.666 16 36.999 16h162c13.333 0 21.666 -3.33301 24.999 -10s1 -15.667 -7 -27l-213 -256
c-10.667 -12 -23 -18 -37 -18h-196c-14 0 -26.333 6 -37 18zM811.004 1014c134 0 242.332 -42.665 324.999 -127.998s124 -197.666 124 -336.999v-518c0 -20.667 -10.333 -31 -31 -31h-189c-20.667 0 -30.667 10.333 -30 31v504c0 79.333 -23.333 143.166 -70 191.499
s-107.334 72.5 -182.001 72.5c-79.333 0 -143.5 -22.833 -192.5 -68.5s-73.5 -106.167 -73.5 -181.5v-518c0 -20.667 -10.333 -31 -31 -31h-189c-20.667 0 -30.667 10.333 -30 31v688c0 50.667 -28.667 76 -86 76c-9.33301 0 -28.666 -2.33301 -57.999 -7
c-24.667 -2.66699 -37 5.66602 -37 24.999v143c0 19.333 8.33301 31.666 25 36.999c36.667 13.333 78.334 20.333 125.001 21c113.333 0 191 -43 233 -129c90.667 86 213 129 367 129z" />
    <glyph glyph-name="Eng" unicode="&#x14a;" horiz-adv-x="1611" 
d="M1427 1434c20.667 0 31.001 -10.333 31.001 -31v-1372v-4c-4 -165.333 -56.5 -294.833 -157.5 -388.5s-238.833 -140.5 -413.5 -140.5c-87.333 0 -163.333 11 -228 33c-19.333 6.66699 -27.333 19 -24 37l24 153c2.66699 20.667 15 29 37 25
c61.333 -12 115.333 -18 162 -18c224 0 336 112.667 336 338v2l-780 905v-942c0 -20.667 -10.333 -31 -31 -31h-199c-20.667 -0 -30.667 10.333 -30 31v1372c0 20.667 10 31 30 31h144c15.333 0 27.666 -5.66699 36.999 -17l833 -979v965c0 20.667 10.333 31 31 31h198z" />
    <glyph glyph-name="eng" unicode="&#x14b;" horiz-adv-x="1372" 
d="M811 1014c134 0 242.332 -42.6641 324.999 -127.997s124 -197.666 124 -336.999v-608c0 -294.667 -134 -442.334 -402 -443.001c-19.333 0 -30.333 9.66699 -33 29l-24 147c-4 19.333 4.66699 30.333 26 33c69.333 6.66699 117.166 24.667 143.499 54s39.5 79 39.5 149
v625c0 79.333 -23.333 143.166 -70 191.499s-107.334 72.5 -182.001 72.5c-79.333 0 -143.166 -22.833 -191.499 -68.5s-72.5 -106.167 -72.5 -181.5v-518c0 -20.667 -10.333 -31 -31 -31h-191c-20.667 0 -30.667 10.333 -30 31v688c0 50.667 -28.667 76 -86 76
c-9.33301 0 -28.666 -2.33301 -57.999 -7c-24.667 -2.66699 -37 5.66602 -37 24.999v143c0 19.333 8.33301 31.666 25 36.999c36.667 13.333 78.334 20.333 125.001 21c113.333 0 191 -43 233 -129c90.667 86 213 129 367 129z" />
    <glyph glyph-name="Omacron" unicode="&#x14c;" horiz-adv-x="1765" 
d="M608 1595c-20.667 0 -30.667 10.333 -30 31v133c0 20.667 10 31 30 31h547c20.667 0 31 -10.333 31 -31v-133c0 -20.667 -10.333 -31 -31 -31h-547zM883 -29c-225.333 0 -410 69.667 -554 209s-216 318.166 -216 536.499s72 397.166 216 536.499s328.667 209 554 209
s410 -69.667 554 -209s216 -318.166 216 -536.499s-72 -397.166 -216 -536.499s-328.667 -209 -554 -209zM882.5 201c149 0 270.667 48 365 144s141.5 219.833 141.5 371.5s-47.167 275.667 -141.5 372s-216 144.5 -365 144.5s-270.5 -48.167 -364.5 -144.5
s-141 -220.333 -141 -372s47 -275.5 141 -371.5s215.5 -144 364.5 -144z" />
    <glyph glyph-name="omacron" unicode="&#x14d;" horiz-adv-x="1277" 
d="M365 1196c-20.667 0 -31 10.333 -31 31v133c0 20.667 10.333 31 31 31h546c20.667 0 31 -10.333 31 -31v-133c0 -20.667 -10.333 -31 -31 -31h-546zM639 -31c-164 0 -296.167 47.833 -396.5 143.5s-150.5 222 -150.5 379s50.167 283.333 150.5 379
s232.5 143.5 396.5 143.5s296.167 -47.833 396.5 -143.5s150.5 -222 150.5 -379s-50.167 -283.333 -150.5 -379s-232.5 -143.5 -396.5 -143.5zM639 184c88.667 0 160.334 28 215.001 84s82 130.5 82 223.5s-27.333 167.5 -82 223.5s-126.334 84 -215.001 84
s-160.334 -28 -215.001 -84s-82 -130.5 -82 -223.5s27.333 -167.5 82 -223.5s126.334 -84 215.001 -84z" />
    <glyph glyph-name="Ohungarumlaut" unicode="&#x150;" horiz-adv-x="1765" 
d="M647 1589c-24.667 0 -31.998 12.333 -21.998 37l108 252c5.33301 15.333 17.666 23 36.999 23h191c26 0 32 -12.333 18 -37l-150 -256c-6.66699 -12 -19.334 -18.333 -38.001 -19h-144zM965.002 1589c-24.667 0 -32.333 12.333 -23 37l109 252
c5.33301 15.333 17.333 23 36 23h191c27.333 0 33.333 -12.333 18 -37l-149 -256c-5.33301 -12 -18.333 -18.333 -39 -19h-143zM883.003 -29c-225.333 0 -410 69.667 -554 209s-216 318.166 -216 536.499s72 397.166 216 536.499s328.667 209 554 209s410 -69.667 554 -209
s216 -318.166 216 -536.499s-72 -397.166 -216 -536.499s-328.667 -209 -554 -209zM882.503 201c149 0 270.667 48 365 144s141.5 219.833 141.5 371.5s-47.167 275.667 -141.5 372s-216 144.5 -365 144.5s-270.5 -48.167 -364.5 -144.5s-141 -220.333 -141 -372
s47 -275.5 141 -371.5s215.5 -144 364.5 -144z" />
    <glyph glyph-name="ohungarumlaut" unicode="&#x151;" horiz-adv-x="1277" 
d="M403 1157c-24.667 0 -31.999 12.334 -21.999 37.001l108 252c5.33301 15.333 17.666 22.666 36.999 21.999h191c27.333 0 33.333 -12 18 -36l-149 -256c-5.33301 -12 -18.333 -18.333 -39 -19h-144zM721.001 1157c-24.667 0 -32.332 12.334 -22.999 37.001l109 252
c5.33301 15.333 17.666 22.666 36.999 21.999h190c26 0 32.333 -12 19 -36l-150 -256c-6.66699 -12 -19.667 -18.333 -39 -19h-143zM639.003 -30.998c-164 0 -296.167 47.833 -396.5 143.5s-150.5 222 -150.5 379s50.167 283.333 150.5 379s232.5 143.5 396.5 143.5
s296.167 -47.833 396.5 -143.5s150.5 -222 150.5 -379s-50.167 -283.333 -150.5 -379s-232.5 -143.5 -396.5 -143.5zM639.003 184.002c88.667 0 160.334 28 215.001 84s82 130.5 82 223.5s-27.333 167.5 -82 223.5s-126.334 84 -215.001 84s-160.334 -28 -215.001 -84
s-82 -130.5 -82 -223.5s27.333 -167.5 82 -223.5s126.334 -84 215.001 -84z" />
    <glyph glyph-name="OE" unicode="&#x152;" horiz-adv-x="2134" 
d="M862 0c-240 0 -433.5 65.5 -580.5 196.5s-220.5 304.333 -220.5 520s73.5 389.167 220.5 520.5s340.5 197 580.5 197h1149c20.667 0 31 -10.333 31 -31v-166c0 -20.667 -10.333 -31 -31 -31h-780v-385h694c20.667 0 31 -10 31 -30v-166c0 -20.667 -10.333 -31 -31 -31
h-694v-367h780c20.667 0 31 -10 31 -30v-166c0 -20.667 -10.333 -31 -31 -31h-1149zM891 227h80v979h-80c-168 0 -303.5 -45 -406.5 -135s-154.5 -208 -154.5 -354s51.5 -264.167 154.5 -354.5s238.5 -135.5 406.5 -135.5z" />
    <glyph glyph-name="oe" unicode="&#x153;" horiz-adv-x="2074" 
d="M639 -31c-164 0 -296.169 47.833 -396.502 143.5s-150.5 222 -150.5 379s50.167 283.333 150.5 379s232.5 143.5 396.5 143.5c178.667 0 318.667 -56 420 -168c100 112 235.667 168 407 168c154 0 278.5 -47.167 373.5 -141.5s142.5 -218.5 142.5 -372.5
c0 -42 -1.33301 -69.333 -4 -82c-4 -18 -15.333 -27 -34 -27h-756c19.333 -68 55.5 -121.833 108.5 -161.5s116.5 -59.5 190.5 -59.5c82 0 146.667 24 194 72c12 12 25 18 39 18h203c10.667 0 18.834 -3.33301 24.501 -10s5.83398 -15 0.500977 -25
c-38 -76.667 -98.833 -138.5 -182.5 -185.5s-178.5 -70.5 -284.5 -70.5c-178.667 0 -318.667 56.667 -420 170c-101.333 -113.333 -242 -170 -422 -170zM1182 567l547 -0.000976562c-2.66699 72.667 -27 131.834 -73 177.501s-107.167 68.5 -183.5 68.5
s-141.5 -22.5 -195.5 -67.5s-85.667 -104.5 -95 -178.5zM638.998 183.999c88.667 0 160.334 28 215.001 84s82 130.5 82 223.5s-27.333 167.5 -82 223.5s-126.334 84 -215.001 84s-160.334 -28 -215.001 -84s-82 -130.5 -82 -223.5s27.333 -167.5 82 -223.5
s126.334 -84 215.001 -84z" />
    <glyph glyph-name="Racute" unicode="&#x154;" horiz-adv-x="1466" 
d="M645 1579c-10.667 0 -18.5 3.83398 -23.5 11.501s-4.5 16.167 1.5 25.5l135 252c8 15.333 20.333 22.666 37 21.999h209c27.333 0 33.333 -12.333 18 -37l-176 -256c-8 -12 -21 -18 -39 -18h-162zM1407 37.001c8 -10.667 10.3301 -19.5 6.99707 -26.5
s-11.666 -10.5 -24.999 -10.5h-246c-13.333 0 -25.666 6 -36.999 18l-401 482h-291v-469c0 -20.667 -10.333 -31 -31 -31h-199c-20.667 0 -30.667 10.333 -30 31v1372c0 20.667 10 31 30 31h592c166.667 0 300.834 -42.667 402.501 -128s152.5 -198.333 152.5 -339
c0 -113.333 -29.333 -206.5 -88 -279.5s-142 -124.833 -250 -155.5zM413.997 1206v-479.001h315c104 0 187.667 21.833 251 65.5s95 101.834 95 174.501c0 70.667 -30 128.167 -90 172.5s-138.333 66.5 -235 66.5h-336z" />
    <glyph glyph-name="racute" unicode="&#x155;" horiz-adv-x="1028" 
d="M426 1157c-10.667 0 -18.499 3.83398 -23.499 11.501s-4.83301 16.167 0.5 25.5l136 252c6.66699 15.333 18.667 22.666 36 21.999h209c27.333 0 33.666 -12 18.999 -36l-176 -256c-8 -12 -21 -18.333 -39 -19h-162zM944.001 993.001
c18 -5.33301 25.666 -17.665 22.999 -36.998l-25 -153c-4 -20.667 -16.333 -29 -37 -25c-38 6.66699 -77 10 -117 10c-87.333 0 -158.5 -27.167 -213.5 -81.5s-82.5 -125.833 -82.5 -214.5v-461c0 -20.667 -10.333 -31 -31 -31h-189c-20.667 0 -30.667 10.333 -30 31v688
c0 50.667 -28.667 76 -86 76c-9.33301 0 -28.666 -2.33301 -57.999 -7c-24.667 -2.66699 -37 5.66602 -37 24.999v143c0 19.333 8.33301 31.666 25 36.999c44 13.333 85.667 20.333 125 21c124 0 204 -49.333 240 -148c90 98 203.333 147.333 340 148
c56.667 -0.666992 107.667 -7.66699 153 -21z" />
    <glyph glyph-name="uni0156" unicode="&#x156;" horiz-adv-x="1466" 
d="M1407 37c8 -10.667 10.3301 -19.5 6.99707 -26.5s-11.666 -10.5 -24.999 -10.5h-246c-13.333 0 -25.666 6 -36.999 18l-401 482h-291v-469c0 -20.667 -10.333 -31 -31 -31h-199c-20.667 -0 -30.667 10.333 -30 31v1372c0 20.667 10 31 30 31h592
c166.667 0 300.834 -42.667 402.501 -128s152.5 -198.333 152.5 -339c0 -113.333 -29.333 -206.5 -88 -279.5s-142 -124.833 -250 -155.5zM413.997 1206v-479.001h315c104 0 187.667 21.833 251 65.5s95 101.834 95 174.501c0 70.667 -30 128.167 -90 172.5
s-138.333 66.5 -235 66.5h-336zM732.997 -102.001c40.667 0 75.168 -12.334 103.501 -37.001s42.5 -54 42.5 -88c0 -31.333 -11.667 -66.333 -35 -105l-96 -160c-6.66699 -10.667 -18.334 -16 -35.001 -16h-84c-24.667 0 -31.667 10.333 -21 31l70 133
c-60 13.333 -90 51 -90 113c0 36.667 13.167 67.334 39.5 92.001s61.5 37 105.5 37z" />
    <glyph glyph-name="uni0157" unicode="&#x157;" horiz-adv-x="1028" 
d="M944 993c18 -5.33301 25.666 -17.665 22.999 -36.998l-25 -153c-4 -20.667 -16.333 -29 -37 -25c-38 6.66699 -77 10 -117 10c-87.333 0 -158.5 -27.167 -213.5 -81.5s-82.5 -125.833 -82.5 -214.5v-461c0 -20.667 -10.333 -31 -31 -31h-189
c-20.667 0 -30.667 10.333 -30 31v688c0 50.667 -28.667 76 -86 76c-9.33301 0 -28.666 -2.33301 -57.999 -7c-24.667 -2.66699 -37 5.66602 -37 24.999v143c0 19.333 8.33301 31.666 25 36.999c44 13.333 85.667 20.333 125 21c124 0 204 -49.333 240 -148
c90 98 203.333 147.333 340 148c56.667 -0.666992 107.667 -7.66699 153 -21zM368.999 -101.999c40.667 0 75.002 -12.334 103.002 -37.001s42 -54 42 -88c0 -31.333 -11.667 -66.333 -35 -105l-96 -160c-6.66699 -10.667 -18.334 -16 -35.001 -16h-84
c-24.667 0 -31.334 10.333 -20.001 31l69 133c-60 13.333 -90 51 -90 113c0 36.667 13.333 67.334 40 92.001s62 37 106 37z" />
    <glyph glyph-name="Rcaron" unicode="&#x158;" horiz-adv-x="1466" 
d="M598 1589l-212.997 256c-8 9.33301 -10.333 17.833 -7 25.5s11.666 11.5 24.999 11.5h162c15.333 0 27.666 -5.33301 36.999 -16l131 -146l131 146c9.33301 10.667 21.666 16 36.999 16h162c13.333 0 21.833 -3.66699 25.5 -11s1.16699 -16 -7.5 -26l-213 -256
c-10.667 -12 -23 -18 -37 -18h-196c-14 0 -26.333 6 -37 18zM1407 37c8 -10.667 10.3301 -19.5 6.99707 -26.5s-11.666 -10.5 -24.999 -10.5h-246c-13.333 0 -25.666 6 -36.999 18l-401 482h-291v-469c0 -20.667 -10.333 -31 -31 -31h-199c-20.667 -0 -30.667 10.333 -30 31
v1372c0 20.667 10 31 30 31h592c166.667 0 300.834 -42.667 402.501 -128s152.5 -198.333 152.5 -339c0 -113.333 -29.333 -206.5 -88 -279.5s-142 -124.833 -250 -155.5zM414 1206v-479.001h315c104 0 187.667 21.833 251 65.5s95 101.834 95 174.501
c0 70.667 -30 128.167 -90 172.5s-138.333 66.5 -235 66.5h-336z" />
    <glyph glyph-name="rcaron" unicode="&#x159;" horiz-adv-x="1028" 
d="M379 1157l-212.998 256c-8 10.667 -10.333 19.5 -7 26.5s11.666 10.5 24.999 10.5h162c15.333 0 27.666 -5.33301 36.999 -16l131 -146l131 146c9.33301 10.667 21.666 16 36.999 16h162c13.333 0 21.666 -3.33301 24.999 -10s1 -15.667 -7 -27l-213 -256
c-9.33301 -12 -21.666 -18 -36.999 -18h-196c-15.333 0 -27.666 6 -36.999 18zM944.002 993c18 -5.33301 25.666 -17.665 22.999 -36.998l-25 -153c-4 -20.667 -16.333 -29 -37 -25c-38 6.66699 -77 10 -117 10c-87.333 0 -158.5 -27.167 -213.5 -81.5
s-82.5 -125.833 -82.5 -214.5v-461c0 -20.667 -10.333 -31 -31 -31h-189c-20.667 0 -30.667 10.333 -30 31v688c0 50.667 -28.667 76 -86 76c-9.33301 0 -28.666 -2.33301 -57.999 -7c-24.667 -2.66699 -37 5.66602 -37 24.999v143c0 19.333 8.33301 31.666 25 36.999
c44 13.333 85.667 20.333 125 21c124 0 204 -49.333 240 -148c90 98 203.333 147.333 340 148c56.667 -0.666992 107.667 -7.66699 153 -21z" />
    <glyph glyph-name="Sacute" unicode="&#x15a;" horiz-adv-x="1431" 
d="M629 1579c-10.667 0 -18.499 3.83398 -23.499 11.501s-4.83301 16.167 0.5 25.5l135 252c8 15.333 20.333 22.666 37 21.999h209c27.333 0 33.666 -12.333 18.999 -37l-177 -256c-8 -12 -20.667 -18 -38 -18h-162zM735.001 -28.999c-173.333 0 -317.665 41 -432.998 123
s-182 191.333 -200 328c-2.66699 22 7.66602 33 30.999 33h197c18 0 28.667 -9.66699 32 -29c15.333 -72.667 58.166 -130.5 128.499 -173.5s156.833 -64.5 259.5 -64.5c87.333 0 157.166 17.5 209.499 52.5s78.5 81.833 78.5 140.5c0 48 -16 86.667 -48 116
s-74 50.5 -126 63.5s-109 24.5 -171 34.5s-124 22.833 -186 38.5s-119 37.167 -171 64.5s-94 69 -126 125s-48 125 -48 207c0 130 50.5 234.833 151.5 314.5s234.167 119.5 399.5 119.5c161.333 0 295.833 -37.167 403.5 -111.5s171.834 -173.5 192.501 -297.5
c4 -22 -5.66699 -33 -29 -33h-199c-18 0 -29.333 9 -34 27c-16.667 64 -52.667 114 -108 150s-124.666 54 -207.999 54c-88.667 0 -160 -18.667 -214 -56s-81 -87.333 -81 -150c0 -56 21.5 -100.833 64.5 -134.5s96.667 -56 161 -67s134 -24.667 209 -41
s144.667 -35.333 209 -57s118 -61.5 161 -119.5s64.5 -132 64.5 -222c0 -130 -52.333 -235 -157 -315s-242.334 -120 -413.001 -120z" />
    <glyph glyph-name="sacute" unicode="&#x15b;" horiz-adv-x="1089" 
d="M457 1157c-10.667 0 -18.499 3.83398 -23.499 11.501s-4.83301 16.167 0.5 25.5l135 252c8 15.333 20.333 22.666 37 21.999h209c27.333 0 33.666 -12 18.999 -36l-177 -256c-8 -12 -21 -18.333 -39 -19h-161zM559.001 -30.999
c-139.333 0 -251.67 28.666 -337.003 85.999s-135.333 137.333 -150 240c-2.66699 22 7.33301 33 30 33l172 -2c16.667 0 27.667 -9 33 -27c30 -91.333 114 -137 252 -137c58.667 0 106.5 10.167 143.5 30.5s55.5 46.833 55.5 79.5c0 39.333 -22.5 68.333 -67.5 87
s-99.333 32.167 -163 40.5s-127.167 19.333 -190.5 33s-117.666 42.667 -162.999 87s-68 105.166 -68 182.499c0 92.667 39.667 167.834 119 225.501s184 86.5 314 86.5c120 0 221 -26.667 303 -80s129.667 -123.666 143 -210.999c2.66699 -22 -7.66602 -33 -30.999 -33
h-172c-18 0 -28.667 6.33301 -32 19c-12 36.667 -37.667 66.167 -77 88.5s-84 33.5 -134 33.5c-56 0 -100.833 -9.5 -134.5 -28.5s-50.5 -44.167 -50.5 -75.5c0 -35.333 16.167 -63.333 48.5 -84s72 -33.667 119 -39s98.5 -13.833 154.5 -25.5s107.5 -25.334 154.5 -41.001
s86.5 -44.667 118.5 -87s48 -96.166 48 -161.499c0 -95.333 -40.167 -172.5 -120.5 -231.5s-186.166 -88.5 -317.499 -88.5z" />
    <glyph glyph-name="Scedilla" unicode="&#x15e;" horiz-adv-x="1431" 
d="M436 1047c0 -56 21.502 -100.833 64.502 -134.5s96.667 -56 161 -67s134 -24.667 209 -41s144.667 -35.333 209 -57s118 -61.5 161 -119.5s64.5 -132 64.5 -222c0 -118.667 -43.833 -216.667 -131.5 -294s-205.167 -123 -352.5 -137l-110 -297
c-6.66699 -16.667 -19 -24.667 -37 -24h-152c-24.667 0 -33.334 11.667 -26.001 35l82 295c-134 23.333 -243.333 73.833 -328 151.5s-134 173.167 -148 286.5c-2.66699 22 7.66602 33 30.999 33h197c18 0 28.667 -9.66699 32 -29
c15.333 -72.667 58.166 -130.5 128.499 -173.5s156.833 -64.5 259.5 -64.5c87.333 0 157.166 17.5 209.499 52.5s78.5 81.833 78.5 140.5c0 48 -16 86.667 -48 116s-74 50.5 -126 63.5s-109 24.5 -171 34.5s-124 22.833 -186 38.5s-119 37.167 -171 64.5s-94 69 -126 125
s-48 125 -48 207c0 130 50.5 234.833 151.5 314.5s234.167 119.5 399.5 119.5c161.333 0 295.833 -37.167 403.5 -111.5s171.834 -173.5 192.501 -297.5c4 -22 -5.66699 -33 -29 -33h-199c-18 0 -29.333 9 -34 27c-16.667 64 -52.667 114 -108 150s-124.666 54 -207.999 54
c-88.667 0 -160 -18.667 -214 -56s-81 -87.333 -81 -150z" />
    <glyph glyph-name="scedilla" unicode="&#x15f;" horiz-adv-x="1089" 
d="M997 289c0 -84.667 -31.334 -155.001 -94.001 -211.001s-147.334 -90.333 -254.001 -103l-110 -297c-6.66699 -16.667 -19 -24.667 -37 -24h-152c-24.667 0 -33.334 11.667 -26.001 35l82 295c-95.333 19.333 -172.166 55.5 -230.499 108.5s-92.833 120.5 -103.5 202.5
c-2.66699 22 7.33301 33 30 33l172 -2c16.667 0 27.667 -9 33 -27c30 -91.333 114 -137 252 -137c58.667 0 106.5 10.167 143.5 30.5s55.5 46.833 55.5 79.5c0 39.333 -22.5 68.333 -67.5 87s-99.333 32.167 -163 40.5s-127.167 19.333 -190.5 33
s-117.666 42.667 -162.999 87s-68 105.166 -68 182.499c0 92.667 39.667 167.834 119 225.501s184 86.5 314 86.5c120 0 221 -26.667 303 -80s129.667 -123.666 143 -210.999c2.66699 -22 -7.66602 -33 -30.999 -33h-172c-18 0 -28.667 6.33301 -32 19
c-12 36.667 -37.667 66.167 -77 88.5s-84 33.5 -134 33.5c-56 0 -100.833 -9.5 -134.5 -28.5s-50.5 -44.167 -50.5 -75.5c0 -35.333 16.167 -63.333 48.5 -84s72 -33.667 119 -39s98.5 -13.833 154.5 -25.5s107.5 -25.334 154.5 -41.001s86.5 -44.667 118.5 -87
s48 -96.166 48 -161.499z" />
    <glyph glyph-name="Scaron" unicode="&#x160;" horiz-adv-x="1431" 
d="M618 1571c-13.333 0 -25.3291 6 -35.9961 18l-213 256c-8 9.33301 -10.333 17.833 -7 25.5s11.666 11.5 24.999 11.5h162c15.333 0 27.666 -5.33301 36.999 -16l131 -146l131 146c9.33301 10.667 21.666 16 36.999 16h162c13.333 0 21.666 -3.66699 24.999 -11
s1 -16 -7 -26l-213 -256c-10.667 -12 -23 -18 -37 -18h-197zM735.004 -29c-173.333 0 -317.665 41 -432.998 123s-182 191.333 -200 328c-2.66699 22 7.66602 33 30.999 33h197c18 0 28.667 -9.66699 32 -29c15.333 -72.667 58.166 -130.5 128.499 -173.5
s156.833 -64.5 259.5 -64.5c87.333 0 157.166 17.5 209.499 52.5s78.5 81.833 78.5 140.5c0 48 -16 86.667 -48 116s-74 50.5 -126 63.5s-109 24.5 -171 34.5s-124 22.833 -186 38.5s-119 37.167 -171 64.5s-94 69 -126 125s-48 125 -48 207c0 130 50.5 234.833 151.5 314.5
s234.167 119.5 399.5 119.5c161.333 0 295.833 -37.167 403.5 -111.5s171.834 -173.5 192.501 -297.5c4 -22 -5.66699 -33 -29 -33h-199c-18 0 -29.333 9 -34 27c-16.667 64 -52.667 114 -108 150s-124.666 54 -207.999 54c-88.667 0 -160 -18.667 -214 -56
s-81 -87.333 -81 -150c0 -56 21.5 -100.833 64.5 -134.5s96.667 -56 161 -67s134 -24.667 209 -41s144.667 -35.333 209 -57s118 -61.5 161 -119.5s64.5 -132 64.5 -222c0 -130 -52.333 -235 -157 -315s-242.334 -120 -413.001 -120z" />
    <glyph glyph-name="scaron" unicode="&#x161;" horiz-adv-x="1089" 
d="M446 1139c-13.333 0 -25.3301 6 -35.9971 18l-213 256c-8 10.667 -10.333 19.5 -7 26.5s11.666 10.5 24.999 10.5h162c15.333 0 27.666 -5.33301 36.999 -16l131 -146l131 146c9.33301 10.667 21.666 16 36.999 16h161c13.333 0 21.833 -3.33301 25.5 -10
s1.5 -15.667 -6.5 -27l-213 -256c-10.667 -12 -23 -18 -37 -18h-197zM559.003 -31c-139.333 0 -251.67 28.666 -337.003 85.999s-135.333 137.333 -150 240c-2.66699 22 7.33301 33 30 33l172 -2c16.667 0 27.667 -9 33 -27c30 -91.333 114 -137 252 -137
c58.667 0 106.5 10.167 143.5 30.5s55.5 46.833 55.5 79.5c0 39.333 -22.5 68.333 -67.5 87s-99.333 32.167 -163 40.5s-127.167 19.333 -190.5 33s-117.666 42.667 -162.999 87s-68 105.166 -68 182.499c0 92.667 39.667 167.834 119 225.501s184 86.5 314 86.5
c120 0 221 -26.667 303 -80s129.667 -123.666 143 -210.999c2.66699 -22 -7.66602 -33 -30.999 -33h-172c-18 0 -28.667 6.33301 -32 19c-12 36.667 -37.667 66.167 -77 88.5s-84 33.5 -134 33.5c-56 0 -100.833 -9.5 -134.5 -28.5s-50.5 -44.167 -50.5 -75.5
c0 -35.333 16.167 -63.333 48.5 -84s72 -33.667 119 -39s98.5 -13.833 154.5 -25.5s107.5 -25.334 154.5 -41.001s86.5 -44.667 118.5 -87s48 -96.166 48 -161.499c0 -95.333 -40.167 -172.5 -120.5 -231.5s-186.166 -88.5 -317.499 -88.5z" />
    <glyph glyph-name="uni0162" unicode="&#x162;" horiz-adv-x="1409" 
d="M1317 1434c20.667 0 30.999 -10.334 30.999 -31.001v-166c0 -20.667 -10.333 -31 -31 -31h-483v-1175c0 -6.66699 -1 -11.667 -3 -15c-1.33301 -1.33301 -2 -2.66602 -2 -3.99902l-124 -334c-5.33301 -16.667 -17.666 -24.667 -36.999 -24h-152
c-24.667 0 -33.667 11.667 -27 35l91 323c-4 4 -6.33301 10.333 -7 19v1175h-481c-20.667 0 -31 10.333 -31 31v166c0 20.667 10.333 31 31 31h1225z" />
    <glyph glyph-name="uni0163" unicode="&#x163;" horiz-adv-x="956" 
d="M895 39c1.33301 -18 -7.00098 -30.334 -25.001 -37.001c-62.667 -16.667 -130.667 -27.667 -204 -33l-109 -291c-5.33301 -16.667 -17.666 -24.667 -36.999 -24h-151c-24.667 0 -33.667 11.667 -27 35l92 329c-125.333 70.667 -188 186.334 -188 347.001v419h-205
c-20.667 0 -31 10.333 -31 31v137c0 20.667 10.333 31 31 31h205v272c0 20.667 10 31 30 31h189c20.667 0 31 -10.333 31 -31v-272h348c20.667 0 30.667 -10.333 30 -31v-137c0 -20.667 -10 -31 -30 -31h-348v-411c0 -56 16 -100.833 48 -134.5s74.667 -50.5 128 -50.5
c57.333 0 111.333 6.33301 162 19c20.667 4 32.667 -4.33301 36 -25z" />
    <glyph glyph-name="Tcaron" unicode="&#x164;" horiz-adv-x="1409" 
d="M606 1571c-13.333 0 -25.667 6 -37 18l-213 256c-8 9.33301 -10.333 17.833 -7 25.5s12 11.5 26 11.5h162c15.333 0 27.333 -5.33301 36 -16l132 -146l131 146c9.33301 10.667 21.333 16 36 16h162c13.333 0 21.833 -3.66699 25.5 -11s1.5 -16 -6.5 -26l-213 -256
c-10.667 -12 -23 -18 -37 -18h-197zM1317 1434c20.667 0 31 -10.333 31 -31v-166c0 -20.667 -10.333 -31 -31 -31h-483v-1175c0 -20.667 -10.333 -31 -31 -31h-199c-20.667 -0 -31 10.333 -31 31v1175h-481c-20.667 0 -31 10.333 -31 31v166c0 20.667 10.333 31 31 31h1225z
" />
    <glyph glyph-name="tcaron" unicode="&#x165;" horiz-adv-x="956" 
d="M651 1174c-19.333 0 -28.667 10 -28 30l12 346c0 20.667 11 31 33 31h188c23.333 0 33 -11 29 -33l-66 -348c-4 -18 -15.667 -26.667 -35 -26h-133zM642.999 -31c-118.667 0 -214.499 36.168 -287.499 108.501s-109.5 168.166 -109.5 287.499v419h-205
c-20.667 0 -31 10.333 -31 31v137c0 20.667 10.333 31 31 31h205v272c0 20.667 10 31 30 31h189c20.667 0 31 -10.333 31 -31v-272h348c20.667 0 30.667 -10.333 30 -31v-137c0 -20.667 -10 -31 -30 -31h-348v-411c0 -56 16 -100.833 48 -134.5s74.667 -50.5 128 -50.5
c57.333 0 111.333 6.33301 162 19c20.667 4 32.667 -4.33301 36 -25l25 -143c1.33301 -18 -7 -30.333 -25 -37c-84.667 -22 -160.334 -33 -227.001 -33z" />
    <glyph glyph-name="Tbar" unicode="&#x166;" horiz-adv-x="1409" 
d="M1317 1434c20.667 0 31 -10.333 31 -31v-166c0 -20.667 -10.333 -31 -31 -31h-483v-241h315c20.667 0 31 -10.333 31 -31v-143c0 -20.667 -10.333 -31 -31 -31h-315v-729c0 -20.667 -10.333 -31 -31 -31h-199c-20.667 -0 -31 10.333 -31 31v729h-313
c-20.667 0 -31 10.333 -31 31v143c0 20.667 10.333 31 31 31h313v241h-481c-20.667 0 -31 10.333 -31 31v166c0 20.667 10.333 31 31 31h1225z" />
    <glyph glyph-name="tbar" unicode="&#x167;" horiz-adv-x="956" 
d="M895 39c1.33301 -18 -6.99902 -30.332 -24.999 -36.999c-84.667 -22 -160.334 -33 -227.001 -33c-118.667 0 -214.5 36.167 -287.5 108.5s-109.5 168.166 -109.5 287.499v124h-205c-20.667 0 -31 10.333 -31 31v107c0 20.667 10.333 30.667 31 30h205v127h-205
c-20.667 0 -31 10.333 -31 31v137c0 20.667 10.333 31 31 31h205v272c0 20.667 10 31 30 31h189c20.667 0 31 -10.333 31 -31v-272h348c20.667 0 30.667 -10.333 30 -31v-137c0 -20.667 -10 -31 -30 -31h-348v-127h254c20.667 0 30.667 -10 30 -30v-107
c0 -20.667 -10 -31 -30 -31h-254v-116c0 -56 16 -100.833 48 -134.5s74.667 -50.5 128 -50.5c57.333 0 111.333 6.33301 162 19c20.667 4 32.667 -4.33301 36 -25z" />
    <glyph glyph-name="Utilde" unicode="&#x168;" horiz-adv-x="1572" 
d="M932 1597c-52 0 -107.334 17.5 -166.001 52.5s-96.334 52.5 -113.001 52.5c-24.667 0 -41 -13 -49 -39c-6.66699 -19.333 -17.667 -29 -33 -29h-141c-22 0 -31.667 10.333 -29 31c6.66699 69.333 31.334 124.833 74.001 166.5s96.667 62.5 162 62.5
c53.333 0 109 -17.333 167 -52s96 -52 114 -52c24.667 0 41 13 49 39c6.66699 19.333 17.334 29 32.001 29h142c20.667 0 30 -10.333 28 -31c-6.66699 -69.333 -31.5 -125 -74.5 -167s-97.167 -63 -162.5 -63zM786.499 -31c-195 0 -352.667 59.833 -473 179.5
s-180.5 276.167 -180.5 469.5v785c0 20.667 10.333 31 31 31h198c20.667 0 31 -10.333 31 -31v-785c0 -125.333 36.167 -226.5 108.5 -303.5s167.333 -115.5 285 -115.5s212.667 38.5 285 115.5s108.5 178.167 108.5 303.5v785c0 20.667 10 31 30 31h199
c20.667 0 31 -10.333 31 -31v-785c0 -194 -60.167 -350.667 -180.5 -470s-278 -179 -473 -179z" />
    <glyph glyph-name="utilde" unicode="&#x169;" horiz-adv-x="1402" 
d="M276 1196c-20.667 0 -29.999 10.334 -27.999 31.001c6.66699 69.333 31.167 124.833 73.5 166.5s96.166 62.5 161.499 62.5c53.333 0 109 -17.333 167 -52s96 -52 114 -52c24.667 0 41 13 49 39c6.66699 19.333 17.667 28.666 33 27.999h141c22 0 31.667 -10 29 -30
c-6.66699 -69.333 -31.5 -125 -74.5 -167s-97.5 -63 -163.5 -63c-52 0 -107.333 17.5 -166 52.5s-96 52.5 -112 52.5c-24.667 0 -41 -13 -49 -39c-6.66699 -19.333 -17.667 -29 -33 -29h-142zM1341 31.001c1.33301 -18 -6.66602 -30.332 -23.999 -36.999
c-50.667 -16.667 -97 -25 -139 -25c-121.333 0 -206 38.333 -254 115c-88.667 -76.667 -206.334 -115 -353.001 -115c-134 0 -242.167 42.667 -324.5 128s-123.5 197.666 -123.5 336.999v518c0 20.667 10.333 31 31 31h188c20.667 0 31 -10.333 31 -31v-503
c0 -79.333 23.167 -143.333 69.5 -192s107.166 -73 182.499 -73c79.333 0 143.5 23 192.5 69s73.5 106.333 73.5 181v518c0 20.667 10.333 31 31 31h188c20.667 0 31 -10.333 31 -31v-688c0 -23.333 6.5 -41.833 19.5 -55.5s30.333 -20.5 52 -20.5s46.834 3 75.501 9
c22 4 34.333 -4.33301 37 -25z" />
    <glyph glyph-name="Umacron" unicode="&#x16a;" horiz-adv-x="1572" 
d="M512 1595c-20.667 0 -31 10.333 -31 31v133c0 20.667 10.333 31 31 31h547c20.667 0 31 -10.333 31 -31v-133c0 -20.667 -10.333 -31 -31 -31h-547zM786.5 -31c-195 0 -352.667 59.833 -473 179.5s-180.5 276.167 -180.5 469.5v785c0 20.667 10.333 31 31 31h198
c20.667 0 31 -10.333 31 -31v-785c0 -125.333 36.167 -226.5 108.5 -303.5s167.333 -115.5 285 -115.5s212.667 38.5 285 115.5s108.5 178.167 108.5 303.5v785c0 20.667 10 31 30 31h199c20.667 0 31 -10.333 31 -31v-785c0 -194 -60.167 -350.667 -180.5 -470
s-278 -179 -473 -179z" />
    <glyph glyph-name="umacron" unicode="&#x16b;" horiz-adv-x="1402" 
d="M358 1196c-20.667 0 -30.667 10.333 -30 31v133c0 20.667 10 31 30 31h547c20.667 0 31 -10.333 31 -31v-133c0 -20.667 -10.333 -31 -31 -31h-547zM1341 31c1.33301 -18 -6.66602 -30.332 -23.999 -36.999c-50.667 -16.667 -97 -25 -139 -25
c-121.333 0 -206 38.333 -254 115c-88.667 -76.667 -206.334 -115 -353.001 -115c-134 0 -242.167 42.667 -324.5 128s-123.5 197.666 -123.5 336.999v518c0 20.667 10.333 31 31 31h188c20.667 0 31 -10.333 31 -31v-503c0 -79.333 23.167 -143.333 69.5 -192
s107.166 -73 182.499 -73c79.333 0 143.5 23 192.5 69s73.5 106.333 73.5 181v518c0 20.667 10.333 31 31 31h188c20.667 0 31 -10.333 31 -31v-688c0 -23.333 6.5 -41.833 19.5 -55.5s30.333 -20.5 52 -20.5s46.834 3 75.501 9c22 4 34.333 -4.33301 37 -25z" />
    <glyph glyph-name="Uring" unicode="&#x16e;" horiz-adv-x="1572" 
d="M788.5 1604c-72.333 0 -131 19.667 -176 59s-67.5 91.166 -67.5 155.499s22.5 116.333 67.5 156s103.667 59.5 176 59.5s130.333 -19.833 174 -59.5s65.5 -91.667 65.5 -156s-21.833 -116.166 -65.5 -155.499s-101.667 -59 -174 -59zM786 1722c30 0 54.333 9 73 27
s28 41.333 28 70s-9.33301 51.834 -28 69.501s-43 26.5 -73 26.5c-28.667 0 -52.5 -8.83301 -71.5 -26.5s-28.5 -40.834 -28.5 -69.501s9.5 -52 28.5 -70s42.833 -27 71.5 -27zM786.5 -31c-195 0 -352.667 59.833 -473 179.5s-180.5 276.167 -180.5 469.5v785
c0 20.667 10.333 31 31 31h198c20.667 0 31 -10.333 31 -31v-785c0 -125.333 36.167 -226.5 108.5 -303.5s167.333 -115.5 285 -115.5s212.667 38.5 285 115.5s108.5 178.167 108.5 303.5v785c0 20.667 10 31 30 31h199c20.667 0 31 -10.333 31 -31v-785
c0 -194 -60.167 -350.667 -180.5 -470s-278 -179 -473 -179z" />
    <glyph glyph-name="uring" unicode="&#x16f;" horiz-adv-x="1402" 
d="M634.5 1124c-72.333 0 -131 19.833 -176 59.5s-67.5 91.667 -67.5 156s22.5 116.166 67.5 155.499s103.667 59 176 59s130.333 -19.667 174 -59s65.5 -91.166 65.5 -155.499s-21.833 -116.333 -65.5 -156s-101.667 -59.5 -174 -59.5zM633 1436
c-28.667 0 -52.667 -9 -72 -27s-29 -41.333 -29 -70s9.66699 -51.834 29 -69.501s43.333 -26.5 72 -26.5c30 0 54.167 8.83301 72.5 26.5s27.5 40.834 27.5 69.501s-9.16699 52 -27.5 70s-42.5 27 -72.5 27zM1341 31c1.33301 -18 -6.66602 -30.332 -23.999 -36.999
c-50.667 -16.667 -97 -25 -139 -25c-121.333 0 -206 38.333 -254 115c-88.667 -76.667 -206.334 -115 -353.001 -115c-134 0 -242.167 42.667 -324.5 128s-123.5 197.666 -123.5 336.999v518c0 20.667 10.333 31 31 31h188c20.667 0 31 -10.333 31 -31v-503
c0 -79.333 23.167 -143.333 69.5 -192s107.166 -73 182.499 -73c79.333 0 143.5 23 192.5 69s73.5 106.333 73.5 181v518c0 20.667 10.333 31 31 31h188c20.667 0 31 -10.333 31 -31v-688c0 -23.333 6.5 -41.833 19.5 -55.5s30.333 -20.5 52 -20.5s46.834 3 75.501 9
c22 4 34.333 -4.33301 37 -25z" />
    <glyph glyph-name="Uhungarumlaut" unicode="&#x170;" horiz-adv-x="1572" 
d="M551 1589c-24.667 0 -32.3311 12.333 -22.998 37l109 252c5.33301 15.333 17.666 23 36.999 23h190c27.333 0 33.666 -12.333 18.999 -37l-150 -256c-5.33301 -12 -18.333 -18.333 -39 -19h-143zM868.003 1589c-24.667 0 -31.999 12.333 -21.999 37l108 252
c5.33301 15.333 17.666 23 36.999 23h191c26 0 32 -12.333 18 -37l-149 -256c-6.66699 -12 -19.667 -18.333 -39 -19h-144zM786.504 -31c-195 0 -352.667 59.833 -473 179.5s-180.5 276.167 -180.5 469.5v785c0 20.667 10.333 31 31 31h198c20.667 0 31 -10.333 31 -31v-785
c0 -125.333 36.167 -226.5 108.5 -303.5s167.333 -115.5 285 -115.5s212.667 38.5 285 115.5s108.5 178.167 108.5 303.5v785c0 20.667 10 31 30 31h199c20.667 0 31 -10.333 31 -31v-785c0 -194 -60.167 -350.667 -180.5 -470s-278 -179 -473 -179z" />
    <glyph glyph-name="uhungarumlaut" unicode="&#x171;" horiz-adv-x="1402" 
d="M397 1157c-24.667 0 -31.999 12.334 -21.999 37.001l108 252c5.33301 15.333 17.666 22.666 36.999 21.999h191c26 0 32 -12 18 -36l-149 -256c-6.66699 -12 -19.667 -18.333 -39 -19h-144zM715.001 1157c-24.667 0 -32.3311 12.334 -22.998 37.001l109 252
c5.33301 15.333 17.666 22.666 36.999 21.999h190c27.333 0 33.666 -12 18.999 -36l-150 -256c-5.33301 -12 -18.333 -18.333 -39 -19h-143zM1341 31.002c1.33301 -18 -6.66602 -30.332 -23.999 -36.999c-50.667 -16.667 -97 -25 -139 -25c-121.333 0 -206 38.333 -254 115
c-88.667 -76.667 -206.334 -115 -353.001 -115c-134 0 -242.167 42.667 -324.5 128s-123.5 197.666 -123.5 336.999v518c0 20.667 10.333 31 31 31h188c20.667 0 31 -10.333 31 -31v-503c0 -79.333 23.167 -143.333 69.5 -192s107.166 -73 182.499 -73
c79.333 0 143.5 23 192.5 69s73.5 106.333 73.5 181v518c0 20.667 10.333 31 31 31h188c20.667 0 31 -10.333 31 -31v-688c0 -23.333 6.5 -41.833 19.5 -55.5s30.333 -20.5 52 -20.5s46.834 3 75.501 9c22 4 34.333 -4.33301 37 -25z" />
    <glyph glyph-name="Uogonek" unicode="&#x172;" horiz-adv-x="1572" 
d="M1409 1434c20.667 0 31 -10.3301 31 -30.9971v-785c0 -170.667 -47.5 -313.334 -142.5 -428.001s-222.5 -184.667 -382.5 -210c-42 -20.667 -63 -47.334 -63 -80.001c0 -22 11.667 -39.5 35 -52.5s54 -19.5 92 -19.5c28.667 0 49.667 1.33301 63 4
c20.667 4 32.334 -4.33301 35.001 -25l17 -114c2.66699 -20.667 -5 -33 -23 -37c-42 -9.33301 -81.667 -14 -119 -14c-92.667 0 -167.334 20 -224.001 60s-85 93 -85 159c0 42 11.667 80 35 114c-165.333 23.333 -297.5 92.666 -396.5 207.999s-148.5 260.333 -148.5 435
v785c0 20.667 10.333 31 31 31h198c20.667 0 31 -10.333 31 -31v-785c0 -125.333 36.167 -226.5 108.5 -303.5s167.333 -115.5 285 -115.5s212.667 38.5 285 115.5s108.5 178.167 108.5 303.5v785c0 20.667 10 31 30 31h199z" />
    <glyph glyph-name="uogonek" unicode="&#x173;" horiz-adv-x="1402" 
d="M1341 31c1.33301 -18 -6.66602 -30.333 -23.999 -37c-50.667 -16.667 -97 -25 -139 -25c-16.667 0 -37.334 1.33301 -62.001 4c-35.333 -19.333 -53 -43.666 -53 -72.999c0 -22 11.667 -39.5 35 -52.5s54 -19.5 92 -19.5c28.667 0 49.667 1.33301 63 4
c20.667 4 32.334 -4.33301 35.001 -25l17 -114c2.66699 -20.667 -5 -33 -23 -37c-44 -9.33301 -83.667 -14 -119 -14c-92.667 0 -167.334 20 -224.001 60s-85 93 -85 159c0 76.667 35.667 136.667 107 180c-15.333 12 -27.666 26.333 -36.999 43
c-88.667 -76.667 -206.334 -115 -353.001 -115c-134 0 -242.167 42.667 -324.5 128s-123.5 197.666 -123.5 336.999v518c0 20.667 10.333 31 31 31h188c20.667 0 31 -10.333 31 -31v-503c0 -79.333 23.167 -143.333 69.5 -192s107.166 -73 182.499 -73
c79.333 0 143.5 23 192.5 69s73.5 106.333 73.5 181v518c0 20.667 10.333 31 31 31h188c20.667 0 31 -10.333 31 -31v-688c0 -23.333 6.5 -41.833 19.5 -55.5s30.333 -20.5 52 -20.5s46.834 3 75.501 9c22 4 34.333 -4.33301 37 -25z" />
    </font>
</defs>
</svg>
